<svg xmlns="http://www.w3.org/2000/svg" width="24" height="24" viewBox="0 0 24 24"><g transform="translate(-425 -3048)"><g transform="translate(-18278 4248)"><rect width="24" height="24" transform="translate(18703 -1200)" fill="none"/></g><path d="M264.9,215.153a5.356,5.356,0,1,0,5.356,5.356A5.356,5.356,0,0,0,264.9,215.153Zm-7.3,5.356a7.3,7.3,0,1,1,8.279,7.24v2.986h1.353a.974.974,0,0,1,0,1.948h-1.353v1.341a.974.974,0,1,1-1.948,0v-1.341h-1.353a.974.974,0,0,1,0-1.948h1.353v-2.986a7.306,7.306,0,0,1-6.33-7.24Z" transform="translate(172.096 2836.15)" fill-rule="evenodd"/><path d="M264.9,212.705a7.805,7.805,0,0,1,1.474,15.47v2.061h.853a1.474,1.474,0,0,1,0,2.948h-.853v.841a1.474,1.474,0,1,1-2.948,0v-.841h-.853a1.474,1.474,0,0,1,0-2.948h.853v-2.061a7.807,7.807,0,0,1-6.314-7.165H257.1v-.5A7.813,7.813,0,0,1,264.9,212.705Zm2.327,19.478a.474.474,0,0,0,0-.948h-1.853v-3.924l.434-.058a6.8,6.8,0,1,0-7.712-6.824v.079a6.821,6.821,0,0,0,5.9,6.744l.434.058v3.924h-1.853a.474.474,0,0,0,0,.948h1.853v1.841a.474.474,0,1,0,.948,0v-1.841Zm-2.327-17.53a5.856,5.856,0,1,1-5.857,5.856A5.863,5.863,0,0,1,264.9,214.653Zm0,10.713a4.856,4.856,0,1,0-4.857-4.857A4.862,4.862,0,0,0,264.9,225.366Z" transform="translate(172.096 2836.15)" fill="#070202"/></g></svg>