<svg xmlns="http://www.w3.org/2000/svg" width="24" height="24" viewBox="0 0 24 24"><g transform="translate(1386.518 573.236)"><rect width="24" height="24" transform="translate(-1386.518 -573.236)" fill="none"/><path d="M176.873,161.41a5.25,5.25,0,0,0-.359,10.489v3.674h-1.776a.358.358,0,0,0,.037.714h1.739v2.385a.357.357,0,1,0,.714,0v-2.385h1.743a.357.357,0,1,0,0-.714h-1.743V171.9a5.25,5.25,0,0,0-.356-10.489Zm0,.715a4.539,4.539,0,1,1-4.539,4.539A4.532,4.532,0,0,1,176.873,162.125ZM186.1,164.5h-.036a.357.357,0,0,0-.213.089l-2.1,1.877h0a.358.358,0,0,0,.477.533l1.5-1.343v5.974a5.255,5.255,0,1,0,.714,0v-5.976l1.5,1.345a.358.358,0,1,0,.477-.533l-2.1-1.877h0a.357.357,0,0,0-.227-.09Zm-.01,7.826a4.54,4.54,0,1,1-4.541,4.539A4.533,4.533,0,0,1,186.09,172.325Z" transform="translate(-1556 -733)"/><path d="M176.873,160.81a5.85,5.85,0,0,1,.956,11.623v2.54h1.137a.953.953,0,0,1,.682.272.957.957,0,0,1,0,1.369.984.984,0,0,1-.078.068v.2h-1.743v1.78a.957.957,0,1,1-1.914,0v-1.78h-1.132a.958.958,0,0,1-.087-1.912h.007c.029,0,.058,0,.087,0h1.126v-2.54a5.85,5.85,0,0,1,.958-11.622Zm0,9.792a3.939,3.939,0,1,0-3.939-3.939A3.943,3.943,0,0,0,176.873,170.6Zm9.215-6.7h.03l.582.018v.2l.025.021.2.181,1.9,1.7a.958.958,0,1,1-1.277,1.427l-.5-.45v4.1a5.855,5.855,0,1,1-1.914,0V167l-.5.449a.958.958,0,0,1-1.477-1.177V166.2l2.3-2.056a.963.963,0,0,1,.574-.241Zm0,16.907a3.94,3.94,0,1,0-3.941-3.941A3.944,3.944,0,0,0,186.09,180.805Z" transform="translate(-1556 -733)"/></g></svg>