<svg xmlns="http://www.w3.org/2000/svg" width="24" height="24" viewBox="0 0 24 24"><g transform="translate(-15300 -171)"><rect width="24" height="24" transform="translate(15300 171)" fill="none"/><path d="M206.789,207.69l-.009-.007a13.282,13.282,0,0,0-4.332-5.559.4.4,0,0,0-.063-.039,5.546,5.546,0,0,0-6.379-.625,5.545,5.545,0,0,0-6.379.625.374.374,0,0,0-.063.039,13.285,13.285,0,0,0-4.345,5.587c-.008.01-.013.022-.02.032a.391.391,0,0,0-.04.07.426.426,0,0,0-.016.046.4.4,0,0,0-.014.083c0,.01-.005.019-.005.029V218.69a2.057,2.057,0,1,0,4.114,0v-.918a1.309,1.309,0,0,0,.91,0v1.158a1.3,1.3,0,1,0,2.6,0v-1.111a.793.793,0,0,1,.718-.786.684.684,0,0,0,.078.005,1.608,1.608,0,0,0,1.606-1.606v-.1q.429.031.864.032a11.711,11.711,0,0,0,10.859-7.235.4.4,0,0,0-.083-.437Zm-10.371,1.777v-.706H199.1v.547Q197.77,209.449,196.418,209.467Zm-6.842-.706h2.537v.455Q190.835,209.045,189.577,208.761Zm-2.952-.833q.985-.406,1.994-.724v.747h-1.929l-.065-.023Zm5.489-1.548v1.57h-2.685v-.988A24.422,24.422,0,0,1,192.113,206.38Zm3.494-.3v1.871h-2.684v-1.684a24.83,24.83,0,0,1,2.684-.187Zm3.5.188v1.683h-2.685V206.08A24.961,24.961,0,0,1,199.1,206.268Zm3.495.7v.984h-2.685v-1.568A24.319,24.319,0,0,1,202.6,206.967Zm-9.674,1.794h2.684v.706q-1.351-.018-2.684-.159Zm6.99,0h2.538q-1.258.283-2.538.455Zm3.495-.811v-.742q1,.317,1.986.722l-.056.02h-1.93Zm-13.623-4.975a.4.4,0,0,0,.179-.1,4.736,4.736,0,0,1,5.825-.6.4.4,0,0,0,.433,0,4.736,4.736,0,0,1,5.825.6.4.4,0,0,0,.179.1,12.489,12.489,0,0,1,3.425,4.182,25.264,25.264,0,0,0-9.636-1.894h-.01a25.712,25.712,0,0,0-3.478.239h-.009a.412.412,0,0,0-.1.014,25.114,25.114,0,0,0-3.447.738.412.412,0,0,0-.113.031,25.292,25.292,0,0,0-2.5.872,12.487,12.487,0,0,1,3.426-4.182Zm4.553,12.267v.189a.793.793,0,0,1-.781.8c-.021,0-.041-.005-.062-.006a.456.456,0,0,0-.046,0,1.605,1.605,0,0,0-1.513,1.6v1.111a.489.489,0,1,1-.979,0V216.59a.405.405,0,0,0-.811,0,.455.455,0,1,1-.91,0,.405.405,0,0,0-.811,0v2.1a1.247,1.247,0,1,1-2.493,0v-9.015a11.7,11.7,0,0,0,7.74,5.454l.016,0c.213.042.428.08.645.111h0Zm1.674-.692a11.049,11.049,0,0,1-1.347-.086c-.147-.018-.293-.04-.438-.064-.1-.016-.2-.032-.293-.051-.151-.029-.3-.062-.449-.1-.087-.021-.174-.041-.261-.064-.158-.041-.315-.087-.47-.135l-.219-.07q-.25-.084-.495-.178l-.173-.069q-.261-.107-.516-.226l-.132-.063q-.269-.13-.53-.275l-.1-.055q-.271-.154-.533-.323l-.074-.048q-.267-.176-.523-.366l-.062-.047q-.256-.194-.5-.4l-.063-.055q-.238-.206-.464-.426l-.076-.075q-.214-.212-.417-.437c-.033-.037-.065-.074-.1-.111q-.186-.211-.36-.432c-.042-.053-.082-.107-.122-.16-.1-.135-.2-.273-.3-.413-.05-.073-.1-.148-.146-.222-.082-.126-.164-.253-.241-.383-.056-.1-.11-.193-.164-.29-.031-.056-.061-.113-.091-.169h.2q1.16.384,2.342.672a.4.4,0,0,0,.07.016,29.931,29.931,0,0,0,3.464.623.4.4,0,0,0,.086.009h0a29.866,29.866,0,0,0,6.984,0h0a.413.413,0,0,0,.085-.009,29.887,29.887,0,0,0,3.463-.623.4.4,0,0,0,.073-.017q1.182-.288,2.341-.672h.205a10.906,10.906,0,0,1-9.663,5.79Z" transform="translate(15115.877 -27.731)" fill="#b7b7b7"/><path d="M193.261,200.481a5.8,5.8,0,0,1,2.745.693,5.8,5.8,0,0,1,6.521.7.662.662,0,0,1,.071.046,13.541,13.541,0,0,1,4.394,5.616.654.654,0,0,1,.111.682,11.96,11.96,0,0,1-11.09,7.389c-.2,0-.412-.005-.621-.016a1.858,1.858,0,0,1-1.849,1.692c-.028,0-.054,0-.076,0a.54.54,0,0,0-.47.535v1.111a1.55,1.55,0,1,1-3.1,0v-.84a1.6,1.6,0,0,1-.41,0v.6a2.307,2.307,0,1,1-4.614,0V207.972a.3.3,0,0,1,.007-.065.647.647,0,0,1,.022-.116.682.682,0,0,1,.026-.075.62.62,0,0,1,.061-.109l.008-.013a13.543,13.543,0,0,1,4.417-5.669.59.59,0,0,1,.07-.046A5.8,5.8,0,0,1,193.261,200.481Zm2.745,1.266-.124-.071a5.3,5.3,0,0,0-6.091.6l-.025.021-.029.014-.021.013a13.046,13.046,0,0,0-4.266,5.484l-.015.036-.015.018-.017.027a.145.145,0,0,0-.014.024.178.178,0,0,0-.007.02.151.151,0,0,0,0,.029c0,.014,0,.025,0,.034v10.7a1.807,1.807,0,1,0,3.614,0v-1.282l.34.131a1.078,1.078,0,0,0,.73,0l.34-.131v1.522a1.05,1.05,0,1,0,2.1,0v-1.111a1.038,1.038,0,0,1,.944-1.035l.026,0,.026,0,.05,0a1.357,1.357,0,0,0,1.356-1.356v-.37l.268.019c.283.021.568.031.846.031a11.462,11.462,0,0,0,10.628-7.081.155.155,0,0,0-.022-.157l-.016-.014-.035-.035-.019-.046a13.042,13.042,0,0,0-4.25-5.454.156.156,0,0,0-.025-.015l-.029-.014-.024-.021a5.3,5.3,0,0,0-6.091-.6Zm-2.745-.456a4.984,4.984,0,0,1,2.662.772.157.157,0,0,0,.166,0,4.986,4.986,0,0,1,6.132.631.152.152,0,0,0,.069.039l.051.013.041.032a12.825,12.825,0,0,1,3.494,4.266l.3.6-.62-.254a25.037,25.037,0,0,0-9.541-1.875H196a25.583,25.583,0,0,0-3.436.237l-.052,0h0l-.03.006-.026.005a24.974,24.974,0,0,0-3.412.731l-.018.005-.018,0a.167.167,0,0,0-.045.011l-.032.012a25.168,25.168,0,0,0-2.473.864l-.62.255.3-.6a12.824,12.824,0,0,1,3.494-4.266l.041-.032.051-.013a.153.153,0,0,0,.068-.039A4.973,4.973,0,0,1,193.261,201.292Zm2.745,1.3a.653.653,0,0,1-.35-.1,4.486,4.486,0,0,0-5.518.568.657.657,0,0,1-.234.145,12.347,12.347,0,0,0-3,3.474c.6-.228,1.229-.437,1.867-.624a.663.663,0,0,1,.145-.04,25.479,25.479,0,0,1,3.453-.739.638.638,0,0,1,.147-.018,26.077,26.077,0,0,1,3.489-.238h.025a25.539,25.539,0,0,1,9.075,1.659,12.345,12.345,0,0,0-3-3.473.654.654,0,0,1-.235-.146,4.486,4.486,0,0,0-5.518-.568A.654.654,0,0,1,196.006,202.588Zm.162,3.238.254,0a25.331,25.331,0,0,1,2.711.19l.219.027V208.2h-3.185Zm2.685.664c-.719-.083-1.452-.135-2.185-.155V207.7h2.185Zm-3-.664V208.2h-3.184v-2.155l.219-.027a25.193,25.193,0,0,1,2.711-.189Zm-.5,1.875v-1.366c-.734.019-1.466.071-2.184.153V207.7Zm-2.994-1.614V208.2h-3.185v-1.429l.183-.051a24.776,24.776,0,0,1,2.712-.588Zm-.5,1.613v-1.026c-.734.126-1.467.286-2.185.479v.547Zm7.8-1.611.289.046a24.674,24.674,0,0,1,2.712.591l.183.051V208.2h-3.185Zm2.685,1.068c-.717-.193-1.45-.354-2.185-.481V207.7h2.185Zm-13.48-.294V208.2h-2.22l-.039-.013-.036-.013-.028-.01-.629-.214.614-.253c.663-.273,1.34-.519,2.014-.731Zm14.291,0,.325.1c.671.212,1.346.457,2.006.73l.621.256-.637.212-.023.008-.032.011-.039.013h-1.971v-.234l-.25-.015Zm-13.582,1.644h2.787v.991l-.283-.038c-.852-.114-1.712-.268-2.559-.459Zm3.1,0h3.184v1.209l-.253,0c-.9-.012-1.81-.066-2.707-.16l-.224-.024Zm2.684.5h-2.184v.071c.725.071,1.458.114,2.184.131Zm.81-.5h3.185v1.022l-.224.024c-.892.094-1.8.148-2.707.16l-.253,0Zm2.685.5h-2.185v.2c.73-.016,1.463-.06,2.185-.13Zm.811-.5h2.788l.055.494c-.851.192-1.713.346-2.56.459l-.283.038Zm-13.725,0h.659l.038.013c.766.254,1.548.478,2.323.667l.019.005.026.006.024,0a29.811,29.811,0,0,0,3.435.618l.023,0,.026,0h.024l.014,0a29.616,29.616,0,0,0,6.926,0l.039,0,.026,0,.022,0a29.766,29.766,0,0,0,3.434-.618l.026,0,.027-.006.02-.006c.776-.189,1.557-.413,2.321-.666l.038-.013h.661l-.2.367a11.158,11.158,0,0,1-9.884,5.922l-.181,0a11.428,11.428,0,0,1-1.2-.087c-.136-.017-.282-.038-.448-.065-.1-.016-.2-.032-.3-.052-.14-.027-.29-.059-.459-.1-.089-.021-.178-.042-.267-.065-.155-.04-.312-.085-.481-.138l-.223-.071c-.175-.059-.345-.12-.507-.183l-.015-.006-.163-.065c-.178-.073-.355-.15-.527-.23l-.117-.055-.017-.008c-.187-.091-.369-.185-.543-.282l-.065-.037-.033-.019c-.19-.108-.373-.219-.546-.331l-.021-.014-.055-.036c-.183-.12-.363-.246-.534-.374l-.062-.047c-.177-.134-.349-.272-.513-.412l-.042-.036-.023-.02c-.166-.144-.326-.29-.475-.436l-.076-.076c-.146-.145-.29-.3-.427-.447l-.074-.084-.026-.03c-.129-.147-.253-.3-.368-.441-.032-.041-.063-.082-.095-.124l-.031-.04c-.116-.153-.217-.291-.308-.422-.042-.06-.081-.122-.121-.183l-.029-.045c-.068-.1-.159-.244-.246-.391-.049-.083-.095-.165-.139-.246l-.028-.051c-.024-.044-.047-.087-.071-.131Zm10.148,5.789a10.66,10.66,0,0,0,9.1-5.185c-.658.209-1.327.4-1.992.559a.646.646,0,0,1-.094.022,30.265,30.265,0,0,1-3.471.624.664.664,0,0,1-.115.012,30.112,30.112,0,0,1-7.009,0,.656.656,0,0,1-.116-.012,30.312,30.312,0,0,1-3.472-.625.652.652,0,0,1-.089-.021c-.664-.162-1.332-.349-1.992-.558.061.1.13.211.222.35l.03.046c.037.057.074.115.113.171.086.125.182.257.294.4l.032.042c.029.038.058.077.087.114.11.139.229.281.352.422l.027.032.067.077c.131.145.268.289.407.427l.075.074c.142.138.295.278.453.416l.025.022.036.031c.158.134.322.266.49.394l.039.029.023.017c.163.121.335.241.51.357l.073.048c.164.106.339.212.519.315l.033.019.061.034c.167.093.341.183.518.269l.016.008.113.053c.164.077.334.151.5.221l.155.061.015.006c.154.06.317.118.483.174l.213.068c.162.05.312.093.46.132.084.022.17.042.255.062.162.038.306.069.439.094.1.018.193.034.287.05.159.026.3.046.428.062a10.728,10.728,0,0,0,1.317.085Zm-10.4-5.531.464.775a11.478,11.478,0,0,0,7.575,5.338l.018,0c.213.042.414.077.611.105h.014l.023.006.073.013.126.133v.289a1.039,1.039,0,0,1-1.031,1.045l-.032,0-.04,0h-.022a1.355,1.355,0,0,0-1.277,1.349v1.111a.739.739,0,1,1-1.479,0V216.59a.155.155,0,0,0-.311,0,.705.705,0,1,1-1.41,0,.155.155,0,0,0-.311,0v2.1a1.5,1.5,0,1,1-2.993,0Zm8.4,6.687c-.144-.023-.292-.05-.446-.081l-.017,0a11.987,11.987,0,0,1-7.441-4.856v8.172a1,1,0,1,0,1.993,0v-2.1a.655.655,0,0,1,1.311,0,.205.205,0,1,0,.41,0,.655.655,0,0,1,1.311,0v2.339a.239.239,0,1,0,.479,0v-1.111a1.855,1.855,0,0,1,1.748-1.848c.017,0,.044,0,.068,0h.006l.063.006A.546.546,0,0,0,194.088,215.458Z" transform="translate(15115.877 -27.731)" fill="#b7b7b7"/></g></svg>