<svg xmlns="http://www.w3.org/2000/svg" width="24" height="24" viewBox="0 0 24 24"><g transform="translate(8922 17962)"><path d="M0,0H24V24H0Z" transform="translate(-8922 -17962)" fill="none"/><path d="M200.692,176.238c-.027-.027-.056-.052-.084-.077l-.024-.02a2.614,2.614,0,0,1-.743-1.83v-1.165a.372.372,0,0,0-.372-.372h-1.32a1.307,1.307,0,0,0,.14-.582c0-.014,0-.028,0-.042s0-.01,0-.016l0-1.85a1.324,1.324,0,0,0-1.119-1.3,5.248,5.248,0,0,0-1.16-2.186,4.092,4.092,0,0,0,.264-1.575,2.325,2.325,0,0,0-2.322-2.307h0a2.316,2.316,0,0,0-1.95,1.06,2.315,2.315,0,0,0-1.949-1.06h0a2.325,2.325,0,0,0-2.322,2.307,4.152,4.152,0,0,0,.3,1.68,5.25,5.25,0,0,0-1.07,2.081,1.324,1.324,0,0,0-1.118,1.3l0,1.849a.185.185,0,0,0,0,.019c0,.013,0,.026,0,.039a1.312,1.312,0,0,0,.14.582h-1.32a.372.372,0,0,0-.372.372v1.165a2.606,2.606,0,0,1-.732,1.818l-.036.032c-.028.025-.057.05-.083.076a5.27,5.27,0,0,0,3.728,9h0a5.26,5.26,0,0,0,4.9-3.323,5.245,5.245,0,0,0,.662,1.193,5.3,5.3,0,0,0,.508.588,5.236,5.236,0,0,0,3.728,1.542h0a5.27,5.27,0,0,0,3.73-9Zm-4.311-4.047s0-.006,0-.008,0-.018,0-.027a.583.583,0,0,1,.359-.5l.028-.009a.611.611,0,0,1,.076-.023.564.564,0,0,1,.226,0,.551.551,0,0,1,.076.023l.028.009a.582.582,0,0,1,.359.5c0,.009,0,.018,0,.027s0,.006,0,.008a.582.582,0,1,1-1.163,0Zm1.163-1.908V171l-.036-.015-.063-.026a1.238,1.238,0,0,0-.169-.053,1.276,1.276,0,0,0-.129-.023l-.071-.007c-.037,0-.073-.011-.111-.011s-.075.008-.112.011l-.069.007a1.29,1.29,0,0,0-.133.024,1.225,1.225,0,0,0-.165.051l-.065.027-.036.015v-.717a.582.582,0,0,1,1.163,0Zm-8.733-3.436a.348.348,0,0,0-.027-.063,3.478,3.478,0,0,1-.313-1.516c0-.012,0-.024,0-.036a1.58,1.58,0,0,1,1.578-1.578,1.6,1.6,0,0,1,.226.016l.011,0a1.588,1.588,0,0,1,.611.23l.01.007a1.6,1.6,0,0,1,.163.122l.028.026a1.536,1.536,0,0,1,.125.124c.014.016.027.034.041.05.032.039.063.079.092.121.015.021.027.045.041.067a1.576,1.576,0,0,1,.084.152l.177.4c0,.007.008.013.011.02s.013.025.021.037a.351.351,0,0,0,.024.031c.007.008.013.016.02.023a.417.417,0,0,0,.035.03l.019.014a.381.381,0,0,0,.047.027l.011.006h0a.364.364,0,0,0,.06.02l.01,0a.373.373,0,0,0,.066.008h.005a.4.4,0,0,0,.066-.005h.006a.373.373,0,0,0,.059-.016l.011,0,.015,0a.35.35,0,0,0,.039-.022l.01-.005a.417.417,0,0,0,.049-.038l.007-.006a.345.345,0,0,0,.044-.05l0,0a.37.37,0,0,0,.043-.08l.169-.379a1.533,1.533,0,0,1,.087-.158c.012-.02.024-.04.036-.059a1.618,1.618,0,0,1,.1-.133l.032-.038a1.538,1.538,0,0,1,.136-.135l.017-.016a1.627,1.627,0,0,1,.173-.129h0a1.583,1.583,0,0,1,.612-.231l.012,0a1.6,1.6,0,0,1,.226-.016,1.58,1.58,0,0,1,1.577,1.578c0,.01,0,.023,0,.034a3.415,3.415,0,0,1-.278,1.433.379.379,0,0,0-.025.063A6.932,6.932,0,0,1,192,170.045a7.009,7.009,0,0,1-3.19-3.2Zm3.011,3.948h0a.373.373,0,0,0,.18.046.369.369,0,0,0,.194-.055c.21-.114.406-.23.6-.346a7.777,7.777,0,0,0,2.88-2.887,4.492,4.492,0,0,1,.755,1.521,1.326,1.326,0,0,0-.79,1.21l0,1.849c0,.007,0,.013,0,.019s0,.026,0,.039a1.312,1.312,0,0,0,.14.582h-1.32a.372.372,0,0,0-.372.372v1.165a2.606,2.606,0,0,1-.732,1.819l-.037.033c-.028.024-.055.048-.081.075a5.342,5.342,0,0,0-.508.588,5.238,5.238,0,0,0-.662,1.193,5.248,5.248,0,0,0-1.169-1.781c-.026-.026-.054-.05-.081-.075l-.026-.022a2.614,2.614,0,0,1-.743-1.83v-1.165a.372.372,0,0,0-.372-.372h-1.32a1.307,1.307,0,0,0,.14-.582c0-.014,0-.028,0-.042s0-.01,0-.016l0-1.85a1.326,1.326,0,0,0-.789-1.21,4.507,4.507,0,0,1,.68-1.421,8.279,8.279,0,0,0,3.439,3.142Zm-4.655-1.093a.582.582,0,0,1,.581.581V171l-.036-.015-.063-.027a1.262,1.262,0,0,0-.17-.053c-.042-.01-.084-.016-.127-.022l-.074-.007c-.037,0-.072-.011-.109-.011s-.073.008-.11.011l-.073.007c-.043.006-.085.012-.127.022a1.292,1.292,0,0,0-.17.053l-.064.027-.036.015v-.717a.582.582,0,0,1,.582-.582Zm-.582,2.488s0-.006,0-.008,0-.017,0-.027a.583.583,0,0,1,.359-.5l.028-.009a.647.647,0,0,1,.076-.023.565.565,0,0,1,.227,0,.535.535,0,0,1,.076.023l.028.009a.582.582,0,0,1,.359.5c0,.009,0,.018,0,.027s0,.006,0,.008a.581.581,0,1,1-1.163,0Zm-2.62,4.571c.014-.014.029-.027.044-.04s.039-.034.07-.064a3.356,3.356,0,0,0,.954-2.349v-.793H189.3v.793a3.35,3.35,0,0,0,.806,2.18.141.141,0,0,1-.139.127H187.3a.319.319,0,0,0-.045,0c-.031,0-.062,0-.093,0a3.346,3.346,0,0,0-.116,6.691.373.373,0,0,0,.116.02.582.582,0,1,1,0,1.163,4.526,4.526,0,0,1-3.2-7.728Zm3.2,5.807a2.6,2.6,0,1,1,1.842-.762,2.591,2.591,0,0,1-1.842.762Zm3.2.6a4.488,4.488,0,0,1-1.946,1.146,1.273,1.273,0,0,0-.184-1.177,3.345,3.345,0,0,0,1.3-5.54,3.409,3.409,0,0,0-.262-.235h.694a.881.881,0,0,0,.665-.306,4.518,4.518,0,0,1,1.061,2.909v0a4.515,4.515,0,0,1-1.324,3.2Zm2.955-.505a4.542,4.542,0,0,1,0-5.392c.055-.073.113-.145.173-.215a.879.879,0,0,0,.666.307h.694a3.344,3.344,0,0,0-.262,4.973,3.324,3.324,0,0,0,1.3.8,1.273,1.273,0,0,0-.184,1.177,4.493,4.493,0,0,1-1.946-1.146,4.56,4.56,0,0,1-.436-.505Zm3.638-.092a2.6,2.6,0,1,1,1.843-.762A2.588,2.588,0,0,1,196.961,182.569Zm3.2.6a4.5,4.5,0,0,1-3.2,1.324.582.582,0,1,1,0-1.163.372.372,0,0,0,.116-.02,3.347,3.347,0,0,0-.116-6.691c-.031,0-.062,0-.093,0a.319.319,0,0,0-.045,0h-2.663a.141.141,0,0,1-.139-.125,3.349,3.349,0,0,0,.806-2.181v-.793H199.1v.793a3.363,3.363,0,0,0,.966,2.361c.019.018.038.035.058.052s.03.026.045.041a4.534,4.534,0,0,1,0,6.4Z" transform="translate(-9101.896 -18123.912)"/><path d="M187.166,185.485h0a5.52,5.52,0,0,1-3.905-9.424c.031-.032.064-.06.095-.087l.028-.025a2.347,2.347,0,0,0,.655-1.638v-1.165a.623.623,0,0,1,.622-.622h.968a1.5,1.5,0,0,1-.037-.332.344.344,0,0,1,0-.04c0-.005,0-.011,0-.018l0-1.849a1.565,1.565,0,0,1,1.167-1.518,5.545,5.545,0,0,1,.988-1.917,4.362,4.362,0,0,1-.268-1.641A2.573,2.573,0,0,1,192,163.554a2.573,2.573,0,0,1,4.522,1.654,4.28,4.28,0,0,1-.231,1.53,5.536,5.536,0,0,1,1.079,2.028,1.564,1.564,0,0,1,1.168,1.517l0,1.85s0,.008,0,.011a.357.357,0,0,1,0,.046,1.5,1.5,0,0,1-.037.332h.967a.623.623,0,0,1,.622.622v1.165a2.363,2.363,0,0,0,.564,1.536l.215.215a5.522,5.522,0,1,1-8.344,7.192,5.435,5.435,0,0,1-.461-.739,5.513,5.513,0,0,1-4.9,2.971Zm-2.506-12.461a.122.122,0,0,0-.122.122v1.165a2.844,2.844,0,0,1-.8,1.993l-.013.012-.036.032c-.028.024-.052.046-.072.066a5.02,5.02,0,0,0,3.551,8.571v0a5.01,5.01,0,0,0,4.665-3.165l.232-.587.233.586a5.022,5.022,0,1,0,8.26-5.362l-.042-.043c-.02-.021-.044-.041-.069-.063l-.041-.036a2.863,2.863,0,0,1-.814-2v-1.165a.122.122,0,0,0-.122-.122h-1.723l.178-.361a1.06,1.06,0,0,0,.114-.46c0-.015,0-.028,0-.041v-.021c0-.007,0-.013,0-.02l0-1.836a1.068,1.068,0,0,0-.908-1.057l-.162-.026-.041-.159a5.029,5.029,0,0,0-1.1-2.082l-.1-.11.049-.139a3.818,3.818,0,0,0,.25-1.473v-.017a2.073,2.073,0,0,0-3.812-1.113l-.21.324-.21-.324a2.073,2.073,0,0,0-3.812,1.113v.016a3.893,3.893,0,0,0,.286,1.573l.052.137-.094.112a5.033,5.033,0,0,0-1.019,1.982l-.041.159-.162.026a1.069,1.069,0,0,0-.908,1.058l0,1.836v.037a.366.366,0,0,1,0,.046,1.065,1.065,0,0,0,.114.46l.177.36Zm2.506,11.718a4.776,4.776,0,0,1-3.452-8.08h0l.073-.073c.015-.016.032-.03.048-.044l.008-.007c.018-.016.034-.03.059-.053a3.107,3.107,0,0,0,.88-2.171v-1.043h4.767v1.043a3.084,3.084,0,0,0,.746,2.018l.07.083-.012.108a.391.391,0,0,1-.387.348l-2.673,0-.021,0h-.021l-.048,0-.036,0a3.1,3.1,0,0,0-.108,6.191h.035l.033.011a.134.134,0,0,0,.039.008.832.832,0,1,1,0,1.663Zm-3.021-7.805,0,0a4.276,4.276,0,0,0,3.025,7.3.332.332,0,1,0,0-.663.6.6,0,0,1-.157-.021,3.6,3.6,0,0,1,.157-7.19c.024,0,.047,0,.071,0h.011a.435.435,0,0,1,.056,0H189.7a3.561,3.561,0,0,1-.646-2.057v-.543h-3.767v.543a3.6,3.6,0,0,1-1.025,2.523l-.007.007c-.036.034-.058.054-.08.073l-.008.007Zm12.817,7.805a.832.832,0,1,1,0-1.663.132.132,0,0,0,.038-.008l.033-.011h.035a3.1,3.1,0,0,0-.107-6.191l-.037,0-.048,0h-.021l-.038-.005h-2.657a.392.392,0,0,1-.387-.344l-.014-.109.071-.084a3.118,3.118,0,0,0,.746-2.019v-1.043h4.767v1.043a3.125,3.125,0,0,0,.891,2.182l.045.04.007.006c.017.015.034.03.051.047a4.784,4.784,0,0,1,.063,6.694h0l-.062.062A4.747,4.747,0,0,1,196.962,184.741Zm.156-1.184a.6.6,0,0,1-.156.021.332.332,0,1,0,0,.663,4.25,4.25,0,0,0,3-1.23l.021-.022a4.283,4.283,0,0,0,0-6.049l-.028-.025,0,0c-.021-.018-.043-.037-.065-.058l-.008-.008a3.623,3.623,0,0,1-1.037-2.535v-.543h-3.767v.543a3.614,3.614,0,0,1-.645,2.056h2.391a.431.431,0,0,1,.056,0h.01c.024,0,.047,0,.071,0a3.6,3.6,0,0,1,.157,7.19Zm-1.031,1.126-.45-.129a4.775,4.775,0,0,1-2.514-1.743h0a4.791,4.791,0,0,1,0-5.69c.061-.083.126-.161.182-.227l.188-.224.192.221a.626.626,0,0,0,.477.221h1.4l-.548.444a3.094,3.094,0,0,0-.243,4.6,3.059,3.059,0,0,0,1.2.742l.322.108-.2.275a1.023,1.023,0,0,0-.149.954Zm-2.563-2.17a4.277,4.277,0,0,0,1.863,1.429q0-.016,0-.032a1.547,1.547,0,0,1,.14-.645,3.543,3.543,0,0,1-1.11-.754,3.6,3.6,0,0,1-.178-4.9h-.077a1.124,1.124,0,0,1-.634-.2l0,0a4.292,4.292,0,0,0,0,5.094Zm-5.483,2.17.144-.446a1.048,1.048,0,0,0,.057-.327,1.065,1.065,0,0,0-.206-.627l-.2-.275.322-.108a3.062,3.062,0,0,0,1.2-.742,3.094,3.094,0,0,0-.243-4.6l-.546-.444h1.4a.627.627,0,0,0,.476-.221l.192-.22.188.223a4.772,4.772,0,0,1-2.332,7.66Zm.561-1.418a1.547,1.547,0,0,1,.14.645q0,.016,0,.032a4.276,4.276,0,0,0,1.857-6.525,1.125,1.125,0,0,1-.631.2h-.077a3.606,3.606,0,0,1-.178,4.9A3.546,3.546,0,0,1,188.6,183.264Zm8.36-.445a2.854,2.854,0,1,1,2.02-.835A2.837,2.837,0,0,1,196.961,182.819Zm0-5.208a2.354,2.354,0,1,0,1.666.688A2.339,2.339,0,0,0,196.961,177.611Zm-9.795,5.208a2.854,2.854,0,1,1,2.019-.835A2.84,2.84,0,0,1,187.167,182.819Zm0-5.208a2.354,2.354,0,1,0,1.665.688A2.342,2.342,0,0,0,187.166,177.611Zm4.9,1.085-.232-.586a4.983,4.983,0,0,0-1.114-1.7c-.021-.021-.045-.042-.069-.062l-.041-.037a2.862,2.862,0,0,1-.814-2v-1.165a.122.122,0,0,0-.122-.122h-1.723l.178-.361a1.059,1.059,0,0,0,.114-.461c0-.015,0-.028,0-.041v-.021c0-.006,0-.012,0-.018l0-1.838a1.077,1.077,0,0,0-.641-.981l-.2-.088.057-.208a4.744,4.744,0,0,1,.718-1.5l.229-.319.192.342a7.991,7.991,0,0,0,3.182,2.958l.16.087a.123.123,0,0,0,.122,0l.012-.007c.184-.1.369-.207.583-.339a7.585,7.585,0,0,0,2.791-2.792l.184-.343.236.31a4.726,4.726,0,0,1,.8,1.605l.057.207-.2.087a1.077,1.077,0,0,0-.641.982l0,1.835c0,.006,0,.011,0,.017v.023a.39.39,0,0,1,0,.042,1.065,1.065,0,0,0,.114.461l.177.36h-1.722a.122.122,0,0,0-.122.122v1.165a2.845,2.845,0,0,1-.8,1.993l-.013.013-.037.033c-.027.023-.05.044-.07.064a5.1,5.1,0,0,0-.485.561,5,5,0,0,0-.63,1.136Zm-1.1-2.738.017.014c.031.027.063.055.1.088a5.476,5.476,0,0,1,.993,1.355,5.421,5.421,0,0,1,.461-.739,5.6,5.6,0,0,1,.532-.616c.032-.032.063-.06.094-.086l.028-.025a2.348,2.348,0,0,0,.655-1.639v-1.165a.623.623,0,0,1,.622-.622h.967a1.5,1.5,0,0,1-.037-.332.35.35,0,0,1,0-.04c0-.005,0-.011,0-.018l0-1.849a1.577,1.577,0,0,1,.741-1.334,4.206,4.206,0,0,0-.438-.931,8.348,8.348,0,0,1-2.767,2.633c-.22.136-.411.247-.6.351a.623.623,0,0,1-.359.087l-.024.052-.234-.126a8.894,8.894,0,0,1-3.329-2.892,4.231,4.231,0,0,0-.374.827,1.576,1.576,0,0,1,.741,1.333l0,1.85s0,.007,0,.011a.364.364,0,0,1,0,.046,1.5,1.5,0,0,1-.037.332h.967a.623.623,0,0,1,.622.622v1.165A2.364,2.364,0,0,0,190.958,175.958Zm6-2.935a.833.833,0,0,1-.832-.832l0-.041c0-.008,0-.015,0-.022a.837.837,0,0,1,.513-.706l.043-.014h0a.792.792,0,0,1,.1-.03.811.811,0,0,1,.326,0,.743.743,0,0,1,.107.031h0a.4.4,0,0,1,.049.017.835.835,0,0,1,.509.705c0,.008,0,.014,0,.022l0,.021c0,.007,0,.014,0,.021A.832.832,0,0,1,196.962,173.023Zm-.332-.815a.332.332,0,0,0,.662,0,.318.318,0,0,1,0-.041.332.332,0,0,0-.2-.281l-.023-.007-.041-.013a.317.317,0,0,0-.13,0l-.037.012-.005,0-.023.007a.334.334,0,0,0-.2.284A.347.347,0,0,1,196.631,172.208Zm-9.464.814a.832.832,0,0,1-.832-.831l0-.041c0-.007,0-.014,0-.02a.837.837,0,0,1,.513-.707l.041-.014h0a.865.865,0,0,1,.105-.031.81.81,0,0,1,.327,0,.722.722,0,0,1,.107.031h0l.041.013,0,0a.836.836,0,0,1,.513.708c0,.007,0,.013,0,.019l0,.022c0,.007,0,.014,0,.021A.832.832,0,0,1,187.166,173.023Zm-.331-.815a.331.331,0,0,0,.662,0,.322.322,0,0,1,0-.041.332.332,0,0,0-.2-.279l-.024-.008-.04-.013a.314.314,0,0,0-.131,0l-.038.012-.027.009a.334.334,0,0,0-.2.284A.361.361,0,0,1,186.835,172.208Zm9.3-.8v-1.121a.832.832,0,0,1,1.663,0l0,1.118-.359-.176-.033-.014-.048-.02a.985.985,0,0,0-.134-.042,1.051,1.051,0,0,0-.1-.018l-.053-.005h-.008L197,171.12l-.034,0-.036,0-.054.006-.057.006a1.057,1.057,0,0,0-.107.019.991.991,0,0,0-.135.042l-.053.022-.026.011h0Zm.83-1.453a.332.332,0,0,0-.332.331v.371c.039-.008.079-.014.116-.019l.085-.009.025,0a.735.735,0,0,1,.1-.009.722.722,0,0,1,.1.009l.029,0h.008l.077.008c.037.005.075.011.114.018v-.372A.331.331,0,0,0,196.962,169.953Zm-10.626,1.453v-1.121a.833.833,0,0,1,.832-.832h0a.832.832,0,0,1,.831.831l0,1.121-.359-.179-.029-.012-.051-.021a1.009,1.009,0,0,0-.135-.042c-.031-.008-.064-.012-.1-.017h-.009l-.057-.006-.056-.006-.035,0-.035,0-.053.006-.064.006c-.033,0-.069.01-.1.017a1.056,1.056,0,0,0-.14.044l-.05.021-.027.011,0,0Zm.831-1.453a.332.332,0,0,0-.332.332v.371c.041-.008.081-.014.114-.018l.087-.009.028,0a.723.723,0,0,1,.1-.009.734.734,0,0,1,.1.008l.029,0,.086.009h.011c.032,0,.067.01.1.017v-.372a.331.331,0,0,0-.331-.33Zm4.834.379-.122-.069a7.275,7.275,0,0,1-3.3-3.315l-.009-.023a.1.1,0,0,0-.008-.018l-.012-.025a3.709,3.709,0,0,1-.332-1.634s0-.01,0-.015a1.83,1.83,0,0,1,1.828-1.828h0a1.853,1.853,0,0,1,.26.019l.025,0a1.826,1.826,0,0,1,.7.265l.016.011a1.852,1.852,0,0,1,.185.138l.026.023.007.007a1.775,1.775,0,0,1,.145.144c.012.014.024.028.035.042l.012.015c.04.048.075.094.106.14.012.018.024.037.036.057l.012.019a1.817,1.817,0,0,1,.1.178l.173.39.01.017,0,0,0,.009,0,0,.012.014.012.009,0,0,.017.009.005,0,.017.005.011,0H192l.02,0h.006l.014,0,.03-.015.012-.01,0,0,.01-.012.008-.01a.1.1,0,0,0,.009-.018l0-.012.169-.379a1.772,1.772,0,0,1,.1-.187l.01-.016c.01-.017.02-.034.031-.05a1.863,1.863,0,0,1,.117-.155l.01-.012.027-.032a1.8,1.8,0,0,1,.159-.158l.019-.018c.046-.039.093-.075.14-.108v0l.06-.039.009-.006,0,0a1.821,1.821,0,0,1,.688-.258l.023,0a1.86,1.86,0,0,1,.262-.019,1.83,1.83,0,0,1,1.827,1.828s0,.01,0,.015a3.648,3.648,0,0,1-.3,1.544l-.01.022a.131.131,0,0,0-.009.022l-.008.022a7.191,7.191,0,0,1-3.334,3.4Zm-2.957-3.574a6.717,6.717,0,0,0,2.957,3,6.633,6.633,0,0,0,2.991-3.079.625.625,0,0,1,.032-.079,3.144,3.144,0,0,0,.258-1.309v-.006c0-.015,0-.034,0-.049a1.33,1.33,0,0,0-1.327-1.328,1.354,1.354,0,0,0-.181.012l-.023,0a1.325,1.325,0,0,0-.454.159l-.007.015-.067.031a1.4,1.4,0,0,0-.127.1l-.017.016a1.309,1.309,0,0,0-.117.115l-.011.014-.015.019a1.367,1.367,0,0,0-.085.112l-.017.029-.013.022a1.293,1.293,0,0,0-.074.133l-.165.371a.624.624,0,0,1-.07.127l-.011.014a.6.6,0,0,1-.068.077l-.016.014h0a.666.666,0,0,1-.077.059l-.019.011,0,0a.5.5,0,0,1-.062.033.269.269,0,0,1-.037.013l-.01,0a.591.591,0,0,1-.1.026l-.023,0a.649.649,0,0,1-.089.006h-.026a.608.608,0,0,1-.1-.013h-.005l-.018-.005a.613.613,0,0,1-.076-.025l-.019-.007a.275.275,0,0,1-.032-.016.593.593,0,0,1-.069-.041l-.031-.023a.673.673,0,0,1-.058-.05c-.011-.011-.021-.023-.031-.035l0,0a.551.551,0,0,1-.04-.051l0,0c-.011-.017-.02-.033-.029-.051v0a.35.35,0,0,1-.019-.036l-.178-.4a1.405,1.405,0,0,0-.069-.124l-.015-.026c-.006-.01-.011-.019-.017-.029-.022-.033-.048-.066-.078-.1l-.019-.023-.017-.021a1.284,1.284,0,0,0-.1-.1l-.019-.018-.007-.007a1.348,1.348,0,0,0-.135-.1l-.013-.009a1.327,1.327,0,0,0-.51-.191l-.017,0a1.348,1.348,0,0,0-.182-.013,1.33,1.33,0,0,0-1.328,1.328c0,.019,0,.038,0,.057a3.222,3.222,0,0,0,.29,1.388A.6.6,0,0,1,189.044,166.758Z" transform="translate(-9101.896 -18123.912)"/><path d="M399.468,187.653a.368.368,0,0,0,0,.111l.01.074a.372.372,0,0,0,.368.321.362.362,0,0,0,.051,0,.372.372,0,0,0,.318-.419l0-.019c0-.013,0-.026,0-.038a1.081,1.081,0,0,0-1.6-.95.372.372,0,0,0,.356.653.337.337,0,0,1,.5.27Z" transform="translate(-9307.077 -18146.357)"/></g></svg>