<svg xmlns="http://www.w3.org/2000/svg" width="34" height="34" viewBox="0 0 34 34"><g transform="translate(9165 17295)"><path d="M2,0H32.036a1.991,1.991,0,0,1,1.231.452h0l.009.007,0,0,0,0,0,0,0,0,0,0,0,0,0,0,0,0,0,0,0,0,0,0,0,0,0,0,0,0,0,0,0,0,0,0,0,0,0,0,0,0,0,0,0,0,0,0,0,0,0,0,0,0,0,0,0,0,0,0,0,0,0,0,0,0,0,0,0,0,0,0,0,0,0,0,0,0,0,0,0,0,0,0,0,0,0,0,0,0,0,0,0,0,0,0,0,0,0,0,0,0,0,0,0,0,0,0,0,0,0,0,0,0,0,0,0,0,0,0,0,0,0,0,0,0,0,0,0,0,0,0,0,0,0,0,0,0h0l0,0,0,0h0l0,0h0l0,0h0l.025.026h0l.008.009h0l0,0,0,0,0,0h0l0,0h0l0,0h0l0,0,0,0,0,0,0,0,0,0,0,0,0,0,0,0,0,0,0,0,0,0,0,0,0,0,0,0,0,0,0,0,0,0,0,0,0,0,0,0,0,0,0,0,0,0,0,0,0,0,0,0,0,0,0,0,0,0,0,0,0,0,0,0,0,0,0,0,0,0,0,0h0l0,0,0,0,0,0,0,0,0,0,0,0,0,0,.015.019h0l0,0h0a2,2,0,0,1,.241.41h0l0,.005h0l0,.005v.017h0l0,.005v.006h0l0,.006v0h0v.011h0v0h0v0h0v.011h0v0h0v0h0l0,.008h0l0,.011h0l0,.011h0q.023.063.042.128v.018h0v.188l0,.012h0q0,.025.008.05v0h0v.281s0,0,0,0V2s0,0,0,0V32s0,0,0,0,0,0,0,0v.008h0v.015h0v.015h0v0h0v.015h0v.015h0V32.1h0v0h0v.015h0v.015h0v.014h0v0h0v.015h0v.014h0V32.2h0v0h0v.014h0v.033h0V32.3h0v.048h0v.079h0v.017h0v.014h0v.014h0V32.5h0v.014h0v.014h0v.017h0v.014h0v.013h0v.031h0v.013h0l0,.007v.01h0v.013h0v.013h0l0,.007V32.7h0v.013h0l0,.007v.009h0v.013h0v.016l0,0v.009l0,0v.01l0,0,0,0v.009l0,0v.009l0,0,0,0v.006h0v.015l0,0v.009l0,0,0,0,0,0,0,0,0,0,0,0,0,0,0,0,0,0,0,0,0,0,0,0,0,0,0,0,0,0,0,0,0,0,0,0,0,0,0,0,0,0,0,0,0,0,0,0,0,0,0,0,0,0,0,0,0,0,0,0,0,0,0,0,0,0,0,0,0,0h0l0,0,0,0,0,0,0,0,0,0,0,0,0,0,0,0,0,0h0l0,0,0,0,0,0,0,0h0l0,.006,0,0,0,0h0l0,.006,0,0,0,0,0,0h0l0,.006,0,0,0,0h0l0,.006,0,0h0l-.008.012,0,0h0l-.008.012h0l-.027.04h0a2.011,2.011,0,0,1-.5.5l0,0a2,2,0,0,1-.329.186h0l-.008,0h0l-.006,0h-.022l-.006,0h0l-.006,0h-.166l-.007,0h0l-.007,0h-.014l-.007,0h0l-.007,0h-.023l-.006,0H2a2,2,0,0,1-2-2v-.679s0,0,0-.006V2S0,2,0,2s0,0,0,0,0,0,0,0v0s0,0,0,0V1.926H0V1.9H0V1.877H0V1.869H0V1.832h0l0-.02h0a2,2,0,0,1,.049-.29h0V1.512h0l0-.01V1.467Q.1,1.382.126,1.3v0q.016-.042.033-.083h0l0-.008v0h0l0-.006v0h0v-.01l0,0V1.155l0-.005V1.144h0l0-.005v0h0l0-.005v0h0l0-.008h0l0-.008h0A2,2,0,0,1,1.7.023h0l.012,0h.031l.013,0H2ZM12.006,1H2a1,1,0,0,0-.937.649v0A1,1,0,0,0,1,2V6.288s0,0,0,.006v5s0,0,0,.005V32a1,1,0,0,0,1,1H32a.993.993,0,0,0,.569-.177l0,0A1,1,0,0,0,33,32V2a1,1,0,0,0-.983-1H12.006Z" transform="translate(-9165 -17295)" fill="none"/><g transform="translate(-9165.225 -17294.713)"><g transform="translate(-210.359 -141.231)"><path d="M347.616,350.417c-.117-.088-.583,0-.729.029-.321.058-.612.5-1.2.5a8.216,8.216,0,0,0,2.07.35c.525-.088,1.749-1.808,1.749-1.808a2.758,2.758,0,0,1-1.429.612c-.2,0-.379.2-.466.321Z" transform="translate(-120.221 -192.886)"/><path d="M236.9,163.858c-.35-.554-.671-.291-.35-1.02a7.375,7.375,0,0,1,.525-.787.464.464,0,0,0,0-.437c-.262-.408-1.108-.379-1.225-.7-.058-.058.467-.67.525-.875.088-.321.058-.35-.088-.7-.233-.583-.846-1.05-1.137-1.633-.175-.379-.35-.758-.5-1.166-.146-.758-.262-1.545-.379-2.362-.671-4.782-1.487-10.234-7.085-10.234h-.146c-5.569,0-6.385,5.452-7.085,10.234-.35,2.449-.7,4.752-1.6,6.24l-.058.146.029.029a.316.316,0,0,0-.262.117c-.058.029-.088.058-.146.088-.787.583-.058,1.837.816,1.691h.029v.029a6.039,6.039,0,0,0-.088,1.02.881.881,0,0,0-.758.962.6.6,0,0,0,.175.729c.554.5,1.545,0,1.924-.467A5.515,5.515,0,0,0,218.94,168a23.2,23.2,0,0,0,.175,2.916,11.88,11.88,0,0,1,.117,1.37h.583a13.292,13.292,0,0,0-.117-1.458,22.1,22.1,0,0,1-.175-2.857,4.889,4.889,0,0,1,1.691-3.7,9.163,9.163,0,0,1,4.024-1.983l.233-.058v-1.837a5.454,5.454,0,0,0,1.633.262,5.8,5.8,0,0,0,1.837-.321v1.953l.058.058a11.429,11.429,0,0,1,4.053,2.187A4.714,4.714,0,0,1,234.713,168a27.958,27.958,0,0,1-.175,3.12,12.315,12.315,0,0,0-.088,1.341h.583a11.753,11.753,0,0,1,.088-1.283,28.494,28.494,0,0,0,.175-3.149,4.817,4.817,0,0,0-.233-1.487.516.516,0,0,0,.291-.117,2.912,2.912,0,0,0,.291-.321,1.477,1.477,0,0,1,.729-.525c.321-.175.612-.291.729-.67a1.412,1.412,0,0,0-.2-1.049Zm-9.826-3.79c-4.14,0-5.627-4.519-5.627-8.776v-.467a8.645,8.645,0,0,0,6.56,1.983c.2-.029.467-.058.729-2.42.408,1.2.7,1.866.933,1.983a.284.284,0,0,0,.262.029,8.735,8.735,0,0,0,2.711-1.487v.379c.029,4.228-1.428,8.776-5.569,8.776Z"/><path d="M293.558,534.713a5.762,5.762,0,0,0-2.216-1.953,6.1,6.1,0,0,0-2.333,1.458v-1.079h-.525v1.02a6.256,6.256,0,0,0-2.274-1.4,5.633,5.633,0,0,0-2.274,2.041l-.233-1.808-.525.058.525,4.286.291-.029v.029l2.187.029,5.1.029,2.187-.058.262.029.554-4.344-.525-.058Z" transform="translate(-61.557 -364.879)"/></g></g></g></svg>