<svg xmlns="http://www.w3.org/2000/svg" width="24" height="24" viewBox="0 0 24 24"><g transform="translate(9124 17973)"><rect width="24" height="24" transform="translate(-9124 -17973)" fill="none"/><path d="M17.351-.75A2.679,2.679,0,0,1,19.542.46a2.482,2.482,0,0,1,.251,2.364l-.011.026L12.573,18.467a2.571,2.571,0,0,1-4.915-1.035V11.575H1.8a2.5,2.5,0,0,1-2.487-2A2.551,2.551,0,0,1,.763,6.661L16.409-.56A2.436,2.436,0,0,1,17.351-.75Zm1.062,2.985a1,1,0,0,0-.119-.943A1.185,1.185,0,0,0,17.351.75h0A.942.942,0,0,0,17,.82l-15.6,7.2A1.052,1.052,0,0,0,.778,9.247a1.01,1.01,0,0,0,1.022.828H9.158v7.358a1.071,1.071,0,0,0,2.054.4Z" transform="translate(-9121.615 -17970.617)"/></g></svg>