<svg xmlns="http://www.w3.org/2000/svg" width="34" height="34" viewBox="0 0 34 34"><g transform="translate(8076 16019)"><rect width="34" height="34" transform="translate(-8076 -16019)" fill="none"/><g transform="translate(-8298.703 -15502.227)"><path d="M232.239-512.6a6.525,6.525,0,0,0-4.084,3.316c-.7,1.42-.7,1.361-.7,8.693v6.515l-1.06,1.07a8.538,8.538,0,0,0-1.313,1.556,3.709,3.709,0,0,0,1.77,4.988l.554.263H238.2c10.278,0,10.823-.01,11.329-.185a6.572,6.572,0,0,0,3.929-3.306c.7-1.439.671-1.05.71-9.121.029-4.405,0-7.6-.058-8.129a6.428,6.428,0,0,0-4.22-5.494l-.8-.311-8.071-.019C233.328-512.786,232.92-512.776,232.239-512.6Zm16.687,3.754a2.878,2.878,0,0,1,1.322,1.391c.2.447.2.525.2,7.984,0,7.439,0,7.546-.2,7.974a2.879,2.879,0,0,1-1.2,1.342l-.447.263-10.113.029-10.113.019,1.391-1.381,1.381-1.391V-507.01l.233-.486a2.694,2.694,0,0,1,1.371-1.371l.486-.233H248.42Z" transform="translate(0 0)"/><path d="M339.919-413.806a3.311,3.311,0,0,0-1.41,1.274,2.36,2.36,0,0,0-.088,1.955,9.083,9.083,0,0,0,2.13,2.8,27.184,27.184,0,0,0,2.723,2.13,18.66,18.66,0,0,0,3.287-2.645c1.332-1.371,1.848-2.353,1.75-3.384a2.069,2.069,0,0,0-.661-1.449,2.5,2.5,0,0,0-3.588-.019,2.233,2.233,0,0,0-.613.943l-.136.476-.117-.408a2.486,2.486,0,0,0-2.382-1.77A4.092,4.092,0,0,0,339.919-413.806Z" transform="translate(-102.507 -89.256)"/></g></g></svg>