<svg xmlns="http://www.w3.org/2000/svg" width="30.497" height="29.48" viewBox="0 0 30.497 29.48"><g transform="translate(9086.5 17200.5)"><g transform="translate(-9086 -17200)"><path d="M313.525,381.84H300.639a.48.48,0,0,0-.48.48,6.923,6.923,0,0,0,13.847,0,.48.48,0,0,0-.48-.48Zm-6.444,6.443a5.971,5.971,0,0,1-5.944-5.482h11.888a5.971,5.971,0,0,1-5.944,5.482Z" transform="translate(-292.332 -365.35)"/><path d="M300.639,381.34h12.886a.981.981,0,0,1,.981.98,7.423,7.423,0,0,1-14.847,0A.981.981,0,0,1,300.639,381.34Zm11.818,1.961h-10.75a5.465,5.465,0,0,0,10.75,0Z" transform="translate(-292.332 -365.35)"/><path d="M295.514,324.844a2.8,2.8,0,0,0,2.794-2.794.48.48,0,1,0-.961,0,1.833,1.833,0,0,1-3.667,0,.48.48,0,1,0-.961,0,2.8,2.8,0,0,0,2.794,2.794Z" transform="translate(-285.573 -310.581)"/><path d="M295.514,325.344a3.3,3.3,0,0,1-3.294-3.294.98.98,0,1,1,1.961,0,1.333,1.333,0,0,0,2.667,0,.98.98,0,1,1,1.961,0A3.3,3.3,0,0,1,295.514,325.344Z" transform="translate(-285.573 -310.581)"/><path d="M403.171,321.57a.48.48,0,0,0-.48.48,1.833,1.833,0,1,1-3.667,0,.48.48,0,0,0-.961,0,2.794,2.794,0,0,0,5.588,0,.48.48,0,0,0-.48-.48Z" transform="translate(-381.3 -310.581)"/><path d="M398.543,321.07a.981.981,0,0,1,.98.98,1.333,1.333,0,1,0,2.667,0,.98.98,0,1,1,1.961,0,3.294,3.294,0,0,1-6.588,0A.981.981,0,0,1,398.543,321.07Z" transform="translate(-381.3 -310.581)"/><path d="M243.36,201.21c-.592-.157-.978.568-1.1.8a16.622,16.622,0,0,1-3.568,4.431,13.438,13.438,0,0,1-1.5,1.1,12.494,12.494,0,0,0-16.045,0,13.518,13.518,0,0,1-1.5-1.093,16.628,16.628,0,0,1-3.569-4.427c-.127-.239-.511-.964-1.1-.807s-.563.988-.553,1.271a19.623,19.623,0,0,0,1.551,6.627,18.479,18.479,0,0,0,1.7,3.064,12.524,12.524,0,1,0,22.982,0,18.524,18.524,0,0,0,1.706-3.066,19.636,19.636,0,0,0,1.549-6.633c.009-.272.037-1.1-.553-1.26Zm-26.5,7.518a18.677,18.677,0,0,1-1.452-5.959,17.568,17.568,0,0,0,3.62,4.4,14.559,14.559,0,0,0,1.388,1.03,12.592,12.592,0,0,0-2.247,2.966A17.607,17.607,0,0,1,216.856,208.728Zm23.875,8.417a11.563,11.563,0,1,1-11.563-11.563A11.577,11.577,0,0,1,240.731,217.145Zm.751-8.421a17.543,17.543,0,0,1-1.31,2.446,12.6,12.6,0,0,0-2.248-2.967,14.574,14.574,0,0,0,1.392-1.033,17.568,17.568,0,0,0,3.616-4.4,18.674,18.674,0,0,1-1.451,5.955Z" transform="translate(-214.418 -201.188)"/><path d="M243.195,200.688a1.145,1.145,0,0,1,.294.039v0c.445.119.966.521.924,1.76v.01a20.151,20.151,0,0,1-1.588,6.8,19.025,19.025,0,0,1-1.6,2.926,13.029,13.029,0,0,1-12.056,17.944h0a13.038,13.038,0,0,1-13.024-13.024,12.906,12.906,0,0,1,.966-4.918,18.96,18.96,0,0,1-1.6-2.919,20.134,20.134,0,0,1-1.592-6.8v-.01a2.98,2.98,0,0,1,.066-.821,1.207,1.207,0,0,1,.858-.95,1.152,1.152,0,0,1,.295-.039c.8,0,1.234.818,1.379,1.09a16.111,16.111,0,0,0,3.455,4.287,12.437,12.437,0,0,0,1.139.855,12.993,12.993,0,0,1,16.11,0,12.38,12.38,0,0,0,1.143-.858,16.109,16.109,0,0,0,3.455-4.291,2.988,2.988,0,0,1,.386-.58A1.3,1.3,0,0,1,243.195,200.688Zm.035,1a.142.142,0,0,0-.035,0c-.047,0-.22.04-.493.555l0,.009q-.078.139-.158.277l.852.264q.013-.172.022-.345c.021-.65-.135-.743-.183-.755Zm-27.434.837q-.078-.134-.153-.27l0-.008c-.271-.509-.438-.564-.5-.564a.147.147,0,0,0-.038.005c-.061.016-.2.124-.182.766q.009.167.021.334Zm3.842,5.75c-.346-.246-.656-.485-.939-.725l0,0a17.7,17.7,0,0,1-2.512-2.706,18.43,18.43,0,0,0,1.131,3.685,16.85,16.85,0,0,0,.843,1.666A13.085,13.085,0,0,1,219.638,208.279Zm20.541,1.917a16.9,16.9,0,0,0,.845-1.673,18.357,18.357,0,0,0,1.128-3.678,17.672,17.672,0,0,1-2.507,2.7l0,0c-.289.245-.6.483-.943.729A13.086,13.086,0,0,1,240.179,210.2Zm-11.012,18.012A11.063,11.063,0,1,0,218.1,217.145,11.076,11.076,0,0,0,229.168,228.208Z" transform="translate(-214.418 -201.188)"/></g></g></svg>