<svg xmlns="http://www.w3.org/2000/svg" width="24" height="24" viewBox="0 0 24 24"><g transform="translate(-199.021 -199.047)"><path d="M219.34,210.666v-1.593a8.313,8.313,0,1,0-16.627,0v1.6a2.378,2.378,0,0,0,.356,4.721,8.3,8.3,0,0,0,15.92-.015,2.378,2.378,0,0,0,.35-4.719Zm-.417,3.886a1.05,1.05,0,0,1-.138-.013l-.056-.007a.415.415,0,0,0-.455.312,7.469,7.469,0,0,1-14.49.011.417.417,0,0,0-.4-.315.446.446,0,0,0-.057,0l-.045.006a1.108,1.108,0,0,1-.16.016,1.545,1.545,0,0,1-.032-3.089.415.415,0,0,0,.459-.415v-1.99a7.48,7.48,0,1,1,14.96,0v1.973a.417.417,0,0,0,.417.417,1.544,1.544,0,1,1,0,3.089Z"/><path d="M211.028,200.508a8.574,8.574,0,0,1,8.562,8.565v1.391a2.629,2.629,0,0,1-.412,5.158,8.552,8.552,0,0,1-16.3.016,2.629,2.629,0,0,1-.419-5.163v-1.4A8.574,8.574,0,0,1,211.028,200.508Zm8.3,10.215-.24-.056v-1.593a8.063,8.063,0,1,0-16.127,0v1.815l-.207.036a2.128,2.128,0,0,0,.319,4.225l.182,0,.052.175a8.052,8.052,0,0,0,15.441-.015l.051-.174.181-.005a2.128,2.128,0,0,0,.313-4.223Zm-8.3-9.381a7.739,7.739,0,0,1,7.729,7.732v1.973a.167.167,0,0,0,.167.167,1.8,1.8,0,0,1,1.8,1.8,1.795,1.795,0,0,1-1.795,1.793H218.9a1.192,1.192,0,0,1-.132-.013l-.075-.01h-.02a.164.164,0,0,0-.16.126,7.719,7.719,0,0,1-14.974.012.166.166,0,0,0-.161-.126l-.025,0-.062.009a1.159,1.159,0,0,1-.175.016,1.795,1.795,0,0,1-.037-3.589h.026a.166.166,0,0,0,.188-.165v-1.99A7.74,7.74,0,0,1,211.028,201.342Zm7.907,12.961a1.294,1.294,0,0,0-.011-2.589.668.668,0,0,1-.667-.667v-1.973a7.23,7.23,0,1,0-14.46,0v1.99a.661.661,0,0,1-.716.665,1.295,1.295,0,0,0,.038,2.589.742.742,0,0,0,.1-.011l.067-.01a.706.706,0,0,1,.093-.006.666.666,0,0,1,.646.5,7.219,7.219,0,0,0,14-.011.665.665,0,0,1,.645-.5h0a.683.683,0,0,1,.083.005l.079.01a.692.692,0,0,0,.085.008Z"/><path d="M329.921,467.332a4.537,4.537,0,0,1-4.771,0,.417.417,0,1,0-.436.71,5.367,5.367,0,0,0,5.643,0,.417.417,0,1,0-.436-.71Z" transform="translate(-116.513 -250.878)"/><path d="M293.558,365.439a2.329,2.329,0,0,1-.346-.286,2.27,2.27,0,0,0-1.376-.758,1.213,1.213,0,0,0-.2-.017,2.574,2.574,0,0,0-1.305.512,3.2,3.2,0,0,1-.374.217.416.416,0,0,0-.379.571,2.386,2.386,0,0,0,4.234.386.412.412,0,0,0,.04-.384A.4.4,0,0,0,293.558,365.439Zm-1.762.906a1.547,1.547,0,0,1-1.245-.613c.072-.042.145-.088.221-.136.3-.188.664-.432.935-.377a.594.594,0,0,0,.1.008c.255,0,.58.3.84.539.067.061.131.12.194.175a1.517,1.517,0,0,1-1.044.4Z" transform="translate(-83.596 -154.022)"/><path d="M392.674,365.11a2.346,2.346,0,0,1-.391-.218,2.571,2.571,0,0,0-1.3-.513,1.2,1.2,0,0,0-.194.016,2.24,2.24,0,0,0-1.386.761,3.263,3.263,0,0,1-.325.28.417.417,0,0,0-.27.631,2.383,2.383,0,0,0,4.231-.387.413.413,0,0,0-.03-.384A.4.4,0,0,0,392.674,365.11Zm-1.856,1.236a1.516,1.516,0,0,1-1.045-.405c.062-.054.125-.112.191-.172.261-.241.587-.541.85-.541h0a.458.458,0,0,0,.092-.008c.245-.049.633.188.933.377.076.048.149.094.221.136a1.544,1.544,0,0,1-1.242.613Z" transform="translate(-176.97 -154.023)"/><path d="M271.2,295.994a1.65,1.65,0,0,1-.945-.463l-.149-.159a2.925,2.925,0,0,0,.382-3.32.417.417,0,0,0-.78.121,1.3,1.3,0,0,1-1.285,1.079h-1.655a1.088,1.088,0,0,0-1.086,1.088.245.245,0,0,1-.208.237h-1.7a.244.244,0,0,1-.206-.237,1.088,1.088,0,0,0-1.086-1.088h-1.656a1.3,1.3,0,0,1-1.285-1.079.417.417,0,0,0-.78-.121,2.925,2.925,0,0,0,.382,3.32l-.138.149a1.649,1.649,0,0,1-.956.474.417.417,0,0,0-.363.419l0,.128a3.968,3.968,0,0,0,5.437,3.57l1.184,1.424a.417.417,0,0,0,.32.15h0a.416.416,0,0,0,.321-.151l1.18-1.424a3.9,3.9,0,0,0,1.469.284,3.95,3.95,0,0,0,3.968-3.86l0-.121a.416.416,0,0,0-.362-.418ZM267.6,299.56a3.091,3.091,0,0,1-1.4-.332.416.416,0,0,0-.508.106l-1.063,1.282-1.065-1.281a.416.416,0,0,0-.507-.106,3.134,3.134,0,0,1-4.522-2.487,2.513,2.513,0,0,0,1.069-.641l.131-.14a2.508,2.508,0,0,1,.266-.181.417.417,0,0,0,.052-.683,2.149,2.149,0,0,1-.807-1.668c0-.013,0-.027,0-.04a2.135,2.135,0,0,0,1.58.7h1.655a.254.254,0,0,1,.253.255,1.082,1.082,0,0,0,.959,1.067.458.458,0,0,0,.05,0h1.766a.4.4,0,0,0,.05,0,1.083,1.083,0,0,0,.961-1.067.254.254,0,0,1,.253-.255h1.655a2.135,2.135,0,0,0,1.58-.7c0,.013,0,.027,0,.04a2.147,2.147,0,0,1-.807,1.668.417.417,0,0,0,.051.683,2.371,2.371,0,0,1,.266.18l.142.151a2.505,2.505,0,0,0,1.058.63,3.116,3.116,0,0,1-3.119,2.82Z" transform="translate(-53.602 -85.727)"/><path d="M0,0H24V24H0Z" transform="translate(199.021 199.047)" fill="none"/></g></svg>