<svg xmlns="http://www.w3.org/2000/svg" xmlns:xlink="http://www.w3.org/1999/xlink" width="34" height="34" viewBox="0 0 34 34"><defs><clipPath id="a"><rect width="34" height="34"/></clipPath></defs><g transform="translate(9113 17295)"><path d="M0,0H34V34H0Z" transform="translate(-9113 -17295)" fill="none"/><g transform="translate(-9113 -17295)"><path d="M2,0H32.036a1.991,1.991,0,0,1,1.231.452h0l.009.007,0,0,0,0,0,0,0,0,0,0,0,0,0,0,0,0,0,0,0,0,0,0,0,0,0,0,0,0,0,0,0,0,0,0,0,0,0,0,0,0,0,0,0,0,0,0,0,0,0,0,0,0,0,0,0,0,0,0,0,0,0,0,0,0,0,0,0,0,0,0,0,0,0,0,0,0,0,0,0,0,0,0,0,0,0,0,0,0,0,0,0,0,0,0,0,0,0,0,0,0,0,0,0,0,0,0,0,0,0,0,0,0,0,0,0,0,0,0,0,0,0,0,0,0,0,0,0,0,0,0,0,0,0,0,0,0h0l0,0,0,0h0l0,0h0l0,0h0l.025.026h0l.008.009h0l0,0,0,0,0,0h0l0,0h0l0,0h0l0,0,0,0,0,0,0,0,0,0,0,0,0,0,0,0,0,0,0,0,0,0,0,0,0,0,0,0,0,0,0,0,0,0,0,0,0,0,0,0,0,0,0,0,0,0,0,0,0,0,0,0,0,0,0,0,0,0,0,0,0,0,0,0,0,0,0,0,0,0,0,0h0l0,0,0,0,0,0,0,0,0,0,0,0,0,0,.015.019h0l0,0h0a2,2,0,0,1,.241.41h0l0,.005h0l0,.005v.017h0l0,.005v.006h0l0,.006v0h0v.011h0v0h0v0h0v.011h0v0h0v0h0l0,.008h0l0,.011h0l0,.011h0q.023.063.042.128v.018h0v.188l0,.012h0q0,.025.008.05v0h0v.281s0,0,0,0V2s0,0,0,0V32s0,0,0,0,0,0,0,0v.008h0v.015h0v.015h0v0h0v.015h0v.015h0V32.1h0v0h0v.015h0v.015h0v.014h0v0h0v.015h0v.014h0V32.2h0v0h0v.014h0v.033h0V32.3h0v.048h0v.079h0v.017h0v.014h0v.014h0V32.5h0v.014h0v.014h0v.017h0v.014h0v.013h0v.031h0v.013h0l0,.007v.01h0v.013h0v.013h0l0,.007V32.7h0v.013h0l0,.007v.009h0v.013h0v.016l0,0v.009l0,0v.01l0,0,0,0v.009l0,0v.009l0,0,0,0v.006h0v.015l0,0v.009l0,0,0,0,0,0,0,0,0,0,0,0,0,0,0,0,0,0,0,0,0,0,0,0,0,0,0,0,0,0,0,0,0,0,0,0,0,0,0,0,0,0,0,0,0,0,0,0,0,0,0,0,0,0,0,0,0,0,0,0,0,0,0,0,0,0,0,0,0,0h0l0,0,0,0,0,0,0,0,0,0,0,0,0,0,0,0,0,0h0l0,0,0,0,0,0,0,0h0l0,.006,0,0,0,0h0l0,.006,0,0,0,0,0,0h0l0,.006,0,0,0,0h0l0,.006,0,0h0l-.008.012,0,0h0l-.008.012h0l-.027.04h0a2.011,2.011,0,0,1-.5.5l0,0a2,2,0,0,1-.329.186h0l-.008,0h0l-.006,0h-.022l-.006,0h0l-.006,0h-.166l-.007,0h0l-.007,0h-.014l-.007,0h0l-.007,0h-.023l-.006,0H2a2,2,0,0,1-2-2v-.679s0,0,0-.006V2S0,2,0,2s0,0,0,0,0,0,0,0v0s0,0,0,0V1.926H0V1.9H0V1.877H0V1.869H0V1.832h0l0-.02h0a2,2,0,0,1,.049-.29h0V1.512h0l0-.01V1.467Q.1,1.382.126,1.3v0q.016-.042.033-.083h0l0-.008v0h0l0-.006v0h0v-.01l0,0V1.155l0-.005V1.144h0l0-.005v0h0l0-.005v0h0l0-.008h0l0-.008h0A2,2,0,0,1,1.7.023h0l.012,0h.031l.013,0H2ZM12.006,1H2a1,1,0,0,0-.937.649v0A1,1,0,0,0,1,2V6.288s0,0,0,.006v5s0,0,0,.005V32a1,1,0,0,0,1,1H32a.993.993,0,0,0,.569-.177l0,0A1,1,0,0,0,33,32V2a1,1,0,0,0-.983-1H12.006Z" fill="none"/><g transform="translate(2.884 2.629)"><path d="M57.791,53.77c.1.456.136,1.015.228,1.335a.312.312,0,0,1,.025.206c-.168.269-.295.443-.481.7a10.931,10.931,0,0,0-1.72,2.375,5.042,5.042,0,0,0,.078,3.515,7.55,7.55,0,0,0-1.079,1.616c-.131.515.287.886.86.82a3.05,3.05,0,0,0,1.036-.36,3.32,3.32,0,0,0-.232,1.55.206.206,0,0,0,.151.2,1.549,1.549,0,0,0,1.33-.469c-.127.518-.127.976.291,1.058a1.117,1.117,0,0,0,.807-.237c-.062.4,0,.787.443.813a.737.737,0,0,0,.3-.046,1.434,1.434,0,0,0,.171.223,1.3,1.3,0,0,0,1.609.008,2.409,2.409,0,0,0,.34.151.731.731,0,0,0,1.012-.521,1.323,1.323,0,0,0,1.068.252.208.208,0,0,0,.151-.2,2.478,2.478,0,0,0-.145-1.15L64,65.422a.892.892,0,0,0,.643-.185c.67-.505.407-1.42.034-2.084a4.255,4.255,0,0,0,.61-3.009,38.314,38.314,0,0,0-2.5-5.47c.006-.028.013-.053.018-.081.926-.449,2.172-1.626,1.5-2.765a2.243,2.243,0,0,0-.315-.416c.6-.8.64-1.1.44-1.553l.22-.761c1.324-.009,2.664-1.055,3.627-1.857.848-.7,2.132-1.972,1.7-3.206a1.62,1.62,0,0,0-1.27-1.022l-.246-.047a5.226,5.226,0,0,0-2.5.343,8.215,8.215,0,0,0-2.56,1.758,4.582,4.582,0,0,0,.115-3.637c-.687-1.516-2.293-2.659-3.907-1.849-1.837.922-1.491,3.09-.642,4.933l.454.883s-.138-.134-.19-.172a9.128,9.128,0,0,0-1.806-1.1,2.887,2.887,0,0,0-1.694.059c-1.286.488-1.8,1.946-3.33,2.009-1.393.058-2.5-1.457-3.184-2.467a.2.2,0,0,0-.044-.043.2.2,0,0,0,0-.045,1.444,1.444,0,0,0-.258-.57.206.206,0,0,0-.343.091c-.047.182-.12.5-.352.527s-.458-.2-.605-.345a.207.207,0,0,0-.351.145,1.353,1.353,0,0,0,.295.8c-.053.006-.1.015-.158.017-.264.013-.171.477.094.464l1.355,1.019c1.03,1.02,1.878,2.159,3.444,2.012,1.143-.107,1.891-1.062,2.795-1.642a2.679,2.679,0,0,1,2.432-.009,3.846,3.846,0,0,0-1.735.322,5.489,5.489,0,0,0-1.924,1.983,3.721,3.721,0,0,1-2.5,1.636,5.808,5.808,0,0,1-1.926.126l-.4-.071a1.752,1.752,0,0,1-.7-.287c-.223-.15-.933-.182-.857-.021.3.632-.2.911-.563,1.375-.082.1-.081.318.091.343.1.014.191.034.286.053a1.206,1.206,0,0,0-.437.912.208.208,0,0,0,.309.177,10.824,10.824,0,0,1,4.517-1.067,4.156,4.156,0,0,0,2.529-.9c1.411-1.151,1.857-2.893,3.651-3.22-.967.465-1.647,1.169-.955,2.182a1.642,1.642,0,0,0-.3,2.042.16.16,0,0,0,.122.1c-.423.724-.334,1.249.042,1.492a1.779,1.779,0,0,0,.344.231c.122.051.681.211.681.211Zm-9.034-2.15a11.064,11.064,0,0,0-1.376.522.941.941,0,0,1,.537-.473.207.207,0,0,0-.1-.383c-.124-.014-.245-.04-.367-.066.34-.366.6-.585.544-1.054a3.28,3.28,0,0,0,.951.382,3.257,3.257,0,0,0-.187,1.071ZM68.49,43.4a1.726,1.726,0,0,1,.332,1.157c-.414-.584-1.647-.563-2.233-.446a.183.183,0,0,0-.012-.019,1.043,1.043,0,0,0-.616-.32A4.954,4.954,0,0,1,68.49,43.4Zm-.25,2.239a6.794,6.794,0,0,1-4.159,2.019,2.259,2.259,0,0,0-.431-.37,4.681,4.681,0,0,1,2.744-2.694c.768-.3,2.865-.109,1.847,1.045ZM65,44.364a1.265,1.265,0,0,1,1.12-.113,4.684,4.684,0,0,0-1.5.918.209.209,0,0,0-.108-.043,2.132,2.132,0,0,0-.57.027A10.231,10.231,0,0,1,65,44.364ZM64.25,45.54a4.753,4.753,0,0,0-.969,1.547,3.641,3.641,0,0,0-.592-.214,3.112,3.112,0,0,1,.4-.785,1.6,1.6,0,0,1,1.161-.548Zm-6.088,5.478c.018,0,.362.082.507.128a2.271,2.271,0,0,1,1.351,1.159c-.344.02-.917.058-1.478.147a1.385,1.385,0,0,0-.366-.222,2.033,2.033,0,0,0-1.163-.094,2.576,2.576,0,0,1,1.15-1.118Zm-1.211.488a2.255,2.255,0,0,1-.084-.26,1.459,1.459,0,0,1,.348-.03,2.586,2.586,0,0,0-.264.289Zm1.77-.638a5.463,5.463,0,0,1,1.2-.062l.669.03.169.011a4.009,4.009,0,0,1,.61.325c.461.334.42.45.619.945-.507.013-1.026.108-1.519.156a.21.21,0,0,0-.022-.064,2.924,2.924,0,0,0-1.727-1.341Zm2.89.055a8.386,8.386,0,0,1,1.262.247,2.315,2.315,0,0,1,.415.164s0,0,0,.007c.137.357.417.841.24,1.209l-.138-.108a2.174,2.174,0,0,0-.958-.306,2.521,2.521,0,0,0-.823-1.213Zm-1.02-.5c-.156-.01-.313-.017-.472-.022a3.117,3.117,0,0,0-1.45-1.064,8.557,8.557,0,0,1,1.09-.208c.156-.01.611.031.611.031a4.485,4.485,0,0,1,2.007,1.452,12.765,12.765,0,0,0-1.786-.189ZM59.9,48.768a3.532,3.532,0,0,0-1.4-1.1,6.549,6.549,0,0,1,1.987-.5,3.233,3.233,0,0,1,2.067,1.765,9.513,9.513,0,0,0-1.52-.185,11.2,11.2,0,0,0-1.134.019Zm.858-2.076c-.051-.057-.219-.12-.219-.181v0a1.1,1.1,0,0,1,.318-.713c.146.352.324.671.449.923-.165,0-.348,0-.511.011a.319.319,0,0,0-.039-.038ZM61.03,41.1c.149-.033.385-.3.952.182.768.646-.2,3.568-.5,4.762-.7-1.57-1.746-4.657-.45-4.944Zm.739,5.554c.043-.283.223-.925.409-1.649a1.558,1.558,0,0,0,.608.578c-.19.429-.39.843-.56,1.229-.135-.021-.273-.044-.411-.055-.018-.034-.034-.055-.054-.093,0-.007.006,0,.007-.01Zm1.179-1.507c-.231-.138-.293-.093-.4-.352-.029-.068-.194-.257-.243-.358a7.17,7.17,0,0,0,.271-1.341h.9a4.782,4.782,0,0,1-.529,2.052Zm-.2-4.194a6.8,6.8,0,0,1,.42.7,2.989,2.989,0,0,1,.307,1.111h-.852a3.082,3.082,0,0,0-.154-1.548.9.9,0,0,0,.278-.262Zm-1.511-1.2a2.482,2.482,0,0,1,1.272.887.2.2,0,0,0-.086.069.354.354,0,0,1-.211.151,1.181,1.181,0,0,0-1.053-.163c-.031.007-.057.019-.086.028a1.873,1.873,0,0,0-.739-.976,2.059,2.059,0,0,1,.9,0Zm-2.216.964a2.129,2.129,0,0,1,.593-.665c.046.015.386-.064.443-.045.584.2.476.449.634.861a.173.173,0,0,0,.013.02,1.2,1.2,0,0,0-.385.408,1.68,1.68,0,0,0-1.53.126,2.763,2.763,0,0,1,.233-.706Zm-.292,1.213a1.436,1.436,0,0,1,1.438-.255,3.633,3.633,0,0,0-.03,1.477.2.2,0,0,0-.106.017,1.907,1.907,0,0,0-.872.854,5.193,5.193,0,0,1-.43-2.093Zm.658,2.6a1.632,1.632,0,0,1,.821-.991,12.325,12.325,0,0,0,.565,1.863.187.187,0,0,0-.1.054,1.468,1.468,0,0,0-.355.6,10.032,10.032,0,0,1-.932-1.525Zm.844,2.27c-.13.022-.282.051-.446.086a.216.216,0,0,0-.025-.024,14.037,14.037,0,0,0-1.444-.785,2.934,2.934,0,0,0,.837-.415c.4.388.767.8,1.079,1.139Zm-11.454-1.62a6.318,6.318,0,0,0-.669-.561.205.205,0,0,0,.017-.358,1,1,0,0,1-.259-.248.807.807,0,0,0,.414.07.672.672,0,0,0,.5-.348v0l.089.186c.154.229.32.461.5.688a.953.953,0,0,0-.589.567Zm1.4,1.358c-.072-.014-.111-.1-.167-.148-.275-.256-.535-.528-.8-.794a1.125,1.125,0,0,0,.516-.547c.409.466,1.138.8,1.384,1.159.14.2-.692.375-.935.33Zm1.964.791a2.194,2.194,0,0,1-1.6-.514,2.014,2.014,0,0,0,.946-.353.21.21,0,0,0,.057-.061,2.72,2.72,0,0,0,1.673.072c.1-.026.217-.171.276-.1.22.286-.024.7-1.347.951Zm3.151-1.709a4.978,4.978,0,0,0-1.393.934c-.022.019-.044.031-.067.049a2.631,2.631,0,0,0,.411-.694c.733-.6,1.318-1.412,2.34-1.52.1-.011.3-.036.313,0,.15.353-.819.95-1.6,1.235Zm1.207-.149c-.056-.01-.109-.009-.164-.014a2.392,2.392,0,0,0,.978-1,3.177,3.177,0,0,1,1.539.923c.184.216-.741.475-1.025.484-.466.014-.877-.309-1.328-.392Zm-5.554,5.776a8.5,8.5,0,0,0-1.544.2,2.744,2.744,0,0,0,.064-.811,5.883,5.883,0,0,0,1.68-.057,2.32,2.32,0,0,0,.342.028c.432-.034.525.2.808.495a8.339,8.339,0,0,1-1.351.145Zm1.8-.259a2.7,2.7,0,0,0-.731-.622,5.485,5.485,0,0,0,.669-.262c.082-.039.159-.083.234-.128a.189.189,0,0,0,.022,0c.383-.1.6.21.706.541a.191.191,0,0,0,.025.046,3.718,3.718,0,0,1-.924.427Zm1.975-1.43a4.293,4.293,0,0,1-.713.758,1.17,1.17,0,0,0-.6-.7,4.916,4.916,0,0,0,.6-.666.211.211,0,0,0,.031,0,1.825,1.825,0,0,1,1.123,0,.205.205,0,0,0,.025,0c-.153.195-.306.4-.462.608Zm.677-.875a.19.19,0,0,0-.131-.132,2.22,2.22,0,0,0-.911-.085l.042-.058a6.492,6.492,0,0,1,.851-1.046,3.535,3.535,0,0,0,.645-.152c.593-.215.682-.244,1.187.1a4.554,4.554,0,0,0-1.682,1.372Zm2.132-1.528a1.477,1.477,0,0,0-1.275-.429,5.934,5.934,0,0,1,2.037-.168.2.2,0,0,0,.095-.023c.3.158.588.325.847.482-.142.037-.286.08-.432.125a1.554,1.554,0,0,0-.532-.1,1.694,1.694,0,0,0-.74.114Zm.244.837a.172.172,0,0,0,.038,0,1.9,1.9,0,0,1,1.591.816,6.807,6.807,0,0,0-1.574.355l-.268.111a3.227,3.227,0,0,0-.317.163c-.4-.635-.059-1.1.53-1.449ZM56.8,50.839a1.382,1.382,0,0,1,1.036-1.255,2.635,2.635,0,0,1,1.749.819,3.493,3.493,0,0,0-2.073.578.576.576,0,0,0-.435-.172.8.8,0,0,0-.276.03Zm.169,2.239a.649.649,0,0,1-.12-.51,2.59,2.59,0,0,1,1.117,0,1.646,1.646,0,0,0-1,.511Zm.945-.028a4.448,4.448,0,0,1,.913-.18l-.023.723a4.633,4.633,0,0,1-.449,1.192c-.179-.592-.085-1.242-.44-1.735ZM56.159,63.743c-.373.273-.723.413-.936-.129a2.447,2.447,0,0,1,.771-1.2.2.2,0,0,0,.074-.107c.063.157.129.31.2.457.56,1.148,1.481-.056,1.623-.753a6.38,6.38,0,0,0,.091-.673.213.213,0,0,0,.066-.019c.393-.2,1.039-.439,1.1-.164.11.519-1.131,1.519-1.938,2.053a8.021,8.021,0,0,1-1.046.534Zm2.068.754c-.4.461-1.168,1.106-1.312.838a2.456,2.456,0,0,1,.385-1.558l.555-.522a5.647,5.647,0,0,0,1.253-1.275c.269-.184,1.144-.789.965-.12a3.41,3.41,0,0,1-.794,1.278c-.121.136-.259.322-.41.528Zm.191,1.4c-.2.059.116-.939.153-1.05s.079-.226.121-.338a16.809,16.809,0,0,0,1.4-1.756c.054-.082.112-.175.167-.273.062.259.017.2-.054.618a3.58,3.58,0,0,1-.921,2.264,1.817,1.817,0,0,1-.864.535Zm1.167.566c-.226.069-.049-.558.062-.894a3.083,3.083,0,0,0,.235-.3,4.225,4.225,0,0,0,.546-1.535l.075-.394a.438.438,0,0,1,.278.012.584.584,0,0,1,.421.693,4.143,4.143,0,0,1-.608,1.438l-.253.375a2.69,2.69,0,0,1-.262.289Zm.78.373a.627.627,0,0,1-.191-.206,2.694,2.694,0,0,0,.418-.424,3.643,3.643,0,0,0,.611.607.853.853,0,0,1-.838.023Zm1.441-.119a2.939,2.939,0,0,1-.964-.858c.061-.092.117-.181.162-.256a4.882,4.882,0,0,0,.542-1.186A6.416,6.416,0,0,0,62.623,66.4c-.086.365-.31.579-.818.317Zm1.953-.172c-.169.2-.941-.462-1.075-.718a6.3,6.3,0,0,1-.847-1.99c-.2-1.586.033-1.949.033-1.949a5.141,5.141,0,0,0,.18.734,8.625,8.625,0,0,0,.691,1.847c.181.313.614.5.843.816.185.259.381,1.017.176,1.26Zm.716-1.713c-.418.51-1.078-.123-1.321-.476a4.223,4.223,0,0,1-.474-1.125,12.589,12.589,0,0,1-.393-1.337c-.075-.364,0-.969.505-.893.418.062.64.509.7.877,0,.008.006.012.007.02-.179.76-.32,1.53.387,2.125a.209.209,0,0,0,.323-.042q.118-.2.233-.406a1.154,1.154,0,0,1,.029,1.258Zm-.1-6.148a4.728,4.728,0,0,1,.025,4.047l-.2.419c-.066.13-.134.258-.207.389a1.741,1.741,0,0,1-.189-1.557l.065-.291c.179-.758.374-1.529-.236-2.133a.205.205,0,0,0-.29.29,1.4,1.4,0,0,1,.315,1.324,1.327,1.327,0,0,0-.554-.5.842.842,0,0,0-1.061.259c-.008.013-.013.027-.021.039.05-.249.1-.5.157-.749a15.073,15.073,0,0,0,.234-2.53,18.62,18.62,0,0,1,.232-2.277,18.125,18.125,0,0,1,1.729,3.268ZM62.02,57.4c-.084,1.15-.206,2.151-.375,3.377-.122.88-.217,2.594-.217,2.594a1.124,1.124,0,0,0-.849-.434c.029-.149.059-.3.1-.44a.21.21,0,0,0-.307-.228,1.132,1.132,0,0,0,.085-.962c-.158-.318-.538-.239-.893-.073.021-.042.048-.081.067-.125a.208.208,0,0,0-.123-.3,2.377,2.377,0,0,0-1.466.067,2.426,2.426,0,0,1,.318-.933c.533-.875,1.665-1.378,2.4-2.076.193-.182-.1-.472-.29-.29-.849.8-2.334,1.455-2.725,2.651a5.8,5.8,0,0,0-.2,1.336,2.722,2.722,0,0,1-.258,1c-.446.884-.953-.831-.994-.986A6.854,6.854,0,0,1,56,59.4a4.852,4.852,0,0,1,1.5-2.66,5.667,5.667,0,0,0,1.731-3.412l.009-.521c.336-.046.606-.075.682-.081.343-.028.687-.047,1.031-.074.283-.022.585-.082.864-.111a3.626,3.626,0,0,1,1.128.186A16.54,16.54,0,0,0,62.02,57.4Zm.92-3.365c.013-.051.026-.1.04-.154a.193.193,0,0,0,.063-.022c.33-.2.689-.547.691-.895a.891.891,0,0,0,.252-.562,2.3,2.3,0,0,1-1.046,1.632Zm1.074-3.271a3.265,3.265,0,0,1-.334.381,2.75,2.75,0,0,0-.621-.331.209.209,0,0,0-.043-.083,7.286,7.286,0,0,0-1.664-1.56,9.52,9.52,0,0,1,1.566.217,2.673,2.673,0,0,1,.889.354,1.421,1.421,0,0,1,.207,1.021Zm.121-1.259L63,49.04a1.152,1.152,0,0,0-.213-.543,2.853,2.853,0,0,0-1.613-1.382l.655.013c1.333.1,2.793.818,2.306,2.377Zm.515-.819a.194.194,0,0,0-.071.015,2.309,2.309,0,0,0-.217-.65,4.91,4.91,0,0,0,.745.581c.131.085-.305.053-.457.054Zm1.389-.393c-.364.045-.24.108-.659.032a.763.763,0,0,1-.6-.348,6.789,6.789,0,0,0,1.452-.545.912.912,0,0,0,.526.437,7.2,7.2,0,0,1-.722.424Zm1.457-.951c-.09.068-.184.139-.282.21a.2.2,0,0,0-.1-.03.572.572,0,0,1-.516-.275c.139-.072.274-.145.4-.214a7.937,7.937,0,0,0,1.124-.7.2.2,0,0,0,.137.02,3.666,3.666,0,0,0,.561-.161A10.529,10.529,0,0,1,67.5,47.341Zm2.143-2.618a2.192,2.192,0,0,1-.32.828l-.667.263a3.36,3.36,0,0,0,.379-.956,5.066,5.066,0,0,0,.015-1.3,1.009,1.009,0,0,1,.593,1.161Z" transform="translate(-44.344 -38.96)"/><path d="M60.686,67.463a1.034,1.034,0,0,1-.775-.322,1.35,1.35,0,0,1-.137-.169.815.815,0,0,1-.255.026.567.567,0,0,1-.43-.2.771.771,0,0,1-.139-.516,1.061,1.061,0,0,1-.7.137.517.517,0,0,1-.352-.229.964.964,0,0,1-.086-.662,1.566,1.566,0,0,1-.925.326,1.4,1.4,0,0,1-.257-.024.315.315,0,0,1-.242-.3,3.558,3.558,0,0,1,.142-1.334,2.737,2.737,0,0,1-.821.248,1.251,1.251,0,0,1-.142.008.892.892,0,0,1-.718-.315.742.742,0,0,1-.12-.653,6.921,6.921,0,0,1,1.061-1.611,5.08,5.08,0,0,1-.056-3.532,5.772,5.772,0,0,1,1.135-1.671c.2-.236.417-.481.6-.731s.3-.415.468-.677a.189.189,0,0,0-.017-.091c0-.013-.009-.025-.012-.037a5.452,5.452,0,0,1-.121-.68c-.028-.2-.057-.407-.1-.6-.215-.062-.534-.157-.629-.2a1.784,1.784,0,0,1-.367-.245c-.444-.291-.489-.861-.128-1.538a.3.3,0,0,1-.072-.105,1.766,1.766,0,0,1,.263-2.1,1.317,1.317,0,0,1-.212-1.057,1.4,1.4,0,0,1,.4-.636,5.59,5.59,0,0,0-1.367,1.405,8.251,8.251,0,0,1-1.3,1.43,4.265,4.265,0,0,1-2.594.926A10.769,10.769,0,0,0,47.213,52.8a.343.343,0,0,1-.15.034.333.333,0,0,1-.241-.1.293.293,0,0,1-.08-.218,1.313,1.313,0,0,1,.321-.837l-.074-.012a.269.269,0,0,1-.216-.168.376.376,0,0,1,.054-.355c.081-.1.167-.2.25-.286.292-.316.5-.544.3-.971a.156.156,0,0,1,.007-.153c.031-.049.1-.114.362-.114a1.353,1.353,0,0,1,.652.147,1.646,1.646,0,0,0,.662.27l.4.07a4.639,4.639,0,0,0,.547.031,6.172,6.172,0,0,0,1.338-.156,3.61,3.61,0,0,0,2.429-1.59l.039-.056a5.45,5.45,0,0,1,1.926-1.962,3.152,3.152,0,0,1,1.147-.3,3.086,3.086,0,0,0-.717-.093,1.847,1.847,0,0,0-1.015.279,9.073,9.073,0,0,0-.777.583,3.939,3.939,0,0,1-2.068,1.076c-.094.009-.188.013-.28.013-1.25,0-2.031-.8-2.858-1.655-.127-.131-.258-.266-.391-.4l-1.321-.992a.384.384,0,0,1-.325-.384.275.275,0,0,1,.228-.3,1.469,1.469,0,0,1-.208-.709.3.3,0,0,1,.083-.22.33.33,0,0,1,.237-.1.317.317,0,0,1,.221.088l.009.008c.132.128.331.325.507.305.146-.016.211-.27.25-.422l.006-.022a.326.326,0,0,1,.316-.236.284.284,0,0,1,.221.1,1.433,1.433,0,0,1,.266.562l.014.048a.218.218,0,0,1,.005.023.241.241,0,0,1,.028.034c.823,1.221,1.835,2.47,3.086,2.418a2.917,2.917,0,0,0,1.918-1.029,4.293,4.293,0,0,1,1.376-.973,3.033,3.033,0,0,1,1.028-.167,2.247,2.247,0,0,1,.744.107,7.954,7.954,0,0,1,1.616.961l-.213-.413a6.651,6.651,0,0,1-.7-2.868,2.426,2.426,0,0,1,1.39-2.217,2.536,2.536,0,0,1,1.145-.28,3.4,3.4,0,0,1,2.915,2.183,4.431,4.431,0,0,1,.043,3.278A8.259,8.259,0,0,1,65.922,43.2a5.56,5.56,0,0,1,2-.388,3.964,3.964,0,0,1,.555.037h.005l.246.047A1.714,1.714,0,0,1,70.084,44c.34.97-.244,2.09-1.734,3.33a6.651,6.651,0,0,1-3.614,1.881l-.186.644c.2.493.112.845-.413,1.553a2.37,2.37,0,0,1,.266.367,1.416,1.416,0,0,1,.14,1.171,3.271,3.271,0,0,1-1.63,1.724,36.709,36.709,0,0,1,2.482,5.451,4.294,4.294,0,0,1-.592,3.034c.265.49.71,1.57-.094,2.176a1.008,1.008,0,0,1-.578.212l.006.039a2.581,2.581,0,0,1,.147,1.19.315.315,0,0,1-.242.3A1.418,1.418,0,0,1,63,66.87a.817.817,0,0,1-1.1.458,2.347,2.347,0,0,1-.3-.13A2.012,2.012,0,0,1,60.686,67.463Zm-.819-.759.048.076a1.324,1.324,0,0,0,.156.2.818.818,0,0,0,.614.254,1.841,1.841,0,0,0,.86-.264l.053-.03.054.028a2.333,2.333,0,0,0,.324.144.9.9,0,0,0,.286.053c.266,0,.463-.17.585-.506l.051-.14.121.088a1.23,1.23,0,0,0,.739.256A1.265,1.265,0,0,0,64,66.843c.048-.009.059-.086.061-.1a2.373,2.373,0,0,0-.139-1.1l0-.019-.054-.327.145.014a.784.784,0,0,0,.564-.163c.693-.522.234-1.531,0-1.94l-.03-.053.028-.054a4.157,4.157,0,0,0,.6-2.93,38.419,38.419,0,0,0-2.487-5.443l-.02-.036.009-.04c0-.014.006-.028.009-.041s.006-.025.009-.039l.011-.054.05-.024a3.064,3.064,0,0,0,1.57-1.615,1.2,1.2,0,0,0-.119-.993,2.145,2.145,0,0,0-.3-.4l-.066-.069.058-.076c.607-.8.6-1.055.427-1.441l-.016-.037.255-.881h.084c1.2-.008,2.42-.885,3.556-1.831,1.411-1.174,1.971-2.211,1.666-3.083a1.5,1.5,0,0,0-1.189-.95l-.24-.046a3.744,3.744,0,0,0-.521-.035,5.319,5.319,0,0,0-1.914.371,8.075,8.075,0,0,0-2.523,1.733l-.185-.118a4.3,4.3,0,0,0,.118-3.551,3.224,3.224,0,0,0-2.71-2.051,2.313,2.313,0,0,0-1.044.256c-.848.426-2.052,1.614-.59,4.786l.452.879-.178.132c-.051-.05-.145-.137-.178-.161l-.037-.026a8.831,8.831,0,0,0-1.742-1.062,2.057,2.057,0,0,0-.667-.094,2.843,2.843,0,0,0-.949.152,4.121,4.121,0,0,0-1.3.927A3.134,3.134,0,0,1,52.411,46.3l-.082,0c-1.323,0-2.359-1.273-3.2-2.518a.129.129,0,0,0-.016-.014l-.043-.035,0-.048c0-.007,0-.013,0-.019s0,0,0-.005l-.013-.044a1.224,1.224,0,0,0-.222-.482.059.059,0,0,0-.049-.021.1.1,0,0,0-.1.068l-.006.022c-.053.208-.143.556-.443.59l-.048,0a1.039,1.039,0,0,1-.639-.37l-.008-.008a.092.092,0,0,0-.065-.025.106.106,0,0,0-.075.03.072.072,0,0,0-.02.055,1.247,1.247,0,0,0,.271.738l.124.157-.2.024-.043.006c-.039.005-.08.011-.122.013-.017,0-.052,0-.05.074s.048.166.128.166l.046,0,1.4,1.053c.136.134.27.272.4.405a3.843,3.843,0,0,0,2.7,1.587c.084,0,.172,0,.259-.012a3.771,3.771,0,0,0,1.948-1.027,9.236,9.236,0,0,1,.8-.6,2.067,2.067,0,0,1,1.136-.315,3.931,3.931,0,0,1,1.4.3l-.039.217a3.782,3.782,0,0,0-1.684.309,5.28,5.28,0,0,0-1.844,1.891l-.039.056A3.812,3.812,0,0,1,51.392,50.2,6.4,6.4,0,0,1,50,50.359a4.855,4.855,0,0,1-.577-.033h-.006l-.409-.072a1.853,1.853,0,0,1-.74-.3,1.156,1.156,0,0,0-.526-.109.776.776,0,0,0-.138.01c.217.527-.079.847-.367,1.157-.08.086-.163.176-.238.271a.153.153,0,0,0-.022.133.044.044,0,0,0,.041.029c.082.012.163.028.242.044l.274.055-.172.15a1.1,1.1,0,0,0-.4.833.068.068,0,0,0,.018.053.122.122,0,0,0,.13.018,10.972,10.972,0,0,1,4.56-1.078,4.052,4.052,0,0,0,2.465-.876A8.076,8.076,0,0,0,55.4,49.247a3.97,3.97,0,0,1,2.439-1.85l.069.212c-.654.314-1.039.673-1.144,1.065a1.151,1.151,0,0,0,.233.952l.055.081-.073.066a1.55,1.55,0,0,0-.276,1.915c.014.033.031.036.038.037l.159.027-.082.14c-.355.608-.353,1.11.005,1.341l.012.009a1.622,1.622,0,0,0,.314.213c.095.04.515.162.669.206l.065.018.014.066c.047.217.08.452.112.68a5.339,5.339,0,0,0,.114.649l.009.027a.357.357,0,0,1,.013.247l0,.011-.006.01c-.172.276-.3.456-.486.7s-.4.505-.611.745a5.605,5.605,0,0,0-1.094,1.6,4.889,4.889,0,0,0,.079,3.437l.021.06-.041.049a7.054,7.054,0,0,0-1.056,1.571.516.516,0,0,0,.08.46.718.718,0,0,0,.658.222,2.9,2.9,0,0,0,1-.348l.278-.146-.123.289a3.209,3.209,0,0,0-.223,1.5c0,.042.025.089.06.1a1.414,1.414,0,0,0,1.235-.443l.268-.236-.085.347a1.115,1.115,0,0,0,0,.792.3.3,0,0,0,.206.13,1,1,0,0,0,.722-.22l.213-.143-.039.253a.753.753,0,0,0,.07.568.349.349,0,0,0,.268.116.615.615,0,0,0,.251-.04Zm.856.349a.793.793,0,0,1-.418-.117.732.732,0,0,1-.227-.241l-.055-.086.08-.063a2.567,2.567,0,0,0,.4-.407l.088-.109.087.109a3.521,3.521,0,0,0,.592.589l.146.113-.167.078A1.254,1.254,0,0,1,60.724,67.053Zm-.4-.4a.384.384,0,0,0,.1.09.634.634,0,0,0,.562.039,3.782,3.782,0,0,1-.394-.4A2.782,2.782,0,0,1,60.325,66.653Zm1.872.3a.979.979,0,0,1-.444-.129,3.043,3.043,0,0,1-1-.89l-.047-.063.044-.066c.057-.086.113-.175.159-.252a4.811,4.811,0,0,0,.53-1.157l.089-.338.124.327a6.418,6.418,0,0,0,1.056,1.947l.04.044-.014.058C62.631,66.859,62.385,66.949,62.2,66.949Zm-1.219-1.091a2.77,2.77,0,0,0,.878.763.779.779,0,0,0,.34.1c.094,0,.225-.032.3-.291a6.118,6.118,0,0,1-.944-1.679,5.9,5.9,0,0,1-.455.91C61.063,65.724,61.022,65.79,60.978,65.857Zm2.688.84a2.015,2.015,0,0,1-1.082-.815c-.057-.109-.119-.221-.184-.34a4.93,4.93,0,0,1-.675-1.689c-.2-1.581.024-1.983.05-2.023l.163-.257.043.3a5.031,5.031,0,0,0,.176.718l.051.172a7.668,7.668,0,0,0,.629,1.651,1.537,1.537,0,0,0,.4.391,2.116,2.116,0,0,1,.439.416c.185.258.43,1.091.17,1.4A.223.223,0,0,1,63.666,66.7ZM61.878,62.44a7.629,7.629,0,0,0,.07,1.386,4.766,4.766,0,0,0,.649,1.608c.066.12.129.233.186.344a1.948,1.948,0,0,0,.883.695h.009c.15-.188-.01-.875-.184-1.119a1.952,1.952,0,0,0-.394-.37,1.716,1.716,0,0,1-.454-.456,7.835,7.835,0,0,1-.65-1.7l-.051-.172C61.92,62.584,61.9,62.512,61.878,62.44Zm-2.326,4.144a.171.171,0,0,1-.142-.073c-.036-.05-.131-.182.129-.974l.007-.022.015-.017a2.978,2.978,0,0,0,.226-.288,4.128,4.128,0,0,0,.529-1.494l.085-.447.049-.025a.5.5,0,0,1,.358,0,.693.693,0,0,1,.5.819,4.3,4.3,0,0,1-.624,1.479l-.259.384a2.8,2.8,0,0,1-.273.3l-.017.013-.506.325-.015,0A.222.222,0,0,1,59.552,66.584Zm.193-.955a2.565,2.565,0,0,0-.159.7l.421-.27a2.565,2.565,0,0,0,.241-.266l.251-.371a4.08,4.08,0,0,0,.59-1.392.472.472,0,0,0-.339-.567.657.657,0,0,0-.152-.026l-.061.321a4.327,4.327,0,0,1-.562,1.576A3.076,3.076,0,0,1,59.746,65.629Zm-1.344.386a.148.148,0,0,1-.122-.063c-.127-.177.109-.916.184-1.138.039-.116.082-.233.122-.341l.007-.02.014-.016A16.683,16.683,0,0,0,60,62.694c.06-.09.115-.18.163-.266l.065-.116.042-.09a1.012,1.012,0,0,0,.087-.865.271.271,0,0,0-.269-.156,1.192,1.192,0,0,0-.475.134l-.29.135.141-.287c.01-.02.021-.04.033-.06a.61.61,0,0,0,.032-.06.136.136,0,0,0,0-.111.065.065,0,0,0-.047-.036,2.943,2.943,0,0,0-.652-.08,1.968,1.968,0,0,0-.748.142l-.183.073.03-.195a2.563,2.563,0,0,1,.333-.975A5.1,5.1,0,0,1,59.754,58.5a8.36,8.36,0,0,0,.928-.72A.069.069,0,0,0,60.7,57.7a.116.116,0,0,0-.1-.072.086.086,0,0,0-.06.027,9.264,9.264,0,0,1-.945.743,4.249,4.249,0,0,0-1.75,1.862,4.744,4.744,0,0,0-.181,1.112c-.005.066-.011.132-.017.2a2.809,2.809,0,0,1-.27,1.045c-.1.208-.231.313-.375.313-.477,0-.813-1.268-.828-1.322a6.983,6.983,0,0,1-.29-2.212,4.356,4.356,0,0,1,1.323-2.485l.2-.24a5.607,5.607,0,0,0,1.705-3.346l.01-.614.1-.013c.328-.044.6-.075.688-.082.185-.015.374-.028.557-.04.158-.011.316-.021.474-.034s.323-.036.484-.06c.125-.018.254-.037.377-.05l.058,0a3.794,3.794,0,0,1,1.122.195l.1.04-.04.1a16.076,16.076,0,0,0-.916,4.589l0,.05c-.085,1.164-.206,2.158-.376,3.384-.12.866-.215,2.567-.216,2.585l-.02.367-.188-.316a1.021,1.021,0,0,0-.736-.379h-.013l-.141,0,.027-.138c.034-.178.065-.32.1-.446a.081.081,0,0,0-.012-.074.115.115,0,0,0-.131-.03l-.069.04.012.051a.623.623,0,0,1,0,.383c-.014.061-.034.145-.057.28-.015.092-.029.184-.042.275a3.383,3.383,0,0,1-.905,2.045,1.94,1.94,0,0,1-.917.568A.169.169,0,0,1,58.4,66.015Zm.388-1.444c-.038.1-.077.209-.113.315a4.679,4.679,0,0,0-.213.882,1.667,1.667,0,0,0,.734-.477,3.155,3.155,0,0,0,.852-1.929c.013-.093.027-.186.043-.28.012-.073.024-.132.034-.18A17.379,17.379,0,0,1,58.789,64.571Zm1.924-1.737a1.393,1.393,0,0,1,.619.266c.032-.517.11-1.671.2-2.338.166-1.206.287-2.186.371-3.325l0-.045A16.547,16.547,0,0,1,62.8,52.8a3.838,3.838,0,0,0-.936-.143h-.035c-.118.012-.239.03-.368.049-.165.024-.335.049-.5.062s-.318.023-.476.034c-.182.012-.37.025-.554.04-.058,0-.275.027-.581.067l-.007.424a5.778,5.778,0,0,1-1.757,3.483l-.2.242a4.19,4.19,0,0,0-1.27,2.353,6.781,6.781,0,0,0,.283,2.142c.123.471.422,1.154.61,1.154.05,0,.114-.069.175-.19a2.6,2.6,0,0,0,.246-.964c.006-.067.011-.132.017-.2a4.915,4.915,0,0,1,.192-1.163,4.4,4.4,0,0,1,1.832-1.975,9.109,9.109,0,0,0,.922-.723A.308.308,0,0,1,60.6,57.4a.34.34,0,0,1,.308.213.292.292,0,0,1-.077.329,8.652,8.652,0,0,1-.952.74A4.944,4.944,0,0,0,58.451,60a2.157,2.157,0,0,0-.27.705,2.547,2.547,0,0,1,1.347-.007.289.289,0,0,1,.2.155.341.341,0,0,1,.033.18,1.078,1.078,0,0,1,.321-.057.493.493,0,0,1,.47.28,1.1,1.1,0,0,1-.011.883.332.332,0,0,1,.189.118.3.3,0,0,1,.053.266C60.76,62.616,60.737,62.716,60.713,62.834ZM57.03,65.511a.231.231,0,0,1-.214-.122,2.512,2.512,0,0,1,.389-1.671l.008-.012.576-.541a5.517,5.517,0,0,0,1.228-1.249l.012-.016.028-.019a2.144,2.144,0,0,1,.9-.439.239.239,0,0,1,.2.089.406.406,0,0,1,.025.359,3.518,3.518,0,0,1-.818,1.324c-.117.131-.252.313-.4.52l-.648.837C58.046,64.877,57.384,65.511,57.03,65.511Zm.358-1.661a2.433,2.433,0,0,0-.374,1.433s.007,0,.016,0a2.755,2.755,0,0,0,1.11-.86l.641-.827c.153-.209.292-.4.415-.534a3.32,3.32,0,0,0,.769-1.233c.035-.129.014-.164.014-.164s-.007,0-.022,0a2.34,2.34,0,0,0-.769.4,5.737,5.737,0,0,1-1.261,1.28ZM64.1,65.139a1.567,1.567,0,0,1-1.038-.716,3.87,3.87,0,0,1-.451-1.038l-.037-.116-.075-.23a10.093,10.093,0,0,1-.321-1.119,1.1,1.1,0,0,1,.14-.853.507.507,0,0,1,.492-.174,1.093,1.093,0,0,1,.8.958.141.141,0,0,1,.008.026l.006.025-.006.025c-.191.813-.287,1.477.35,2.013a.127.127,0,0,0,.08.031.082.082,0,0,0,.074-.044c.072-.122.148-.254.232-.4l.1-.186.094.191a1.226,1.226,0,0,1,.015,1.378A.58.58,0,0,1,64.1,65.139ZM62.708,61.11a.264.264,0,0,0-.218.1.894.894,0,0,0-.094.666,9.924,9.924,0,0,0,.315,1.094l.076.231.037.116a3.645,3.645,0,0,0,.423.98c.164.239.541.619.853.619a.361.361,0,0,0,.288-.15.9.9,0,0,0,.045-.937l-.124.213a.3.3,0,0,1-.267.155.35.35,0,0,1-.224-.084,2,2,0,0,1-.432-2.2l0-.01c-.057-.326-.251-.729-.609-.782A.462.462,0,0,0,62.708,61.11ZM55.628,64.1c-.223,0-.394-.148-.51-.441l-.011-.028,0-.03a2.535,2.535,0,0,1,.815-1.274.092.092,0,0,0,.034-.051l.1-.294.115.287c.066.166.131.313.2.45.133.273.29.412.466.412.408,0,.855-.691.946-1.138a6.244,6.244,0,0,0,.089-.661l.008-.087.087-.013A.11.11,0,0,0,58,61.219a2.433,2.433,0,0,1,.932-.3c.243,0,.308.134.325.214.154.729-1.766,2.024-1.985,2.17a6.115,6.115,0,0,1-.847.443l-.2.094A1.1,1.1,0,0,1,55.628,64.1Zm-.289-.495c.1.242.213.27.289.27a.958.958,0,0,0,.465-.219l.019-.011.216-.1c.138-.063.279-.128.416-.2-.175-.03-.393-.154-.577-.531-.044-.091-.088-.187-.131-.29A2.4,2.4,0,0,0,55.339,63.6Zm2.746-2.176a5.887,5.887,0,0,1-.085.608,2.083,2.083,0,0,1-.3.683c.761-.578,1.4-1.224,1.329-1.538-.006-.03-.06-.036-.1-.036a2.279,2.279,0,0,0-.83.276ZM64.01,63.74l-.1-.128a1.849,1.849,0,0,1-.212-1.652l.075-.331c.175-.741.341-1.44-.214-1.99a.082.082,0,0,0-.058-.028.114.114,0,0,0-.1.07.074.074,0,0,0,.021.088,1.531,1.531,0,0,1,.347,1.422l-.047.291-.159-.248a1.213,1.213,0,0,0-.507-.457.8.8,0,0,0-.338-.076.684.684,0,0,0-.581.3l0,.005a.29.29,0,0,1-.017.032l-.2-.083c.032-.159.066-.318.1-.477q.029-.136.058-.273a13.819,13.819,0,0,0,.225-2.332l.007-.18a18.745,18.745,0,0,1,.233-2.291l.046-.278.158.233a18.167,18.167,0,0,1,1.74,3.287,4.856,4.856,0,0,1,.024,4.136l-.2.421c-.073.143-.142.272-.211.4ZM63.5,59.387a.3.3,0,0,1,.216.093c.645.638.457,1.432.275,2.2l-.009.037-.065.29a1.8,1.8,0,0,0,.068,1.32c.039-.073.078-.148.119-.227l.2-.416a4.646,4.646,0,0,0-.027-3.955,18.256,18.256,0,0,0-1.56-3.009,18.732,18.732,0,0,0-.186,1.979l-.007.179a13.989,13.989,0,0,1-.229,2.369q-.029.137-.058.273l-.021.1a.949.949,0,0,1,.507-.144,1.023,1.023,0,0,1,.434.1,1.382,1.382,0,0,1,.426.313,1.135,1.135,0,0,0-.314-.958.3.3,0,0,1-.071-.333A.339.339,0,0,1,63.5,59.387Zm-5.172-4.31-.078-.259a4.176,4.176,0,0,1-.128-.7,2.105,2.105,0,0,0-.3-1.005l-.089-.124.145-.048a2.8,2.8,0,0,1,.607-.135l.323-.049.134-.021-.03.879a4.762,4.762,0,0,1-.46,1.221Zm-.238-1.964a2.628,2.628,0,0,1,.254.979c.015.12.03.242.052.362a4.4,4.4,0,0,0,.3-.876L58.709,53l-.192.028A2.857,2.857,0,0,0,58.086,53.114ZM62.757,54.3l.083-.323c.011-.042.021-.084.033-.125l.018-.065.066-.015a.124.124,0,0,0,.029-.008c.316-.188.635-.507.637-.8v-.044l.03-.032a.778.778,0,0,0,.221-.493l.224.012A2.394,2.394,0,0,1,63,54.126Zm-5.778-1.02-.1-.133a.758.758,0,0,1-.141-.6l.013-.082.1-.014a4.719,4.719,0,0,1,.653-.061A1.652,1.652,0,0,1,58,52.46l.388.12-.394.1c-.632.155-.853.335-.928.459Zm-.028-.612a.532.532,0,0,0,.034.215,1.406,1.406,0,0,1,.442-.263A4.683,4.683,0,0,0,56.951,52.666Zm6.619.058-.243-.191a2.066,2.066,0,0,0-.9-.286l-.07-.007-.024-.067a2.394,2.394,0,0,0-.782-1.159l.079-.2a8.471,8.471,0,0,1,1.279.25,2.41,2.41,0,0,1,.435.172l.033.017.027.054v.01c.022.058.049.119.076.183a1.388,1.388,0,0,1,.155,1.1Zm-1.055-.693a2.242,2.242,0,0,1,.936.315l.018.013a1.651,1.651,0,0,0-.2-.774c-.025-.059-.05-.116-.071-.171a2.16,2.16,0,0,0-.356-.137,7.626,7.626,0,0,0-.88-.192A2.916,2.916,0,0,1,62.515,52.032Zm-4.054.547-.021-.071a1.931,1.931,0,0,0-.3-.169,2.43,2.43,0,0,0-.668-.133,3.136,3.136,0,0,0-.373.034l-.3.037.112-.195a2.633,2.633,0,0,1,1.213-1.169l.025-.008.026,0c.024,0,.373.084.524.132a2.373,2.373,0,0,1,1.41,1.2l.107.163-.194.011c-.369.021-.923.06-1.467.146Zm-.986-.6a2.665,2.665,0,0,1,.731.142,1.873,1.873,0,0,1,.373.21c.446-.068.893-.1,1.239-.127a2,2,0,0,0-1.183-.952c-.117-.038-.379-.1-.466-.119a2.29,2.29,0,0,0-.937.862A2.139,2.139,0,0,1,57.475,51.981Zm2.909.414-.022-.1a.132.132,0,0,0-.01-.032,2.8,2.8,0,0,0-1.659-1.289l.007-.219a4.543,4.543,0,0,1,.869-.071c.107,0,.224,0,.357.007l.671.03.1.006.072,0h.019l.018.007a4.12,4.12,0,0,1,.633.337,1.242,1.242,0,0,1,.564.746c.026.072.055.153.094.248l.06.15-.162,0a9.674,9.674,0,0,0-.98.093c-.175.023-.356.046-.531.063ZM59.2,50.923a3.1,3.1,0,0,1,1.343,1.229h0c.145-.016.294-.035.438-.053.277-.036.562-.072.845-.088l-.04-.108a1.037,1.037,0,0,0-.484-.64,3.936,3.936,0,0,0-.57-.3l-.055,0-.094-.006-.669-.03c-.129,0-.244-.007-.348-.007C59.438,50.912,59.316,50.916,59.2,50.923ZM47.139,52.374l.141-.283a1.054,1.054,0,0,1,.588-.524.07.07,0,0,0,.038-.077.124.124,0,0,0-.1-.093c-.124-.014-.239-.038-.377-.067l-.194-.041.135-.145.1-.1c.29-.306.464-.49.419-.861l-.029-.232.2.122a3.172,3.172,0,0,0,.919.368l.113.027-.057.2a2.847,2.847,0,0,0-.157.944l.005.088-.085.026a10.892,10.892,0,0,0-1.362.516Zm.528-1.224c.052.009.106.018.159.024a.347.347,0,0,1,.3.27.3.3,0,0,1-.152.321l-.017.008q-.049.018-.093.04c.261-.1.519-.2.778-.276a3.248,3.248,0,0,1,.162-.909,3.477,3.477,0,0,1-.694-.266A1.265,1.265,0,0,1,47.667,51.151Zm9.253.576-.073-.177a2.037,2.037,0,0,1-.078-.239l-.041-.145.113-.028a1.557,1.557,0,0,1,.374-.033h.259l-.046-.049a.458.458,0,0,0-.352-.135h-.04a.585.585,0,0,0-.188.022l-.159.035v-.139c-.005-.6.367-1.058,1.105-1.36l.024-.01.026,0a2.762,2.762,0,0,1,1.823.854l.174.182-.252.007a3.41,3.41,0,0,0-2.01.556l-.081.06-.011-.012-.194.182a2.489,2.489,0,0,0-.252.277Zm.155-1.031h0a.709.709,0,0,1,.444.14,3.415,3.415,0,0,1,1.8-.534,2.532,2.532,0,0,0-1.461-.6,1.315,1.315,0,0,0-.934,1,.991.991,0,0,1,.117,0Zm-7.842.908.053-.182a2.692,2.692,0,0,0,.06-.778l0-.129.128.015a5.785,5.785,0,0,0,1.648-.057l.035-.006.023.011c.044.008.226.022.29.022.035,0,.066,0,.094,0a.807.807,0,0,1,.666.375c.044.051.09.1.142.158l.141.147-.2.041a8.348,8.348,0,0,1-1.369.147,8.361,8.361,0,0,0-1.524.2Zm.34-.837a3.043,3.043,0,0,1-.031.54,8.531,8.531,0,0,1,1.392-.167,8.792,8.792,0,0,0,1.137-.106l-.013-.014c-.167-.192-.259-.3-.5-.3l-.072,0h-.022a2.971,2.971,0,0,1-.331-.027A6.07,6.07,0,0,1,49.574,50.766Zm14.12.525-.079-.057a2.627,2.627,0,0,0-.6-.317l-.053-.021-.015-.054a.1.1,0,0,0-.02-.039,7.2,7.2,0,0,0-1.638-1.538l.066-.207a9.646,9.646,0,0,1,1.585.22,2.767,2.767,0,0,1,.952.394l0,.006a1.522,1.522,0,0,1,.22,1.124c-.009.025-.031.084-.359.421Zm-.546-.565a2.9,2.9,0,0,1,.519.27,2.779,2.779,0,0,0,.245-.277,1.274,1.274,0,0,0-.194-.912,2.823,2.823,0,0,0-.823-.311,9.33,9.33,0,0,0-1.135-.183A8.477,8.477,0,0,1,63.1,50.658.315.315,0,0,1,63.147,50.727ZM52.7,51.121l-.048-.056a2.545,2.545,0,0,0-.7-.6l-.23-.125.249-.08a5.376,5.376,0,0,0,.655-.257c.069-.033.14-.072.225-.123l.018-.011.02,0,.025,0h0a.678.678,0,0,1,.153-.018c.306,0,.552.233.676.638l.005.008.065.106-.092.059a3.808,3.808,0,0,1-.952.44Zm-.435-.722a2.993,2.993,0,0,1,.508.464,3.575,3.575,0,0,0,.746-.341c-.06-.18-.193-.449-.452-.449a.459.459,0,0,0-.11.014l-.015,0c-.08.047-.15.085-.219.118C52.585,50.276,52.432,50.34,52.267,50.4Zm10.419.395-.332-.069a11.626,11.626,0,0,0-1.642-.179l-.128-.008c-.167-.01-.32-.017-.468-.022l-.053,0-.032-.043a3.013,3.013,0,0,0-1.4-1.026l-.385-.135.4-.081c.1-.021.211-.046.315-.07a5.057,5.057,0,0,1,.79-.14c.158-.011.611.03.628.031l.022,0a4.618,4.618,0,0,1,2.058,1.485Zm-2.51-.5c.134,0,.272.011.422.02l.128.008c.442.027.9.055,1.344.124a4.061,4.061,0,0,0-1.722-1.172c-.07-.006-.447-.039-.582-.03a4.717,4.717,0,0,0-.728.128A3.265,3.265,0,0,1,60.176,50.294Zm-6.225.214L53.9,50.36a1.056,1.056,0,0,0-.543-.636l-.163-.069.132-.118a4.781,4.781,0,0,0,.587-.651l.027-.036.044-.007.024,0a1.92,1.92,0,0,1,1.171,0l.022,0,.131.025-.045-.149a.078.078,0,0,0-.057-.057,2.118,2.118,0,0,0-.866-.081l-.245.027.141-.2.03-.041.013-.018a6.533,6.533,0,0,1,.865-1.062l.062-.059.049.03a5.341,5.341,0,0,0,.573-.147,2,2,0,0,1,.634-.167,1.173,1.173,0,0,1,.655.28l.169.115-.188.081a4.4,4.4,0,0,0-1.64,1.341l-.1.124-.111.141c-.164.209-.325.423-.46.606a4.384,4.384,0,0,1-.732.778Zm-.363-.913a1.289,1.289,0,0,1,.457.541,4.247,4.247,0,0,0,.58-.64c.107-.144.23-.308.358-.474a1.689,1.689,0,0,0-.92.037h0A5.334,5.334,0,0,1,53.588,49.594Zm1.017-1.25a2.327,2.327,0,0,1,.689.1.314.314,0,0,1,.106.056,4.683,4.683,0,0,1,1.443-1.2.672.672,0,0,0-.361-.132,1.909,1.909,0,0,0-.557.154,5.117,5.117,0,0,1-.639.16,5.972,5.972,0,0,0-.71.864Zm9.6,1.31-1.328-.543.01-.078a1.115,1.115,0,0,0-.193-.473,2.739,2.739,0,0,0-1.558-1.34L61.177,47l.661.013a2.953,2.953,0,0,1,2.244,1.04,1.65,1.65,0,0,1,.161,1.483Zm-1.1-.693.957.392a1.394,1.394,0,0,0-.166-1.172,2.734,2.734,0,0,0-2.072-.942l-.089,0a3.333,3.333,0,0,1,1.145,1.2A1.374,1.374,0,0,1,63.1,48.961Zm-5.9.638-.059-.094a1,1,0,0,1-.166-.786,1.411,1.411,0,0,1,.735-.819l.031-.018.035,0,.023,0a1.529,1.529,0,0,1,.16-.009,2.114,2.114,0,0,1,1.519.861l.148.162-.218.026a6.644,6.644,0,0,0-1.547.349l-.265.11a3.111,3.111,0,0,0-.3.155Zm.591-1.486a1.175,1.175,0,0,0-.6.66.724.724,0,0,0,.085.52c.074-.039.15-.076.229-.112l.272-.113a6.543,6.543,0,0,1,1.384-.335,1.726,1.726,0,0,0-1.2-.629,1.3,1.3,0,0,0-.142.008Zm4.929.969-.187-.039a9.442,9.442,0,0,0-1.5-.183c-.12,0-.244-.006-.369-.006-.253,0-.506.009-.754.025l-.055,0-.037-.041a3.4,3.4,0,0,0-1.351-1.07l-.286-.1.279-.115a6.558,6.558,0,0,1,2.036-.506A3.355,3.355,0,0,1,62.665,48.9Zm-2.057-.452c.127,0,.254,0,.376.006a9.686,9.686,0,0,1,1.336.148,3.209,3.209,0,0,0-1.892-1.5,5.339,5.339,0,0,0-1.68.39,4.172,4.172,0,0,1,1.146.981C60.186,48.637,60.426,48.63,60.665,48.63Zm3.826.223-.021-.136a2.223,2.223,0,0,0-.208-.622l.182-.125a4.859,4.859,0,0,0,.726.566.134.134,0,0,1,.071.156c-.032.109-.172.109-.306.109-.056,0-.115,0-.169,0l-.108,0h-.005a.089.089,0,0,0-.032.008Zm1.168-.382a1.763,1.763,0,0,1-.3-.037l-.028-.005a.852.852,0,0,1-.639-.385l-.1-.139.169-.039a6.627,6.627,0,0,0,1.428-.537l.1-.047.052.093a.8.8,0,0,0,.463.384l.221.072-.194.128a7.236,7.236,0,0,1-.733.431l-.017.009-.019,0a1.576,1.576,0,0,0-.228.043A.593.593,0,0,1,65.659,48.471Zm-.671-.431a.628.628,0,0,0,.385.167l.028.005a1.621,1.621,0,0,0,.258.034.381.381,0,0,0,.11-.018,1.767,1.767,0,0,1,.237-.046c.169-.086.341-.184.521-.3a1.023,1.023,0,0,1-.334-.309A7.1,7.1,0,0,1,64.987,48.041Zm-.956-.271L64,47.733a2.131,2.131,0,0,0-.409-.351l-.073-.047.028-.082a4.767,4.767,0,0,1,2.81-2.763,2.54,2.54,0,0,1,.866-.133c.265,0,1.145.038,1.362.52.108.239.021.521-.257.837a6.955,6.955,0,0,1-4.243,2.057Zm-.247-.526a2.407,2.407,0,0,1,.345.3,6.732,6.732,0,0,0,4.027-1.98c.148-.168.306-.407.221-.6-.1-.232-.57-.388-1.158-.388a2.348,2.348,0,0,0-.785.118A4.568,4.568,0,0,0,63.784,47.243Zm3.437.443-.064-.038a.083.083,0,0,0-.044-.014.683.683,0,0,1-.609-.328l-.064-.1.108-.056c.133-.069.264-.139.39-.207l.013-.007a7.765,7.765,0,0,0,1.108-.691l.057-.045.064.034a.086.086,0,0,0,.062.01,3.525,3.525,0,0,0,.543-.155l.122.181a10.617,10.617,0,0,1-1.343,1.164c-.09.069-.185.14-.283.212Zm-.45-.4a.483.483,0,0,0,.347.126.292.292,0,0,1,.083.013l.228-.171c.318-.242.672-.518,1-.822l-.139.031a.307.307,0,0,1-.141,0,8.237,8.237,0,0,1-1.09.674l-.014.007Zm-14.882.186a2.554,2.554,0,0,1-1.423-.557l-.247-.17.3-.033a1.9,1.9,0,0,0,.894-.332.1.1,0,0,0,.027-.029l.048-.078.086.031a2.62,2.62,0,0,0,1.605.069.408.408,0,0,0,.077-.044.348.348,0,0,1,.185-.077.164.164,0,0,1,.132.065.406.406,0,0,1,.069.4c-.12.317-.619.561-1.484.727A1.415,1.415,0,0,1,51.889,47.469Zm-1.061-.588a2.062,2.062,0,0,0,1.061.364,1.19,1.19,0,0,0,.224-.021c1.065-.2,1.275-.478,1.316-.587a.17.17,0,0,0-.012-.149l-.039.025a.516.516,0,0,1-.142.074,2.841,2.841,0,0,1-1.667-.049l-.027.021A2.063,2.063,0,0,1,50.828,46.88Zm6.662.4-.045-.045a1.336,1.336,0,0,0-.982-.408,1.871,1.871,0,0,0-.2.011l-.051-.217a3.934,3.934,0,0,1,1.349-.184c.133,0,.267,0,.4,0,.112,0,.223,0,.331,0a.09.09,0,0,0,.043-.011l.052-.027.052.027c.262.137.533.292.853.485l.227.137-.256.067c-.126.033-.262.073-.427.124l-.089.028-.031-.058a2.45,2.45,0,0,0-.45-.066l-.131,0a1.048,1.048,0,0,0-.385.059c-.05.015-.112.034-.191.054Zm-.5-.6a1.576,1.576,0,0,1,.57.346L57.678,47a1.263,1.263,0,0,1,.45-.068l.138,0a1.832,1.832,0,0,1,.541.092l.137-.041c-.205-.121-.392-.225-.572-.321a.311.311,0,0,1-.088.012c-.11,0-.222,0-.335,0s-.261,0-.392,0C57.377,46.666,57.182,46.67,56.986,46.688Zm6.36.552-.111-.051a3.544,3.544,0,0,0-.574-.207l-.115-.03.037-.113A3.238,3.238,0,0,1,63,46.025l.009-.012a1.721,1.721,0,0,1,1.239-.585l.271-.012-.183.2a4.639,4.639,0,0,0-.946,1.51Zm-.51-.442a3.776,3.776,0,0,1,.384.139,4.8,4.8,0,0,1,.754-1.249,1.478,1.478,0,0,0-.8.47A3.11,3.11,0,0,0,62.835,46.8Zm-3.082.212-.042-.036-.019-.019a13.958,13.958,0,0,0-1.425-.775L58,46.057l.283-.085a2.837,2.837,0,0,0,.8-.4l.076-.053.066.064c.34.329.654.673.931.977l.152.167.139.152-.2.035c-.145.025-.293.053-.441.085Zm-1.148-.916c.389.192.795.418,1.209.673l.195-.039-.015-.017c-.257-.282-.545-.6-.856-.9A3.17,3.17,0,0,1,58.606,46.094Zm3.689.84-.116-.018c-.122-.019-.249-.039-.372-.049l-.062,0-.029-.055c-.007-.013-.013-.024-.02-.035s-.022-.036-.034-.06l-.02-.04.013-.043a.123.123,0,0,1,.008-.019c.036-.217.136-.6.26-1.07.047-.179.1-.369.147-.565l.067-.261.138.232a1.451,1.451,0,0,0,.565.537l.092.049-.042.1c-.092.208-.187.412-.279.611-.1.216-.194.419-.281.618Zm-.411-.286c.093.009.185.023.275.037.078-.176.161-.355.248-.543.078-.168.157-.34.236-.515a1.681,1.681,0,0,1-.417-.362l-.087.332C62.021,46.049,61.918,46.442,61.884,46.649Zm-1.144.2-.032-.052-.005,0-.023-.022a.491.491,0,0,0-.074-.051c-.082-.05-.174-.107-.174-.206a1.2,1.2,0,0,1,.346-.79l.119-.135.069.166c.1.253.227.489.334.7.04.078.078.151.112.219l.081.162h-.223c-.169,0-.321,0-.46.011Zm-.084-.365c.017.013.047.031.066.043a.553.553,0,0,1,.121.089c.094-.005.194-.007.285-.008l-.028-.054c-.085-.164-.178-.345-.267-.54A.89.89,0,0,0,60.656,46.483ZM53.9,46.7l-.156-.16a2.513,2.513,0,0,0,.393-.665l.011-.027.022-.018c.175-.142.345-.3.509-.454a3.3,3.3,0,0,1,1.889-1.09l.034,0c.068-.007.152-.016.216-.016.043,0,.142,0,.178.085a.344.344,0,0,1-.012.279,3.324,3.324,0,0,1-1.657,1.1,4.558,4.558,0,0,0-1.28.849l-.079.066c-.015.013-.03.023-.044.033Zm.435-.714q-.024.058-.05.114a3.576,3.576,0,0,1,.967-.577,3.173,3.173,0,0,0,1.528-.983.208.208,0,0,0,.015-.049c-.051,0-.117.009-.168.015l-.035,0a3.083,3.083,0,0,0-1.759,1.031C54.668,45.685,54.5,45.84,54.33,45.982Zm-4.06.679a.673.673,0,0,1-.12-.009.321.321,0,0,1-.183-.131.49.49,0,0,0-.04-.045c-.224-.209-.44-.43-.65-.644l-.151-.155-.106-.107.133-.07a1.01,1.01,0,0,0,.466-.492l.07-.163.117.134a4.159,4.159,0,0,0,.725.6,2.768,2.768,0,0,1,.667.573.188.188,0,0,1,.013.2C51.095,46.568,50.491,46.661,50.27,46.661Zm-.885-1.039.052.053c.207.212.422.431.642.636a.669.669,0,0,1,.06.066.246.246,0,0,0,.052.053.447.447,0,0,0,.079.005,1.6,1.6,0,0,0,.73-.18,2.845,2.845,0,0,0-.6-.5,5.292,5.292,0,0,1-.653-.514A1.227,1.227,0,0,1,49.385,45.623Zm12.124.76-.132-.295c-.157-.352-1.521-3.477-.924-4.663a.786.786,0,0,1,.552-.437h0a.454.454,0,0,0,.067-.027.721.721,0,0,1,.31-.077,1.082,1.082,0,0,1,.672.31c.714.6.1,2.811-.3,4.274-.064.232-.12.433-.163.6Zm-.455-5.175a.564.564,0,0,0-.4.318c-.414.822.258,2.887.8,4.175l.081-.293c.342-1.235.978-3.534.375-4.042a.893.893,0,0,0-.527-.257.507.507,0,0,0-.218.058.582.582,0,0,1-.11.041h0Zm-.693,5.1-.134-.181a10.2,10.2,0,0,1-.943-1.543l-.02-.041.014-.043a1.751,1.751,0,0,1,.878-1.057l.13-.064.029.142a12.058,12.058,0,0,0,.56,1.845l.047.121-.127.029a.075.075,0,0,0-.042.022,1.356,1.356,0,0,0-.329.553Zm-.854-1.781a9.935,9.935,0,0,0,.78,1.3,1.626,1.626,0,0,1,.305-.442.305.305,0,0,1,.037-.033,12.446,12.446,0,0,1-.5-1.635A1.526,1.526,0,0,0,59.507,44.525Zm8.813,1.54.243-.32a3.28,3.28,0,0,0,.36-.915,4.992,4.992,0,0,0,.012-1.257l-.022-.2.182.087a1.124,1.124,0,0,1,.656,1.279,2.278,2.278,0,0,1-.335.871l-.02.032Zm.858-2.3a4.23,4.23,0,0,1-.037,1.119,4.818,4.818,0,0,1-.239.71l.342-.135a2.029,2.029,0,0,0,.285-.754A.894.894,0,0,0,69.177,43.766ZM57.79,45.979A2.053,2.053,0,0,1,57,45.765a2.584,2.584,0,0,0-.527-.18h0a.711.711,0,0,0-.091-.009l-.063,0-.351-.033.306-.176a2.284,2.284,0,0,0,.933-.954l.041-.082.089.024a3.277,3.277,0,0,1,1.6.959.2.2,0,0,1,.033.213c-.12.271-.936.449-1.139.456Zm-1.15-.586a3.558,3.558,0,0,1,.446.165,1.781,1.781,0,0,0,.731.2,2.1,2.1,0,0,0,.933-.309,3.027,3.027,0,0,0-1.388-.852A2.437,2.437,0,0,1,56.64,45.394Zm-7.828-.022-.114-.107a6.318,6.318,0,0,0-.657-.551l-.153-.108.167-.084a.1.1,0,0,0,.052-.08.091.091,0,0,0-.046-.084,1.108,1.108,0,0,1-.288-.275l-.249-.335.384.165a.69.69,0,0,0,.357.061.558.558,0,0,0,.418-.3l.15-.243.053.27.08.167c.161.239.325.466.487.675l.1.13-.158.046a.838.838,0,0,0-.519.506Zm-.532-.761c.172.13.329.267.463.389a1.052,1.052,0,0,1,.442-.434c-.137-.181-.274-.374-.409-.575l-.008-.014-.011-.023a.727.727,0,0,1-.466.244l-.064,0a.314.314,0,0,1,.105.253A.32.32,0,0,1,48.281,44.611Zm15.283.724.307-.267a10.2,10.2,0,0,1,1.065-.8l.015-.008a2,2,0,0,1,.794-.215.859.859,0,0,1,.428.107l.211.12-.228.084a4.58,4.58,0,0,0-1.459.9l-.068.061-.074-.054a.1.1,0,0,0-.052-.022,2.033,2.033,0,0,0-.54.025Zm.766-.33c.065,0,.13,0,.195.009a.308.308,0,0,1,.082.019,4.92,4.92,0,0,1,1.167-.761h-.03a1.782,1.782,0,0,0-.692.191c-.29.193-.537.37-.755.543Zm-1.327.3-.111-.066c-.057-.034-.1-.056-.143-.075a.512.512,0,0,1-.306-.33,1.367,1.367,0,0,0-.095-.136,1.611,1.611,0,0,1-.146-.217l-.018-.036.01-.039c.026-.109.052-.205.077-.3a5.361,5.361,0,0,0,.191-1.028l.01-.1h1.121l0,.116a4.449,4.449,0,0,1-.444,1.87c-.03.071-.061.144-.093.221Zm-.58-.89c.026.042.068.1.105.148a1.057,1.057,0,0,1,.121.183c.064.151.092.165.2.215l.048.023.046-.108A4.247,4.247,0,0,0,63.36,43.2h-.685a5.566,5.566,0,0,1-.188.963C62.467,44.247,62.445,44.329,62.423,44.418Zm6.484.451-.176-.248a1.742,1.742,0,0,0-1.412-.465,3.79,3.79,0,0,0-.707.064l-.07.014-.042-.057-.01-.016a.928.928,0,0,0-.544-.278l-.361-.056.33-.157a5.224,5.224,0,0,1,2.037-.422,3.626,3.626,0,0,1,.557.04l.047.007.027.039a1.833,1.833,0,0,1,.352,1.232Zm-1.589-.938a2.445,2.445,0,0,1,1.392.352,1.653,1.653,0,0,0-.285-.781,3.477,3.477,0,0,0-.475-.031,5.2,5.2,0,0,0-1.652.283,1.158,1.158,0,0,1,.334.233A4.076,4.076,0,0,1,67.317,43.932Zm-8.173.355-.09-.222a5.264,5.264,0,0,1-.439-2.139l0-.059.049-.032a2,2,0,0,1,1.057-.383,1.026,1.026,0,0,1,.5.124l.078.043-.024.086a3.5,3.5,0,0,0-.027,1.43l.021.14-.141-.011a.1.1,0,0,0-.05.007,1.793,1.793,0,0,0-.821.8Zm-.306-2.294a4.915,4.915,0,0,0,.341,1.776,1.956,1.956,0,0,1,.8-.7l.026-.011a3.738,3.738,0,0,1,.026-1.32A1.32,1.32,0,0,0,58.838,41.993Zm4.756.881H62.5l.01-.121a2.929,2.929,0,0,0-.143-1.491l-.047-.1.1-.05a.772.772,0,0,0,.241-.23l.093-.122.088.125a6.751,6.751,0,0,1,.427.711,3.143,3.143,0,0,1,.32,1.155Zm-.853-.224h.606a2.826,2.826,0,0,0-.281-.946c-.119-.223-.226-.406-.33-.565a.947.947,0,0,1-.128.118A3.165,3.165,0,0,1,62.742,42.649Zm-4.11-1.019.044-.228a2.855,2.855,0,0,1,.242-.734,2.236,2.236,0,0,1,.626-.7l.047-.035.044.014c.032,0,.1-.013.16-.022a1.769,1.769,0,0,1,.231-.028.2.2,0,0,1,.064.009.781.781,0,0,1,.625.667,2.2,2.2,0,0,0,.074.251.156.156,0,0,1,.011.018l.046.09-.084.056a1.094,1.094,0,0,0-.35.37l-.052.091-.094-.046a1.558,1.558,0,0,0-1.429.125Zm1.016-1.464a2,2,0,0,0-.529.6,2.486,2.486,0,0,0-.172.456,1.709,1.709,0,0,1,1.325-.069,1.311,1.311,0,0,1,.29-.305c-.028-.082-.047-.159-.065-.227-.061-.242-.094-.376-.471-.506a1.855,1.855,0,0,0-.2.025C59.758,40.153,59.693,40.164,59.648,40.166Zm2.534.818-.044-.037a.862.862,0,0,0-.575-.184,1.828,1.828,0,0,0-.382.045.3.3,0,0,0-.036.012l-.043.014-.1.028-.037-.094a1.791,1.791,0,0,0-.688-.919l-.268-.145.3-.063a2.18,2.18,0,0,1,.952,0,2.571,2.571,0,0,1,1.332.924l.094.113-.134.061a.092.092,0,0,0-.041.031.467.467,0,0,1-.274.2Zm-.619-.446a1.113,1.113,0,0,1,.667.2.258.258,0,0,0,.1-.089l.016-.021a2.272,2.272,0,0,0-1.136-.762,1.88,1.88,0,0,0-.587-.042,2.246,2.246,0,0,1,.513.767A2.05,2.05,0,0,1,61.563,40.538Z" transform="translate(-44.344 -38.96)"/><path d="M60.686,67.563a1.13,1.13,0,0,1-.847-.352,1.288,1.288,0,0,1-.107-.126.9.9,0,0,1-.219.014.662.662,0,0,1-.5-.235.773.773,0,0,1-.156-.424,1.075,1.075,0,0,1-.62.081.613.613,0,0,1-.417-.273.9.9,0,0,1-.119-.521,1.579,1.579,0,0,1-.807.231,1.5,1.5,0,0,1-.276-.026.414.414,0,0,1-.323-.391,3.766,3.766,0,0,1,.089-1.168,2.572,2.572,0,0,1-.658.173,1.347,1.347,0,0,1-.153.009.991.991,0,0,1-.8-.354.84.84,0,0,1-.138-.739,6.58,6.58,0,0,1,1.045-1.606,5.156,5.156,0,0,1-.037-3.547,5.848,5.848,0,0,1,1.153-1.7c.2-.235.414-.478.595-.725.169-.231.293-.4.447-.644,0-.011-.008-.025-.01-.032s-.009-.028-.013-.041a5.507,5.507,0,0,1-.124-.694c-.025-.178-.05-.361-.083-.532-.227-.066-.492-.146-.581-.183a1.83,1.83,0,0,1-.388-.256c-.469-.312-.538-.908-.188-1.6a.423.423,0,0,1-.044-.081,1.87,1.87,0,0,1,.23-2.156,1.381,1.381,0,0,1-.184-1.068,1.221,1.221,0,0,1,.041-.124,8.763,8.763,0,0,0-.834.98,8.33,8.33,0,0,1-1.316,1.446,4.36,4.36,0,0,1-2.652.949,10.678,10.678,0,0,0-4.434,1.046.444.444,0,0,1-.194.045.433.433,0,0,1-.313-.13.392.392,0,0,1-.107-.292,1.44,1.44,0,0,1,.245-.768.363.363,0,0,1-.207-.207.474.474,0,0,1,.068-.454c.084-.107.171-.2.255-.292.286-.308.458-.494.284-.861a.255.255,0,0,1,.013-.25c.071-.111.208-.161.446-.161a1.433,1.433,0,0,1,.708.164,1.541,1.541,0,0,0,.626.255l.392.069a4.543,4.543,0,0,0,.533.03,6.071,6.071,0,0,0,1.316-.154,3.52,3.52,0,0,0,2.368-1.55l.039-.056A5.527,5.527,0,0,1,55.69,46.28a2.671,2.671,0,0,1,.551-.207,1.769,1.769,0,0,0-1.036.262,9,9,0,0,0-.768.577,4.015,4.015,0,0,1-2.122,1.1c-.1.009-.195.014-.289.014-1.293,0-2.088-.819-2.93-1.685-.125-.129-.254-.262-.384-.391l-1.294-.972a.489.489,0,0,1-.386-.477.387.387,0,0,1,.185-.357,1.581,1.581,0,0,1-.164-.651.4.4,0,0,1,.111-.293.43.43,0,0,1,.309-.129.416.416,0,0,1,.291.116l.015.015c.109.106.291.286.42.272.077-.009.143-.264.164-.347l.006-.022a.427.427,0,0,1,.413-.311.382.382,0,0,1,.3.137,1.533,1.533,0,0,1,.285.6l.014.047v0l.019.025c.808,1.2,1.8,2.425,3,2.375a2.84,2.84,0,0,0,1.854-1,4.371,4.371,0,0,1,1.409-.993,3.136,3.136,0,0,1,1.064-.174,2.346,2.346,0,0,1,.778.113,6.447,6.447,0,0,1,1.308.74l-.027-.053a6.76,6.76,0,0,1-.71-2.918,2.52,2.52,0,0,1,1.445-2.3,2.635,2.635,0,0,1,1.19-.291,3.5,3.5,0,0,1,3.006,2.242,4.341,4.341,0,0,1,.147,3.019,8.281,8.281,0,0,1,2.023-1.248,5.667,5.667,0,0,1,2.038-.4,4.064,4.064,0,0,1,.569.038H68.5l.249.047a1.811,1.811,0,0,1,1.431,1.16c.355,1.013-.239,2.171-1.765,3.44a6.875,6.875,0,0,1-3.6,1.9l-.157.542c.2.5.1.874-.392,1.554a2.474,2.474,0,0,1,.225.321,1.512,1.512,0,0,1,.15,1.251,3.324,3.324,0,0,1-1.59,1.737,35.885,35.885,0,0,1,2.444,5.385,4.318,4.318,0,0,1-.576,3.057c.26.5.7,1.617-.147,2.257a1.121,1.121,0,0,1-.51.22,2.626,2.626,0,0,1,.125,1.153.411.411,0,0,1-.322.382,1.513,1.513,0,0,1-1.015-.152.871.871,0,0,1-.783.484,1.216,1.216,0,0,1-.389-.069,2.3,2.3,0,0,1-.268-.112A2.08,2.08,0,0,1,60.686,67.563Zm-.87-.7.04.057a1.25,1.25,0,0,0,.126.156.938.938,0,0,0,.7.292,1.924,1.924,0,0,0,.87-.252l.046-.025.047.024a2.229,2.229,0,0,0,.289.124,1.017,1.017,0,0,0,.325.059.7.7,0,0,0,.652-.465l.047-.1.1.058a1.323,1.323,0,0,0,.966.18.217.217,0,0,0,.161-.209,2.484,2.484,0,0,0-.142-1.146l0-.016-.025-.151.113,0a.911.911,0,0,0,.521-.192c.725-.546.353-1.518.066-2.048l-.025-.046.024-.047A4.192,4.192,0,0,0,65.3,60.14a36.945,36.945,0,0,0-2.473-5.427l-.04-.074-.007.032v0l0,0a38.438,38.438,0,0,1,2.5,5.467,4.243,4.243,0,0,1-.609,3l0,.006,0,.006c.242.432.725,1.5-.031,2.069A.884.884,0,0,1,64,65.41l-.016,0,.035.2a2.466,2.466,0,0,1,.143,1.14.194.194,0,0,1-.142.187,1.364,1.364,0,0,1-.26.026,1.326,1.326,0,0,1-.8-.275l-.013-.01-.006.015c-.171.473-.464.572-.679.572a1,1,0,0,1-.318-.058,2.426,2.426,0,0,1-.338-.15l-.006,0-.006,0a1.94,1.94,0,0,1-.909.277A.915.915,0,0,1,60,67.054a1.424,1.424,0,0,1-.169-.22l-.005-.008-.009,0a.712.712,0,0,1-.291.045.448.448,0,0,1-.34-.153.829.829,0,0,1-.091-.646l0-.028-.023.016a1.093,1.093,0,0,1-.8.236.4.4,0,0,1-.271-.174,1.176,1.176,0,0,1-.01-.869l.009-.038-.029.026a1.5,1.5,0,0,1-1.32.466.2.2,0,0,1-.141-.187,3.307,3.307,0,0,1,.231-1.545l.013-.032-.03.016a2.994,2.994,0,0,1-1.032.359,1.1,1.1,0,0,1-.126.007.772.772,0,0,1-.622-.267.612.612,0,0,1-.1-.546,7.58,7.58,0,0,1,1.076-1.611l0-.005,0-.007a4.986,4.986,0,0,1-.079-3.506,5.679,5.679,0,0,1,1.112-1.633c.206-.238.42-.485.606-.739s.311-.424.481-.7v0a.265.265,0,0,0-.014-.181l-.01-.031a5.384,5.384,0,0,1-.117-.663c-.031-.226-.064-.459-.111-.672l0-.007-.007,0c-.006,0-.56-.16-.68-.21a1.746,1.746,0,0,1-.337-.227l-.007-.005c-.406-.265-.419-.815-.035-1.474l.009-.015-.017,0a.149.149,0,0,1-.113-.1,1.641,1.641,0,0,1,.3-2.028l.008-.007-.006-.009a1.245,1.245,0,0,1-.247-1.035,1.938,1.938,0,0,1,1.119-1.091l-.015-.045a3.97,3.97,0,0,0-2.292,1.8,8.154,8.154,0,0,1-1.28,1.409,4.147,4.147,0,0,1-2.522.9,10.881,10.881,0,0,0-4.521,1.068.227.227,0,0,1-.246-.039.167.167,0,0,1-.045-.127,1.189,1.189,0,0,1,.433-.9l.019-.016-.075-.015c-.077-.016-.157-.032-.237-.043a.143.143,0,0,1-.119-.091.25.25,0,0,1,.036-.232c.078-.1.162-.19.243-.278.278-.3.54-.583.347-1.051l-.045-.108,0,0a.058.058,0,0,0,0,.057c.232.489-.022.764-.317,1.082-.082.088-.166.179-.245.279a.276.276,0,0,0-.04.256.169.169,0,0,0,.138.106l.077.013.174.031-.116.133a1.209,1.209,0,0,0-.3.776.194.194,0,0,0,.052.145.232.232,0,0,0,.168.068.243.243,0,0,0,.106-.024,10.859,10.859,0,0,1,4.512-1.066,4.17,4.17,0,0,0,2.537-.9A8.173,8.173,0,0,0,55.5,49.323a5.645,5.645,0,0,1,1.393-1.429l.123.156a1.307,1.307,0,0,0-.371.59,1.223,1.223,0,0,0,.2.978l.042.068-.057.056a1.675,1.675,0,0,0-.241,1.993.2.2,0,0,0,.048.071l.057.052-.036.068c-.338.633-.3,1.146.095,1.407l.009.007a1.631,1.631,0,0,0,.341.229c.069.029.288.1.618.193l.058.017.012.059c.039.194.068.4.1.6a5.4,5.4,0,0,0,.118.666l.011.033a.272.272,0,0,1,.02.142l0,.018-.01.015c-.166.265-.294.441-.472.683s-.4.5-.605.737a5.7,5.7,0,0,0-1.117,1.641,4.984,4.984,0,0,0,.057,3.463l.018.053-.036.043A6.307,6.307,0,0,0,54.83,63.51a.644.644,0,0,0,.1.567.793.793,0,0,0,.639.277,1.148,1.148,0,0,0,.131-.008,2.631,2.631,0,0,0,.791-.239l.2-.093-.068.214a3.464,3.464,0,0,0-.137,1.3.22.22,0,0,0,.161.209,1.3,1.3,0,0,0,.239.023,1.459,1.459,0,0,0,.867-.308l.189-.134-.032.229a.878.878,0,0,0,.071.594.415.415,0,0,0,.287.185.967.967,0,0,0,.63-.128l.151-.079,0,.17a.678.678,0,0,0,.116.451.471.471,0,0,0,.358.162.712.712,0,0,0,.224-.023Zm2.232.176a.477.477,0,0,0,.611-.205.576.576,0,0,1-.462.22A.784.784,0,0,1,62.048,67.034Zm-1.892-.4.006.009a.642.642,0,0,0,.195.21.694.694,0,0,0,.366.1,1.158,1.158,0,0,0,.484-.125l.018-.008-.016-.012A3.621,3.621,0,0,1,60.6,66.2l-.01-.012-.01.012a2.665,2.665,0,0,1-.416.422Zm.669-.768.005.007a2.944,2.944,0,0,0,.968.862.884.884,0,0,0,.4.118c.221,0,.368-.149.438-.443V66.4l0,0a6.506,6.506,0,0,1-1.076-1.979l-.014-.036-.01.037a4.9,4.9,0,0,1-.54,1.182c-.047.078-.1.169-.162.256Zm-.606.445-.028.021-.518.332-.02.006a.607.607,0,0,0,.1-.026l.143-.052,0,0,.151-.12A2.045,2.045,0,0,0,60.219,66.307Zm1.658-4.451-.018.028c-.009.015-.23.385-.035,1.957a4.856,4.856,0,0,0,.663,1.653c.066.119.128.232.185.342a1.947,1.947,0,0,0,.994.762.126.126,0,0,0,.1-.042c.21-.248.009-1.017-.175-1.275a2.042,2.042,0,0,0-.419-.4,1.6,1.6,0,0,1-.423-.42,7.742,7.742,0,0,1-.639-1.672l-.051-.172a5.11,5.11,0,0,1-.179-.732Zm-2.341,4.626a.107.107,0,0,0,.051,0h0l.5-.322a2.7,2.7,0,0,0,.258-.284l.258-.381a4.2,4.2,0,0,0,.608-1.439.591.591,0,0,0-.43-.707.423.423,0,0,0-.286-.011l-.005,0-.076.4a4.217,4.217,0,0,1-.544,1.531,3.076,3.076,0,0,1-.235.3l0,0c-.155.472-.207.784-.146.88l0-.115a2.533,2.533,0,0,1,.164-.735l.006-.019.013-.015a2.984,2.984,0,0,0,.222-.285,4.24,4.24,0,0,0,.547-1.54l.076-.4H60.6a.741.741,0,0,1,.176.03.574.574,0,0,1,.412.679,4.171,4.171,0,0,1-.6,1.43l-.257.38a2.665,2.665,0,0,1-.251.277l-.015.012Zm.3-.8a4.162,4.162,0,0,0-.123.454l.234-.15a2.459,2.459,0,0,0,.223-.246l.249-.369a3.973,3.973,0,0,0,.574-1.352.373.373,0,0,0-.267-.455l-.045-.011-.043.228a4.417,4.417,0,0,1-.577,1.612A3.113,3.113,0,0,1,59.835,65.679Zm-.841.2a2.227,2.227,0,0,1-.515.226l-.02.005a1.132,1.132,0,0,0,.506-.211Zm-.65-1.194-.151.619c-.108.441-.068.632-.016.714a.2.2,0,0,0,.141.085l.012,0a.248.248,0,0,1-.132-.094c-.138-.192.017-.774.171-1.228.025-.076.053-.152.08-.227l-.062.08Zm.028,1.221a.047.047,0,0,0,.03.01v0l.02,0a1.842,1.842,0,0,0,.87-.539,3.3,3.3,0,0,0,.881-1.993c.013-.093.027-.185.042-.277.023-.138.043-.224.058-.287a.531.531,0,0,0,0-.336l-.007-.03-.015.027c-.05.088-.106.18-.167.272a16.769,16.769,0,0,1-1.4,1.755l0,0c-.04.108-.083.224-.121.338a2.275,2.275,0,0,0-.2,1.042l.006-.125a4.745,4.745,0,0,1,.219-.909c.037-.111.078-.223.114-.318l.006-.017.012-.014a17.242,17.242,0,0,0,1.328-1.659l.181.077c-.012.056-.023.113-.033.176-.016.093-.029.186-.042.278a3.239,3.239,0,0,1-.875,1.981,1.762,1.762,0,0,1-.777.505Zm1-.278-.05.325c.028-.122.069-.268.128-.445l0-.007-.006.007a1.9,1.9,0,0,1-.289.265Zm2.787-.326c.069.138.144.276.223.408l-.065-.118C62.26,65.5,62.207,65.4,62.154,65.3Zm-3.277-.678c-.033.089-.071.193-.105.295a5.938,5.938,0,0,0-.186.7,1.52,1.52,0,0,0,.537-.388,3.071,3.071,0,0,0,.828-1.877l0-.034C59.615,63.773,59.239,64.211,58.877,64.623ZM57.29,63.77h0a2.487,2.487,0,0,0-.386,1.57.132.132,0,0,0,.126.069c.276,0,.875-.524,1.2-.9l.647-.835c.152-.207.288-.391.408-.525a3.429,3.429,0,0,0,.8-1.283.326.326,0,0,0-.008-.272.12.12,0,0,0-.058-.041l.041.06a.319.319,0,0,1,0,.247,3.408,3.408,0,0,1-.791,1.273c-.121.135-.257.319-.409.527l-.646.834c-.374.432-.94.895-1.185.895a.113.113,0,0,1-.1-.045l-.007-.012A2.422,2.422,0,0,1,57.3,63.8l.007-.011.558-.524A5.638,5.638,0,0,0,59.106,62l.01-.014.014-.01a2.183,2.183,0,0,1,.8-.413l.018-.026a2.373,2.373,0,0,0-.831.421l-.015.011a5.619,5.619,0,0,1-1.245,1.268Zm.175.143a2.806,2.806,0,0,0-.377,1.259,3.4,3.4,0,0,0,.974-.81l.639-.825c.154-.21.293-.4.419-.539a3.232,3.232,0,0,0,.747-1.192l.006-.022a2.936,2.936,0,0,0-.616.352,5.834,5.834,0,0,1-1.267,1.284Zm5.244-2.928a.388.388,0,0,0-.316.145,1.012,1.012,0,0,0-.12.769,10.015,10.015,0,0,0,.318,1.108l.076.23.037.116a3.8,3.8,0,0,0,.439,1.012,1.471,1.471,0,0,0,.956.673.479.479,0,0,0,.385-.2,1.137,1.137,0,0,0-.027-1.271l-.01-.021-.011.02c-.085.151-.161.283-.233.406a.182.182,0,0,1-.16.093.226.226,0,0,1-.144-.054c-.68-.571-.576-1.295-.383-2.112V61.9a.041.041,0,0,0,0-.007l0-.011,0-.011c-.066-.366-.292-.815-.712-.877A.576.576,0,0,0,62.709,60.986ZM55.03,63.7a.382.382,0,0,0,.08.235.449.449,0,0,0,.167.129A.9.9,0,0,1,55.03,63.7Zm1.237.222c-.035.025-.072.051-.111.076a4.043,4.043,0,0,0,.482-.218l.527-.276-.129.3c.028-.054.056-.1.084-.148l.014-.023.509-.478c-.141.1-.255.178-.321.222a6.191,6.191,0,0,1-.861.451Zm-1.057-.311v0c.1.254.236.378.416.378a1.037,1.037,0,0,0,.53-.237l.016-.01.2-.094a6.055,6.055,0,0,0,.836-.437c.722-.478,2.057-1.525,1.943-2.066-.019-.089-.1-.135-.227-.135a2.379,2.379,0,0,0-.886.29.2.2,0,0,1-.064.018h-.009v.01a6.328,6.328,0,0,1-.091.672c-.1.491-.582,1.218-1.044,1.218-.217,0-.4-.158-.555-.468-.067-.139-.133-.288-.2-.456l-.013-.031-.01.032a.194.194,0,0,1-.07.1,2.453,2.453,0,0,0-.775,1.207Zm4.309-.428-.081.092c-.1.112-.214.264-.342.437C59.24,63.544,59.382,63.367,59.519,63.188ZM63.5,59.512a.179.179,0,0,1,.129.057c.595.589.415,1.349.241,2.083l-.074.33a1.765,1.765,0,0,0,.191,1.566l.011.014L64,63.547c.069-.123.137-.251.209-.392l.2-.419a4.762,4.762,0,0,0-.026-4.054,18.07,18.07,0,0,0-1.73-3.27l-.017-.025-.005.03A18.646,18.646,0,0,0,62.4,57.7l-.007.179a13.894,13.894,0,0,1-.227,2.349q-.029.137-.058.273c-.028.132-.056.263-.083.394l.049.02a.785.785,0,0,1,.642-.309.9.9,0,0,1,.381.085,1.312,1.312,0,0,1,.549.494l.017.027.005-.032a1.441,1.441,0,0,0-.318-1.335.173.173,0,0,1-.043-.2A.214.214,0,0,1,63.5,59.512Zm-2.9,3.437a1.122,1.122,0,0,1,.824.428l.021.034,0-.04c0-.07.1-1.731.217-2.593.169-1.224.291-2.217.375-3.378l0-.05a16.166,16.166,0,0,1,.923-4.617l0-.011-.011,0a3.674,3.674,0,0,0-1.086-.188l-.047,0c-.121.013-.249.032-.373.05-.163.024-.331.049-.491.061s-.314.023-.472.034c-.185.013-.374.025-.559.041-.083.007-.357.037-.683.081h-.01l-.009.528a5.683,5.683,0,0,1-1.728,3.408l-.2.239a4.285,4.285,0,0,0-1.3,2.428,6.893,6.893,0,0,0,.287,2.181c.126.482.436,1.247.731,1.247.1,0,.2-.087.286-.258a2.714,2.714,0,0,0,.259-1.009c.006-.066.011-.131.017-.195a4.835,4.835,0,0,1,.186-1.138,4.317,4.317,0,0,1,1.787-1.912,9.2,9.2,0,0,0,.935-.734.184.184,0,0,1,.128-.054.216.216,0,0,1,.192.135.169.169,0,0,1-.047.192,8.431,8.431,0,0,1-.938.729,5.032,5.032,0,0,0-1.467,1.35,2.468,2.468,0,0,0-.319.938l0,.021.02-.008a2.067,2.067,0,0,1,.785-.149,3.041,3.041,0,0,1,.674.083.164.164,0,0,1,.115.089.235.235,0,0,1,0,.2.69.69,0,0,1-.036.069c-.01.018-.021.036-.03.054l-.015.031.032-.015c.45-.21.749-.188.876.067a1.1,1.1,0,0,1-.085.952l-.016.035.033-.019a.183.183,0,0,1,.091-.023.217.217,0,0,1,.169.078.178.178,0,0,1,.03.159c-.031.125-.062.265-.1.441l0,.015ZM64.927,59.7a4.755,4.755,0,0,1-.334,3.123l-.2.414.041-.072,0,0,.053-.1a4.07,4.07,0,0,0,.592-2.86C65.042,60.047,64.991,59.88,64.927,59.7Zm-8.774,2.254.111.278c.065.164.129.309.194.443.115.236.241.356.376.356a.309.309,0,0,0,.077-.01c-.476-.127-.771-1.165-.828-1.384a7.606,7.606,0,0,1-.3-1.963,5.426,5.426,0,0,0,.34,2.156l.041.114Zm3.8-.609a.342.342,0,0,1,.279.128.4.4,0,0,1,.071.293.611.611,0,0,0-.045-.362.171.171,0,0,0-.18-.1.88.88,0,0,0-.3.069A.641.641,0,0,1,59.956,61.341Zm1.871-.315c-.023.194-.044.412-.064.635l.235-.37.05.351a1.166,1.166,0,0,1,.1-.488Zm-3.6-1.287a2.013,2.013,0,0,0-.287.552,3.513,3.513,0,0,0-.143.716l.025-.165a2.657,2.657,0,0,1,.346-1.012Q58.2,59.784,58.232,59.74Zm3.961-1.832c-.076.9-.178,1.727-.309,2.689l.03-.141c.019-.091.039-.182.058-.273A13.51,13.51,0,0,0,62.193,57.908Zm-3.928-2.68a.388.388,0,0,1-.022.155l-.013.03-.006.01c-.165.265-.292.441-.461.671a5.235,5.235,0,0,0,1.194-2.241,4.97,4.97,0,0,1-.416,1.033l-.242.452Zm4.289-.324.268.4q.149.221.29.444c-.3-.572-.5-.958-.511-.97l-.015-.028Q62.57,54.825,62.554,54.9Zm-4.661-1.86.01.014a2.178,2.178,0,0,1,.314,1.051,4.1,4.1,0,0,0,.125.68l.009.028.014-.026a4.667,4.667,0,0,0,.448-1.186l.026-.748-.014,0-.324.049a2.7,2.7,0,0,0-.591.131Zm4.9,1.54v.006l-.006.026.077-.039a3.2,3.2,0,0,0,1.58-1.664,1.319,1.319,0,0,0-.131-1.092,2.274,2.274,0,0,0-.255-.352l-.054-.061.048-.065c.506-.683.592-1,.4-1.456l-.013-.032.216-.747.072,0a6.571,6.571,0,0,0,3.554-1.858c1.455-1.21,2.028-2.294,1.7-3.22A1.622,1.622,0,0,0,68.706,43l-.246-.047a3.861,3.861,0,0,0-.539-.036,5.453,5.453,0,0,0-1.961.38,8.183,8.183,0,0,0-2.228,1.438l-.276.249.114-.354a4.163,4.163,0,0,0-.039-3.206A3.3,3.3,0,0,0,60.708,39.3a2.437,2.437,0,0,0-1.1.27A2.332,2.332,0,0,0,58.273,41.7a6.56,6.56,0,0,0,.69,2.822l.211.409-.147.127a7.764,7.764,0,0,0-1.592-.949,2.149,2.149,0,0,0-.71-.1,2.93,2.93,0,0,0-.993.161,4.216,4.216,0,0,0-1.344.953,3,3,0,0,1-1.982,1.056c-1.3.053-2.334-1.219-3.173-2.462a.14.14,0,0,0-.016-.02l-.022-.023-.005-.031a.117.117,0,0,0,0-.013l-.014-.046a1.336,1.336,0,0,0-.246-.526.183.183,0,0,0-.145-.066.228.228,0,0,0-.22.161l-.006.022c-.045.177-.121.473-.336.5s-.43-.18-.581-.327l-.015-.014a.217.217,0,0,0-.152-.06.229.229,0,0,0-.165.068.2.2,0,0,0-.055.147q0,.02,0,.04l.025.011q0-.026,0-.051a.172.172,0,0,1,.048-.129.2.2,0,0,1,.147-.061.192.192,0,0,1,.135.053l.009.008c.148.144.377.365.607.34.214-.024.293-.267.357-.515l.006-.022a.2.2,0,0,1,.2-.143.16.16,0,0,1,.126.057,1.317,1.317,0,0,1,.242.517l.017.056v.02c0,.006,0,.01,0,.015v.005l.01.008a.165.165,0,0,1,.035.035c.842,1.249,1.882,2.528,3.194,2.473a3.055,3.055,0,0,0,2-1.062,4.2,4.2,0,0,1,1.336-.948,2.947,2.947,0,0,1,.984-.159,2.156,2.156,0,0,1,.7.1,8.89,8.89,0,0,1,1.766,1.074l.037.026c.028.021.084.071.127.112l.042-.031-.413-.8c-1.5-3.253-.246-4.479.634-4.921a2.412,2.412,0,0,1,1.089-.267,3.324,3.324,0,0,1,2.8,2.11,4.341,4.341,0,0,1-.087,3.551l.049.031a8.181,8.181,0,0,1,2.5-1.7,5.426,5.426,0,0,1,1.952-.378,3.843,3.843,0,0,1,.535.036l.245.046a1.6,1.6,0,0,1,1.265,1.015c.321.916-.25,1.99-1.7,3.193-1.151.958-2.386,1.846-3.62,1.854h-.009l-.224.775,0,0c.2.449.16.749-.439,1.541l-.006.008.007.008a2.246,2.246,0,0,1,.313.414,1.3,1.3,0,0,1,.128,1.072A3.168,3.168,0,0,1,62.8,54.582Zm1-2.295.4.022,0,.1a2.479,2.479,0,0,1-1.1,1.77,2.7,2.7,0,0,0,1.129-1.332,1.1,1.1,0,0,0-.109-.913,2.046,2.046,0,0,0-.285-.378l-.125-.131.036-.047-.043.044-.149-.108-.06-.042v.017c.021.052.044.108.069.166A2.187,2.187,0,0,1,63.8,52.289Zm-.829,1.58,0,.007c-.011.04-.022.082-.032.123l-.016.063.027-.019A2.36,2.36,0,0,0,63.991,52.5l-.029,0a.879.879,0,0,1-.236.456l0,0v0c0,.354-.371.7-.686.885a.182.182,0,0,1-.058.02Zm-1.028-1.539a3.886,3.886,0,0,1,1.081.2l.2.076-.075.2c-.109.287-.208.582-.3.888l.086-.019.008,0c.28-.169.578-.46.58-.709v-.083l.035-.037-.287-.226a1.972,1.972,0,0,0-.857-.269l-.133-.013,0-.011-.281.007Zm-4.86.97a.7.7,0,0,0,.109.062c.081.034.446.142.658.2l.077.022a1.235,1.235,0,0,0-.185-.414l-.169-.235.275-.091a2.908,2.908,0,0,1,.624-.139l.322-.049.254-.04h0l.168-.023c.174-.024.333-.043.458-.058-.325.024-.714.061-1.1.121l-.184.029,0-.009-.371.091c-.63.154-.813.325-.866.413Zm-.244-.744v.009a.661.661,0,0,0,.122.52l.011.014.009-.016a1.6,1.6,0,0,1,.99-.505l.043-.011-.042-.013a1.555,1.555,0,0,0-.463-.063,4.643,4.643,0,0,0-.639.06Zm5.588-.41h.008a2.163,2.163,0,0,1,.948.3l.009.006.145.114.007-.014a1.321,1.321,0,0,0-.156-1.019c-.028-.067-.055-.128-.078-.186l-.009-.025,0,0a2.313,2.313,0,0,0-.417-.165,8.237,8.237,0,0,0-1.187-.237l-.023.059a2.577,2.577,0,0,1,.756,1.16Zm-4.951-.042a2.5,2.5,0,0,1,.7.137,1.892,1.892,0,0,1,.332.187l.025.02.005.017.011,0c.549-.086,1.106-.125,1.477-.147h.021L60.03,52.3a2.266,2.266,0,0,0-1.357-1.164c-.147-.047-.482-.124-.51-.129h0A2.534,2.534,0,0,0,57,52.131l-.012.021.1-.012A3.191,3.191,0,0,1,57.475,52.105Zm4.177.244c-.209.018-.42.045-.626.072l-.288.036.2-.015c.154-.012.318-.036.477-.059ZM58.8,50.9a2.914,2.914,0,0,1,1.642,1.314.2.2,0,0,1,.021.06l0,.01h.011c.173-.017.353-.04.527-.062a9.759,9.759,0,0,1,.991-.094h.018L62,52.113c-.039-.1-.069-.179-.095-.252a1.153,1.153,0,0,0-.528-.7,4.076,4.076,0,0,0-.612-.326h0l-.073,0-.1-.006-.67-.03c-.131,0-.247-.007-.353-.007a4.663,4.663,0,0,0-.771.055Zm-11.372.326.021,0c.135.029.248.052.368.066A.225.225,0,0,1,48,51.47a.168.168,0,0,1-.081.181l-.018.009a.957.957,0,0,0-.535.475l-.015.031.031-.014a10.989,10.989,0,0,1,1.374-.521l.009,0v-.01a2.921,2.921,0,0,1,.161-.977l.029-.1-.012,0a3.271,3.271,0,0,1-.948-.38l-.022-.013,0,.025c.051.418-.146.626-.445.942l-.1.1Zm1.69-.856.092.022-.085.3a2.775,2.775,0,0,0-.154.911l.01.167-.16.048c-.158.048-.316.1-.475.156a11.248,11.248,0,0,1,2.678-.519l-.075,0a8.262,8.262,0,0,0-1.506.2l-.349.078.1-.344a2.617,2.617,0,0,0,.056-.748l-.005-.244.133.016Zm7.738.867.013.045a1.959,1.959,0,0,0,.075.228l.008.019.013-.016a2.589,2.589,0,0,1,.263-.288l.023-.021h-.031a1.474,1.474,0,0,0-.35.03Zm-7.406-.611v.014a2.768,2.768,0,0,1-.064.808l-.006.02.02,0a8.459,8.459,0,0,1,1.542-.2,8.252,8.252,0,0,0,1.353-.145l.022,0L52.3,51.1c-.054-.057-.1-.11-.145-.161a.71.71,0,0,0-.591-.34c-.027,0-.055,0-.087,0h-.007a2.97,2.97,0,0,1-.308-.024l-.019-.005h0a6.207,6.207,0,0,1-1.058.093,5.256,5.256,0,0,1-.619-.036Zm3.252.6.01.011-.377.077a6.923,6.923,0,0,1-.7.1l.033,0a3.957,3.957,0,0,0,2.407-.854,8,8,0,0,0,1.248-1.376L55.47,49l-.05-.009-.077.1c-.164.208-.324.422-.459.6a4.483,4.483,0,0,1-.748.8l-.23.19,0-.01-.124.08a3.907,3.907,0,0,1-.977.451Zm10.351-.4.006,0a2.725,2.725,0,0,1,.618.329l.009.006.007-.008a2.042,2.042,0,0,0,.337-.386,1.427,1.427,0,0,0-.209-1.033l0,0a2.6,2.6,0,0,0-.9-.356,9.529,9.529,0,0,0-1.49-.212l-.006.018.343.034a9.45,9.45,0,0,1,1.148.185,2.828,2.828,0,0,1,.875.341l.011.015a1.356,1.356,0,0,1,.2,1L64,50.771a3.061,3.061,0,0,1-.258.3l-.058.061-.07-.047a2.79,2.79,0,0,0-.5-.261l-.036-.015-.017-.035a.215.215,0,0,0-.031-.047A8.354,8.354,0,0,0,61.7,49.394l-.275-.208-.012.037a7.473,7.473,0,0,1,1.6,1.516.2.2,0,0,1,.04.077Zm-11.073-.455.025.014a2.642,2.642,0,0,1,.728.62l.005.006.008,0a3.71,3.71,0,0,0,.927-.428l.01-.006-.014-.023-.007-.01-.006-.01,0-.011c-.11-.36-.322-.567-.58-.567a.577.577,0,0,0-.13.016l-.011,0h-.019l0,0c-.087.052-.161.093-.233.127a5.477,5.477,0,0,1-.668.262Zm5.514.609.019.02.009-.007a3.5,3.5,0,0,1,2.066-.575h.027l-.019-.02a2.662,2.662,0,0,0-1.757-.823h-.005c-.7.286-1.048.712-1.043,1.267v.015l.039-.009a.677.677,0,0,1,.21-.024h.039a.558.558,0,0,1,.415.156Zm3.359-.321a4.422,4.422,0,0,1,.605.318l.1-.264C61.322,50.686,61.085,50.67,60.85,50.655Zm-2.593.167c.08.018.219.051.338.083l.006-.182A2.953,2.953,0,0,0,58.258,50.822Zm4.961-.174a3.036,3.036,0,0,1,.432.22c.106-.113.154-.172.17-.193a1.194,1.194,0,0,0-.182-.8,3.141,3.141,0,0,0-.766-.277c-.255-.058-.517-.1-.782-.141a9.643,9.643,0,0,1,1.089,1.14A.405.405,0,0,1,63.218,50.648Zm-15.435-.433a.965.965,0,0,1-.209.557A.669.669,0,0,0,47.783,50.215Zm12.33.2h.006c.149,0,.3.012.471.022l.128.008a11.7,11.7,0,0,1,1.656.181l.036.008-.025-.028a4.533,4.533,0,0,0-2.008-1.454l-.012,0c-.05,0-.463-.04-.608-.031a4.984,4.984,0,0,0-.774.137c-.106.024-.214.049-.318.071l-.044.009.042.015a3.113,3.113,0,0,1,1.444,1.06Zm3.908-.73a1.78,1.78,0,0,1,.244.884.692.692,0,0,0-.03-.628l-.031-.07.029-.1Zm-14.428.756c.157.015.32.022.486.022a6.007,6.007,0,0,0,1.023-.09l.066-.011.039.018c.051.007.2.018.257.019a1.226,1.226,0,0,1,.151,0l-.143-.078.471-.152a5.275,5.275,0,0,0,.643-.252c.066-.032.134-.069.216-.118l.034-.02.039-.007.031,0a.734.734,0,0,1,.267-.011L53,49.686l.249-.224q.068-.061.137-.13a4.058,4.058,0,0,1-1.978.963A6.5,6.5,0,0,1,50,50.459C49.864,50.459,49.727,50.453,49.593,50.442Zm3.78-.819.018.007a1.153,1.153,0,0,1,.6.694l.006.016.013-.011a4.285,4.285,0,0,0,.715-.76c.136-.183.3-.4.462-.608l.013-.016-.02,0h-.021l-.012,0a1.8,1.8,0,0,0-1.112,0l-.013,0h-.03l0,0a4.876,4.876,0,0,1-.6.664Zm-4.342.531.41.072A5.875,5.875,0,0,0,51.37,50.1a3.722,3.722,0,0,0,2.5-1.641l.039-.056a5.356,5.356,0,0,1,1.881-1.923,3.739,3.739,0,0,1,1.646-.319l.01-.054a3.743,3.743,0,0,0-1.283-.26,1.969,1.969,0,0,0-1.082.3,9.16,9.16,0,0,0-.788.591,3.845,3.845,0,0,1-2,1.049c-.09.008-.181.013-.268.013a3.916,3.916,0,0,1-2.769-1.617c-.128-.131-.259-.267-.393-.4L47.5,44.756h-.01a.252.252,0,0,1-.233-.263.153.153,0,0,1,.145-.177c.039,0,.077-.007.114-.012l.045-.006.022,0-.014-.017a1.337,1.337,0,0,1-.283-.684l-.029-.038a1.362,1.362,0,0,0,.189.587l.076.127-.146.024a.176.176,0,0,0-.144.2.286.286,0,0,0,.233.286l.029,0L48.848,45.8c.133.132.264.267.391.4.812.836,1.579,1.625,2.786,1.625.088,0,.179,0,.27-.013a3.864,3.864,0,0,0,2.015-1.054,9.145,9.145,0,0,1,.785-.59,1.945,1.945,0,0,1,1.069-.3,3.2,3.2,0,0,1,.74.1l-.014.2a3.028,3.028,0,0,0-1.111.294,5.374,5.374,0,0,0-1.89,1.93l-.039.056a3.7,3.7,0,0,1-2.489,1.631,6.274,6.274,0,0,1-1.36.158,4.737,4.737,0,0,1-.559-.032H49.44l-.4-.071a1.745,1.745,0,0,1-.7-.285,1.265,1.265,0,0,0-.6-.13.462.462,0,0,0-.269.057l.112-.021a.879.879,0,0,1,.156-.012,1.24,1.24,0,0,1,.582.126A1.747,1.747,0,0,0,49.032,50.154Zm13.956-1.107,1.156.473,0-.013a1.555,1.555,0,0,0-.148-1.4,2.854,2.854,0,0,0-2.166-1L61.26,47.1l-.009.051A2.865,2.865,0,0,1,62.778,48.5a1.208,1.208,0,0,1,.211.522v.022Zm-5.222-1.063,0,0a1.319,1.319,0,0,0-.688.756.909.909,0,0,0,.154.709l.006.01.01-.006a3.181,3.181,0,0,1,.312-.16l.268-.112a6.743,6.743,0,0,1,1.574-.356l.024,0-.016-.018a2.029,2.029,0,0,0-1.445-.828,1.43,1.43,0,0,0-.15.008H57.8l-.014,0-.014,0Zm2.65.973.016,0a3.415,3.415,0,0,1,.749.331l.1-.318c-.085-.006-.169-.01-.251-.013C60.831,48.953,60.622,48.952,60.416,48.957Zm-3.428-.527a.911.911,0,0,0-.125.27.869.869,0,0,0,.046.549.98.98,0,0,1-.029-.554A1,1,0,0,1,56.988,48.429Zm-1.533.514.016.052a6,6,0,0,1,1.069-1.133,5.468,5.468,0,0,0-.985.96Zm5.21-.189c.126,0,.251,0,.372.006a9.547,9.547,0,0,1,1.518.185l.02,0-.006-.02a3.287,3.287,0,0,0-2.078-1.773,6.407,6.407,0,0,0-1.992.5l-.03.013.031.01a3.483,3.483,0,0,1,1.394,1.1l0,0H59.9C60.154,48.763,60.41,48.754,60.665,48.754Zm4.636-.229a.225.225,0,0,1,.035.2.23.23,0,0,1-.038.076,4.073,4.073,0,0,0,.792-.3l-.024,0a1.469,1.469,0,0,0-.216.041.693.693,0,0,1-.191.028,1.842,1.842,0,0,1-.316-.039l-.028-.005Zm-.915-.394a2.083,2.083,0,0,1,.182.571l0,.015.014-.005a.185.185,0,0,1,.067-.014h.005l.107,0c.056,0,.115,0,.17,0,.084,0,.2,0,.21-.038,0-.006.006-.021-.029-.044a5.3,5.3,0,0,1-.682-.522Zm-9.783.338a2.209,2.209,0,0,1,.654.1.178.178,0,0,1,.123.124l.007.022L55.4,48.7a4.493,4.493,0,0,1,1.677-1.369l.021-.009-.018-.013a1.1,1.1,0,0,0-.6-.263,1.953,1.953,0,0,0-.6.161,5.325,5.325,0,0,1-.6.152l-.034,0-.013-.008-.007.006a6.442,6.442,0,0,0-.852,1.046l-.014.02-.029.04-.015.022.027,0A2.308,2.308,0,0,1,54.6,48.468Zm10.159-.5.011.015a.754.754,0,0,0,.577.347l.028.005a.784.784,0,0,0,.421.014,1.665,1.665,0,0,1,.241-.046h0a7.14,7.14,0,0,0,.723-.425l.021-.014-.024-.008a.9.9,0,0,1-.519-.431l-.006-.01-.01.005a6.723,6.723,0,0,1-1.449.544Zm-6.8-.189a1.551,1.551,0,0,1,.3.029l-.315-.105q-.084.041-.162.082h0l.017,0C57.856,47.782,57.909,47.779,57.961,47.779Zm5.674-.487.008.005a2.23,2.23,0,0,1,.429.368l0,0h.005a6.835,6.835,0,0,0,4.168-2.023c.25-.284.332-.529.241-.729-.153-.34-.757-.461-1.271-.461a2.438,2.438,0,0,0-.83.126,4.665,4.665,0,0,0-2.751,2.7Zm-5.726-.009.114.351.4-.164c.014-.006.108-.044.252-.1l-.035-.065a2.828,2.828,0,0,0-.385-.051l-.127,0a.938.938,0,0,0-.349.052l.044-.008Zm-7.456-.258a2.547,2.547,0,0,0,1.572.575c.081,0,.165,0,.25-.012a3.125,3.125,0,0,0,1.6-.769l-.124-.127a.524.524,0,0,1-.019.06c-.135.356-.645.615-1.558.79a1.515,1.515,0,0,1-.285.027A2.593,2.593,0,0,1,50.454,47.025Zm16.128.217.007.011a.583.583,0,0,0,.527.281.181.181,0,0,1,.093.028l.007,0,.007,0c.1-.071.192-.142.282-.211a10.922,10.922,0,0,0,1.276-1.094l-.008-.012L68.5,46.5c-.337.314-.7.592-1.006.829l-.229.172-.041.03-.048-.015a.192.192,0,0,0-.055-.009.584.584,0,0,1-.415-.155l-.1-.1.122-.064L67,47.05l.014-.007a8.148,8.148,0,0,0,1.076-.665l.039-.029.047.012a.207.207,0,0,0,.1,0l.136-.031.368-.089-.025-.037a3.785,3.785,0,0,1-.484.132.183.183,0,0,1-.129-.019l-.007,0-.006,0a7.851,7.851,0,0,1-1.122.7l-.014.007c-.126.068-.257.138-.391.207ZM50.5,46.811l.027.019a2.463,2.463,0,0,0,1.366.539,1.315,1.315,0,0,0,.248-.023c1.031-.2,1.335-.471,1.409-.665a.305.305,0,0,0-.054-.306.065.065,0,0,0-.036-.024l.049.089a.271.271,0,0,1,.018.233c-.071.188-.37.453-1.391.649a1.29,1.29,0,0,1-.243.023,2.142,2.142,0,0,1-1.113-.378l-.205-.125.234-.057a1.952,1.952,0,0,0,.678-.306l.019-.015.043-.038.055.018a2.754,2.754,0,0,0,1.61.047.439.439,0,0,0,.113-.061l.043-.027.086-.052a.237.237,0,0,0-.142.059.406.406,0,0,1-.106.057,2.731,2.731,0,0,1-1.666-.071l-.009,0-.005.009a.2.2,0,0,1-.054.057,2,2,0,0,1-.941.35Zm16.477.478a.546.546,0,0,0,.146.021.39.39,0,0,1,.059.005l.19-.143c.169-.129.353-.27.539-.423-.274.181-.553.335-.8.47l-.014.007Zm-10.51-.558a1.432,1.432,0,0,1,1.052.437l0,0,.007,0c.077-.02.138-.038.187-.053a1.14,1.14,0,0,1,.415-.063l.134,0a2.487,2.487,0,0,1,.481.072l.036.013.01.019.01,0c.166-.052.3-.091.431-.125l.028-.007-.025-.015c-.318-.193-.587-.346-.848-.482l-.006,0-.006,0a.189.189,0,0,1-.089.022c-.108,0-.218,0-.329,0-.132,0-.265,0-.4,0a4.042,4.042,0,0,0-1.231.149l.011.045C56.381,46.732,56.423,46.731,56.463,46.731Zm-1.237.379.07.042c.131-.024.457-.115.518-.136.137-.05.253-.092.356-.122l-.077-.329a2.046,2.046,0,0,0-.209.093A3.227,3.227,0,0,0,55.227,47.11Zm-4.146-.2a1.545,1.545,0,0,0,1.013.216,2.287,2.287,0,0,0,1.19-.449l-.023.007a2.953,2.953,0,0,1-1.675-.034A2.1,2.1,0,0,1,51.081,46.909Zm9.482.053a1.658,1.658,0,0,1,.49.162l.035-.193c-.1,0-.187,0-.272.01l-.13.01-.055-.091-.024-.024c-.006-.005-.04-.026-.053-.034a1.024,1.024,0,0,1-.092-.061l.189.206Zm2.11-.08.013,0a3.643,3.643,0,0,1,.59.213l.012.006,0-.012a4.74,4.74,0,0,1,.966-1.543l.02-.022h-.03a1.624,1.624,0,0,0-1.167.55l-.005.006a3.136,3.136,0,0,0-.4.786Zm-.292.1.044.009.062-.188a3.337,3.337,0,0,1,.427-.839l.017-.022a1.819,1.819,0,0,1,.908-.56l-.616.111.267-.232-.287-.182-.06.143-.094.227-.211-.126c-.053-.032-.1-.052-.135-.071l-.071-.036a1.368,1.368,0,0,0,.253.174l.174.093-.08.18c-.092.208-.187.413-.279.611-.1.216-.194.42-.281.618Zm-.738-.075h.015l-.03-.057c-.005-.01-.01-.018-.016-.027s-.026-.042-.039-.069l-.037-.073h0l-.249-.557c-.034-.076-.124-.281-.238-.568l-.05.011.059.142c.1.249.224.483.331.689.041.079.079.153.113.221Zm-3.363-.834.029.014a14.052,14.052,0,0,1,1.435.78l.012.008.01.011.01.01,0,0h.006c.149-.032.3-.061.445-.085l.022,0-.015-.017-.152-.167c-.276-.3-.589-.646-.927-.973l-.007-.007-.008.006a2.936,2.936,0,0,1-.833.413Zm3.528.69h.007c.127.01.256.03.38.05l.04.006,0-.009c.088-.2.182-.4.282-.62.092-.2.186-.4.278-.609l0-.01-.01-.005a1.551,1.551,0,0,1-.6-.574l-.015-.025L62.167,45c-.05.2-.1.387-.147.566-.124.474-.223.849-.258,1.061l0,.015-.01.022,0,0c.008.015.015.027.021.039l.012-.074c.035-.211.138-.6.258-1.061l0-.009.084-.323.049-.19.125.151a1.577,1.577,0,0,0,.392.341l.075.046-.036.08c-.079.175-.159.348-.236.516-.087.188-.17.367-.247.542l-.031.07-.076-.012c-.086-.014-.179-.027-.27-.036l-.08-.008.012.021Zm-.943-.994-.013.015a1.107,1.107,0,0,0-.321.723c0,.04.052.076.126.121a.452.452,0,0,1,.1.069l.015.014.017.015.008.013H60.8c.143-.011.3-.011.468-.011h.062l-.009-.018c-.034-.068-.071-.14-.11-.216-.109-.212-.232-.449-.339-.706Zm-1.494-.19c.315.309.6.628.863.911l.129.141a.246.246,0,0,1-.033-.124q0-.037,0-.075l-.186-.251c-.187-.253-.365-.518-.528-.786ZM62,46.562l.1.014c.069-.154.141-.31.217-.475.066-.142.133-.288.2-.436a1.778,1.778,0,0,1-.24-.2l-.038.145,0,.009C62.136,46.006,62.047,46.345,62,46.562Zm-8.129-.033.033.034.073-.061a4.63,4.63,0,0,1,1.31-.866,3.282,3.282,0,0,0,1.6-1.05.25.25,0,0,0,.016-.186l-.017.1a.309.309,0,0,1-.022.073,3.263,3.263,0,0,1-1.585,1.037,3.529,3.529,0,0,0-.94.561l-.152-.121q.025-.054.048-.11l.01-.023.019-.016c.17-.14.335-.294.494-.442a3.158,3.158,0,0,1,1.817-1.058l.035,0c.051-.005.12-.013.174-.015l.112,0c-.012-.018-.049-.021-.084-.021-.059,0-.14.009-.205.016l-.034,0a3.222,3.222,0,0,0-1.832,1.064c-.166.155-.337.314-.515.459l0,0A2.624,2.624,0,0,1,53.873,46.529ZM49.185,45.6l.012.012.151.154c.209.213.424.433.647.641a.561.561,0,0,1,.048.054.235.235,0,0,0,.125.1.575.575,0,0,0,.1.008c.251,0,.772-.107.853-.261a.1.1,0,0,0,.01-.028l-.066.059a1.641,1.641,0,0,1-.8.206.549.549,0,0,1-.1-.007l-.011,0a.225.225,0,0,1-.1-.085.583.583,0,0,0-.051-.057c-.222-.206-.437-.427-.645-.639l-.136-.139.1-.067a1.125,1.125,0,0,0,.334-.348l.065-.108.09.088a5.225,5.225,0,0,0,.641.5,2.892,2.892,0,0,1,.621.521l.053.071a.092.092,0,0,0-.017-.064,2.716,2.716,0,0,0-.642-.548,4.228,4.228,0,0,1-.743-.612l-.013-.015-.008.018a1.108,1.108,0,0,1-.511.541Zm4.254.552a.265.265,0,0,1,.211.1.584.584,0,0,1,.079.136,2.429,2.429,0,0,0,.311-.554l.02-.051.042-.035c.172-.14.341-.3.5-.45a4.478,4.478,0,0,1,1.322-.96c-.041.012-.081.025-.118.04a4.046,4.046,0,0,0-1.271.907,4.878,4.878,0,0,1-1.136.865Zm4.171.193c.117,0,.234,0,.347,0s.223,0,.33,0l.049-.027-.11-.052-.414-.193a1.246,1.246,0,0,1-.152-.007Zm-7.376-.006h.036a1.867,1.867,0,0,0,.572-.109,4.1,4.1,0,0,0-.5-.388,6.308,6.308,0,0,1-.578-.443,1.318,1.318,0,0,1-.229.238c.2.2.4.41.611.6a.76.76,0,0,1,.069.076Zm17.87-.258.057.03.322-.423a.665.665,0,0,0,.046-.071,1.934,1.934,0,0,1-.131.164,4.017,4.017,0,0,1-.306.309Zm-8.732-1.544,0,0a10.094,10.094,0,0,0,.933,1.527l.015.02.007-.024a1.455,1.455,0,0,1,.352-.594.175.175,0,0,1,.092-.051l.014,0-.005-.013a12.157,12.157,0,0,1-.564-1.861l0-.015-.014.007a1.652,1.652,0,0,0-.827,1Zm2.011-3.55a.626.626,0,0,0-.269.069.489.489,0,0,1-.086.033.691.691,0,0,0-.484.384c-.468.93.362,3.314.926,4.577l.014.032.009-.034c.043-.17.1-.371.163-.6.374-1.351,1-3.611.335-4.17A.992.992,0,0,0,61.383,40.985ZM56.289,45.47l.038,0,.059,0a.8.8,0,0,1,.1.01,2.655,2.655,0,0,1,.548.186,1.893,1.893,0,0,0,.783.206c.217-.007.961-.194,1.051-.4a.1.1,0,0,0-.017-.107,3.173,3.173,0,0,0-1.545-.927l-.01,0,0,.009a2.382,2.382,0,0,1-.973,1Zm12.66-.367a2.649,2.649,0,0,1-.307.7l-.027.035.714-.284a2.181,2.181,0,0,0,.322-.833,1.021,1.021,0,0,0-.6-1.174l-.02-.009,0,.022a5.035,5.035,0,0,1-.015,1.292L69,44.924l-.012.131c.021-.071.039-.137.054-.194a4.162,4.162,0,0,0,.034-1.087l-.015-.21.173.121a1,1,0,0,1,.393,1.037,2.125,2.125,0,0,1-.3.791l-.018.029-.6.236.1-.223a4.147,4.147,0,0,0,.158-.426Zm-20.1.421.017.013.236-.125a.911.911,0,0,0,.421-.443l.088-.205-.191.056a.745.745,0,0,0-.456.452Zm7.759-.921H56.6a2.812,2.812,0,0,0-1.6.911c.07-.033.142-.063.216-.09A3.777,3.777,0,0,0,56.612,44.6Zm8.019.836-.064.07a5.287,5.287,0,0,1,1.519-1.017,4.531,4.531,0,0,0-1.322.836l-.128.115Zm-17.068-.886,1.164.875-.1-.09a6.225,6.225,0,0,0-.647-.543l-.288-.2L48,44.438a1.188,1.188,0,0,1-.129-.1l.09.114-.376.045-.042.005-.082.01a.088.088,0,0,0,.025.044Zm21.729-.543a3.578,3.578,0,0,1-.054.9,5.311,5.311,0,0,1-.157.508l.094-.037a1.9,1.9,0,0,0,.255-.687A.867.867,0,0,0,69.291,44.009Zm-21.209.611.017.012a6.415,6.415,0,0,1,.668.56l.012.012.007-.016a.932.932,0,0,1,.581-.561l.017-.005-.011-.014c-.164-.211-.329-.44-.491-.68l-.007-.013-.085-.178-.006-.033-.016.026a.66.66,0,0,1-.491.342.787.787,0,0,1-.408-.069l-.042-.018.027.037a1.009,1.009,0,0,0,.262.25.192.192,0,0,1,.092.174.2.2,0,0,1-.107.163Zm16.249.509c.061,0,.122,0,.182.008a.2.2,0,0,1,.1.041l.008.006.007-.007a4.681,4.681,0,0,1,1.492-.915l.025-.009-.023-.013a.76.76,0,0,0-.379-.094,1.9,1.9,0,0,0-.748.2l-.008,0a10.085,10.085,0,0,0-1.051.787l-.033.029.044-.008A2.171,2.171,0,0,1,64.331,45.13Zm.953-1.248a8.2,8.2,0,0,0-1.7,1.3l.218-.189a10.289,10.289,0,0,1,1.075-.8l.029-.016a2.155,2.155,0,0,1,.8-.224Zm-2.994.554,0,0a1.562,1.562,0,0,0,.136.2,1.049,1.049,0,0,1,.106.156.418.418,0,0,0,.257.279c.042.02.09.043.151.079l.012.007.005-.013c.032-.077.063-.15.093-.222a4.366,4.366,0,0,0,.436-1.835V43.08h-.927v.011a5.445,5.445,0,0,1-.194,1.044c-.025.092-.05.188-.077.3Zm5-.179c.39.008,1.16.088,1.382.578a.607.607,0,0,1,.051.317c.029-.086.056-.173.078-.256l-.154-.216A1.706,1.706,0,0,0,67.291,44.256Zm.026-.2a1.83,1.83,0,0,1,1.494.507l.019.027,0-.033a1.734,1.734,0,0,0-.334-1.165l0,0h-.005a3.526,3.526,0,0,0-.542-.039,5.115,5.115,0,0,0-1.994.412l-.036.017.039.006a1.023,1.023,0,0,1,.6.308l.009.009.006.011,0,.006,0,.006.008,0A3.894,3.894,0,0,1,67.317,44.056Zm-8.6-2.133v.006a5.166,5.166,0,0,0,.431,2.1l.01.024.012-.023a1.893,1.893,0,0,1,.867-.848.2.2,0,0,1,.1-.016h.015l0-.015a3.6,3.6,0,0,1,.029-1.472l0-.009-.009,0a.927.927,0,0,0-.448-.112,1.911,1.911,0,0,0-1,.368Zm9.206,1.216a5.212,5.212,0,0,0-1.875.363l-.005,0a5.516,5.516,0,0,1,1.908-.357,3.783,3.783,0,0,1,.533.036l-.059-.011A3.649,3.649,0,0,0,67.922,43.139Zm-5.314-.366h.878v-.013a3.039,3.039,0,0,0-.308-1.116,6.658,6.658,0,0,0-.421-.7l-.01-.014-.01.013a.86.86,0,0,1-.274.259l-.011.005.005.011a3.013,3.013,0,0,1,.153,1.542Zm-3.224-2.811a2.36,2.36,0,0,0-.861,2.367,4.024,4.024,0,0,1-.007-.406l0-.111.085-.055-.11.057.084-.431a2.953,2.953,0,0,1,.251-.76A2.24,2.24,0,0,1,59.384,39.962Zm.226.076-.005,0a2.131,2.131,0,0,0-.6.669,2.756,2.756,0,0,0-.234.709l0,.025.022-.012a1.661,1.661,0,0,1,1.519-.126l.01,0,.006-.01a1.193,1.193,0,0,1,.381-.4l.009-.006-.005-.01,0-.007-.007-.01,0-.012a2.284,2.284,0,0,1-.078-.262c-.065-.258-.112-.444-.56-.6a.953.953,0,0,0-.247.023c-.079.013-.137.022-.172.023h-.018Zm3.233.682.076.109a6.307,6.307,0,0,1,.359.582,3.962,3.962,0,0,0-.431-.693Zm-1.076.161a1.741,1.741,0,0,1,.352.237.783.783,0,0,1,.145.163l-.077-.162.15-.077a.6.6,0,0,1-.073.024l-.105.028-.084-.07A.678.678,0,0,0,61.767,40.881Zm-.2-.219a.958.958,0,0,1,.639.207l0,0,.006,0a.367.367,0,0,0,.218-.156.193.193,0,0,1,.081-.065l.015-.007-.01-.012a2.475,2.475,0,0,0-1.278-.891,2.09,2.09,0,0,0-.908,0l-.033.007.029.016a1.885,1.885,0,0,1,.733.97l0,.01.011,0,.036-.012a.385.385,0,0,1,.049-.015A1.928,1.928,0,0,1,61.563,40.663Zm-.841,26.266a.66.66,0,0,1-.352-.1.476.476,0,0,1-.124-.113l-.06-.075.072-.063a2.69,2.69,0,0,0,.256-.259l.076-.087.075.088a3.691,3.691,0,0,0,.383.387l.134.116-.168.055A.944.944,0,0,1,60.723,66.929Zm1.474-.1a.873.873,0,0,1-.386-.115,2.875,2.875,0,0,1-.911-.79l-.044-.056.039-.06c.043-.067.083-.131.119-.191a5.833,5.833,0,0,0,.448-.894l.09-.239.1.237a5.841,5.841,0,0,0,.927,1.651l.036.041-.016.053C62.524,66.7,62.39,66.824,62.2,66.824Zm-1.1-.973a2.629,2.629,0,0,0,.8.681.7.7,0,0,0,.294.092c.042,0,.126,0,.189-.169a5.762,5.762,0,0,1-.831-1.44,6.752,6.752,0,0,1-.37.7C61.159,65.758,61.131,65.8,61.1,65.851Zm2.565.722c-.264,0-.861-.537-.972-.748-.057-.109-.119-.221-.184-.34a4.845,4.845,0,0,1-.661-1.646,7.848,7.848,0,0,1-.071-1.4l.2-.021c.02.072.041.143.063.216l.051.172a7.761,7.761,0,0,0,.641,1.678,1.645,1.645,0,0,0,.429.427,2.024,2.024,0,0,1,.414.391c.177.248.377.994.181,1.239l-.024.03-.038.006Zm-1.683-3.425q.019.306.064.665a4.694,4.694,0,0,0,.637,1.572c.067.122.13.235.188.346a2.191,2.191,0,0,0,.749.631,1.567,1.567,0,0,0-.21-.951,1.883,1.883,0,0,0-.375-.349,1.79,1.79,0,0,1-.479-.484A6.789,6.789,0,0,1,61.984,63.148ZM64.1,65.014c-.353,0-.753-.4-.936-.662a3.719,3.719,0,0,1-.435-1.006l-.037-.116L62.616,63a10,10,0,0,1-.318-1.105.987.987,0,0,1,.115-.749.382.382,0,0,1,.377-.13c.411.061.63.5.693.864l0,.022,0,.027a1.9,1.9,0,0,0,.4,2.105.25.25,0,0,0,.16.06.2.2,0,0,0,.181-.105l.123-.212.1-.182.076.2a.994.994,0,0,1-.061,1.036A.461.461,0,0,1,64.1,65.014Zm-1.392-3.8a.165.165,0,0,0-.14.062.815.815,0,0,0-.074.582,9.85,9.85,0,0,0,.312,1.083l.076.231.038.116a3.572,3.572,0,0,0,.41.954c.164.239.512.575.771.575a.264.264,0,0,0,.211-.114.693.693,0,0,0,.1-.628l-.011.018a.4.4,0,0,1-.354.2.45.45,0,0,1-.288-.107,2.077,2.077,0,0,1-.47-2.284c-.056-.313-.24-.648-.523-.69A.361.361,0,0,0,62.708,61.21Zm-7.08,2.762c-.162,0-.287-.108-.381-.331l-.012-.028.006-.03a2.512,2.512,0,0,1,.732-1.136l.1-.082.052.121c.043.1.085.195.129.285a.761.761,0,0,0,.5.476l.3.051-.271.137c-.14.071-.282.136-.42.2l-.21.1-.01.006A1.007,1.007,0,0,1,55.628,63.972Zm-.184-.381c.083.181.156.181.184.181a.943.943,0,0,0,.406-.2l.035-.021.217-.1.207-.1a1.131,1.131,0,0,1-.416-.5c-.026-.054-.052-.109-.077-.166A2.373,2.373,0,0,0,55.443,63.591Zm8.541-.058-.09-.154a1.92,1.92,0,0,1-.079-1.392l.074-.329c.184-.776.357-1.508-.248-2.107a.2.2,0,0,0-.146-.064.24.24,0,0,0-.211.147.2.2,0,0,0,.049.224,1.226,1.226,0,0,1,.344,1.035l-.015.232-.158-.17a1.286,1.286,0,0,0-.4-.29.922.922,0,0,0-.392-.088.849.849,0,0,0-.454.128l-.2.126.07-.33c.02-.092.039-.182.058-.273a13.913,13.913,0,0,0,.227-2.353l.007-.179a18.856,18.856,0,0,1,.187-1.99l.039-.261.144.221a18.247,18.247,0,0,1,1.568,3.025,4.738,4.738,0,0,1,.026,4.034l-.2.418c-.042.082-.082.158-.121.231ZM63.5,59.287a.4.4,0,0,1,.287.122,2.222,2.222,0,0,1,.3,2.295l-.009.037-.065.289a2.071,2.071,0,0,0-.024,1.071l.024-.046.2-.414a4.551,4.551,0,0,0-.029-3.873A18.4,18.4,0,0,0,62.773,56c-.074.553-.123,1.124-.147,1.7l-.007.179a14.064,14.064,0,0,1-.231,2.386l-.036.172a1.119,1.119,0,0,1,.843.043,1.467,1.467,0,0,1,.285.176.955.955,0,0,0-.286-.66.4.4,0,0,1-.093-.443A.441.441,0,0,1,63.5,59.287ZM61.42,63.3l-.15-.119a1.287,1.287,0,0,0-.571-.245l-.1-.016.021-.1c.024-.118.047-.221.071-.314a.2.2,0,0,0-.034-.18.232.232,0,0,0-.132-.082l-.111-.025.039-.107a1.009,1.009,0,0,0,.015-.8c-.109-.219-.334-.28-.672-.173l-.142.045.013-.149a.241.241,0,0,0-.023-.127.188.188,0,0,0-.132-.1,2.428,2.428,0,0,0-1.3.005l-.161.049.034-.164a2.235,2.235,0,0,1,.282-.737,5.014,5.014,0,0,1,1.46-1.342,8.58,8.58,0,0,0,.941-.731.193.193,0,0,0,.053-.219.241.241,0,0,0-.215-.15.207.207,0,0,0-.145.061,9.177,9.177,0,0,1-.932.732,4.334,4.334,0,0,0-1.8,1.925,4.839,4.839,0,0,0-.187,1.14c-.006.068-.011.133-.017.2a2.691,2.691,0,0,1-.257,1c-.082.163-.171.245-.264.245-.32,0-.639-.969-.707-1.229a6.871,6.871,0,0,1-.286-2.173,4.264,4.264,0,0,1,1.294-2.412l.2-.241a5.7,5.7,0,0,0,1.734-3.423l.008-.508.085-.011c.312-.041.53-.064.586-.068.185-.015.373-.028.555-.04.159-.011.317-.021.475-.034s.329-.037.492-.061c.129-.019.251-.037.372-.05l.045,0a3.926,3.926,0,0,1,.966.148l.1.031-.036.1a16.43,16.43,0,0,0-.888,4.567l0,.044c-.084,1.143-.2,2.122-.372,3.332-.093.671-.172,1.854-.2,2.331Zm-.588-.541a1.564,1.564,0,0,1,.411.164c.036-.551.108-1.565.192-2.172.166-1.206.286-2.181.37-3.319l0-.044a16.8,16.8,0,0,1,.863-4.521,3.927,3.927,0,0,0-.808-.11h-.022c-.116.012-.236.03-.363.049-.167.025-.339.05-.506.063s-.318.023-.477.034c-.181.012-.369.025-.552.04-.05,0-.228.022-.49.056l-.006.338a5.855,5.855,0,0,1-1.78,3.545l-.206.243a4.118,4.118,0,0,0-1.246,2.295,6.692,6.692,0,0,0,.28,2.11A2.542,2.542,0,0,0,57,62.6a.426.426,0,0,0,.091-.132,2.5,2.5,0,0,0,.236-.928c.006-.065.011-.13.016-.193a5.008,5.008,0,0,1,.2-1.189,4.474,4.474,0,0,1,1.869-2.025,9.04,9.04,0,0,0,.912-.715A.406.406,0,0,1,60.6,57.3a.442.442,0,0,1,.4.276.394.394,0,0,1-.1.438,8.725,8.725,0,0,1-.963.749,4.874,4.874,0,0,0-1.4,1.283,1.957,1.957,0,0,0-.219.514,2.729,2.729,0,0,1,1.234.034.387.387,0,0,1,.267.208.425.425,0,0,1,.034.1,1.045,1.045,0,0,1,.231-.028.594.594,0,0,1,.56.335,1.145,1.145,0,0,1,.025.868.424.424,0,0,1,.142.116.4.4,0,0,1,.071.352C60.864,62.612,60.848,62.68,60.832,62.755Zm-3.068.042-.144-.134a1.978,1.978,0,0,0,.282-.649,5.78,5.78,0,0,0,.084-.6l.006-.058.062-.028a2.359,2.359,0,0,1,.875-.287c.148,0,.192.063.2.115C59.229,61.626,58.208,62.46,57.764,62.8Zm.414-1.306a5.637,5.637,0,0,1-.081.563,1.748,1.748,0,0,1-.089.293c.626-.524.914-.917.929-1.1h-.009A2.152,2.152,0,0,0,58.179,61.491Zm.17-6.7-.056-.316c-.022-.123-.037-.247-.052-.367A2.555,2.555,0,0,0,58,53.162l-.062-.11.121-.035a2.965,2.965,0,0,1,.444-.086l.191-.028.119-.018-.025.716a4.5,4.5,0,0,1-.305.9Zm-.117-1.609a3.042,3.042,0,0,1,.208.9,4.13,4.13,0,0,0,.151-.512l.015-.448-.073.011C58.4,53.149,58.314,53.162,58.231,53.18Zm-1.285-.123-.054-.139a.635.635,0,0,1-.041-.255l0-.084.083-.012a4.825,4.825,0,0,1,.486-.049l.041.193a1.319,1.319,0,0,0-.411.243Zm6.6-.515-.152-.112a2.144,2.144,0,0,0-.892-.3l-.06-.007-.021-.056a2.825,2.825,0,0,0-.533-.913l-.194-.212.284.046a7.692,7.692,0,0,1,.892.194,2.247,2.247,0,0,1,.372.143l.035.017.014.036c.021.054.045.109.07.167a1.724,1.724,0,0,1,.208.828Zm-.96-.6a2.377,2.377,0,0,1,.78.242,2.431,2.431,0,0,0-.189-.558c-.02-.048-.04-.093-.058-.137a2.029,2.029,0,0,0-.3-.114c-.193-.055-.393-.1-.607-.143A3.268,3.268,0,0,1,62.587,51.94Zm-4.038.5-.035-.029a1.74,1.74,0,0,0-.342-.193,2.574,2.574,0,0,0-.7-.137,2.017,2.017,0,0,0-.232.016l-.216.024.122-.18a2.446,2.446,0,0,1,.986-.9l.027-.01.028.006c.067.015.346.08.474.121a2.092,2.092,0,0,1,1.235.991l.1.145-.175.011c-.469.031-.872.072-1.23.126Zm-1.074-.558a2.736,2.736,0,0,1,.758.146,2.024,2.024,0,0,1,.373.2c.307-.045.644-.081,1.027-.11a1.787,1.787,0,0,0-1.029-.77c-.1-.032-.317-.084-.428-.11a2.012,2.012,0,0,0-.737.642Zm3.019.378-.036-.058a2.982,2.982,0,0,0-1.3-1.188l.036-.19c.115-.007.241-.011.373-.011.105,0,.22,0,.352.007l.67.03.094.006.074,0,.016.007a4,4,0,0,1,.589.316,1.134,1.134,0,0,1,.52.687l.039.107.047.127-.135.007c-.279.015-.563.052-.837.087-.145.019-.295.038-.441.054Zm-.919-1.247A3.21,3.21,0,0,1,60.6,52.046c.124-.014.25-.03.373-.046.235-.03.476-.061.718-.08a.932.932,0,0,0-.443-.576,3.83,3.83,0,0,0-.535-.287l-.038,0-.092-.006-.669-.03C59.787,51.014,59.677,51.012,59.575,51.012ZM47.9,51.907l-.081-.183c.031-.015.064-.029.1-.042l.009,0a.2.2,0,0,0,.1-.212.246.246,0,0,0-.212-.191c-.051-.006-.105-.014-.166-.025l-.181-.033.127-.134a1.163,1.163,0,0,0,.415-.726l.011-.152.135.07a3.385,3.385,0,0,0,.674.259l.1.026-.027.1a3.184,3.184,0,0,0-.159.881v.074l-.071.022C48.412,51.714,48.16,51.8,47.9,51.907Zm-.033-.827a.449.449,0,0,1,.356.345.391.391,0,0,1,0,.146c.105-.037.21-.072.316-.106a3.234,3.234,0,0,1,.138-.766,3.627,3.627,0,0,1-.492-.185A1.266,1.266,0,0,1,47.868,51.08Zm1.552.354.024-.144a2.951,2.951,0,0,0,.03-.522v-.111l.111.01c.161.015.328.023.5.023a6.222,6.222,0,0,0,1.04-.09l.018,0,.018,0a2.843,2.843,0,0,0,.314.025h.011c.029,0,.056,0,.081,0,.283,0,.4.132.572.332l.128.147-.174.032a8.946,8.946,0,0,1-1.15.108,8.415,8.415,0,0,0-1.376.165Zm.255-.559c0,.1,0,.2-.015.307a8.585,8.585,0,0,1,1.271-.142,9.461,9.461,0,0,0,.943-.077.377.377,0,0,0-.312-.141l-.064,0h-.03a3.252,3.252,0,0,1-.331-.025A6.235,6.235,0,0,1,49.674,50.875Zm3.07.1L52.7,50.93a2.88,2.88,0,0,0-.491-.448l-.157-.11.18-.066c.161-.059.312-.121.449-.187.066-.032.133-.068.211-.114l.018-.011.021,0a.572.572,0,0,1,.138-.018c.242,0,.436.184.547.517l.025.076-.068.041a3.663,3.663,0,0,1-.767.351Zm-.273-.55a3.239,3.239,0,0,1,.334.319,3.454,3.454,0,0,0,.593-.269c-.057-.138-.161-.305-.329-.305a.359.359,0,0,0-.086.011h0c-.076.045-.144.081-.211.113C52.675,50.344,52.576,50.387,52.471,50.429Zm5.045.531-.058-.045a.606.606,0,0,0-.382-.119v0h-.039a.913.913,0,0,0-.105,0l-.126.015.015-.126a1.408,1.408,0,0,1,.995-1.084l.022-.009.024,0a2.619,2.619,0,0,1,1.519.629l.188.161-.247.015a3.353,3.353,0,0,0-1.744.517Zm-.441-.364h0a.835.835,0,0,1,.445.119,3.358,3.358,0,0,1,1.528-.493A2.414,2.414,0,0,0,57.87,49.8a1.289,1.289,0,0,0-.83.8Zm5.269-.007-.289-.045c-.443-.068-.9-.1-1.335-.123l-.128-.008c-.15-.009-.287-.016-.419-.02l-.046,0-.029-.036a3.145,3.145,0,0,0-1.1-.893l-.255-.124.276-.064a4.866,4.866,0,0,1,.744-.131c.129-.009.471.019.6.03l.021,0a4.212,4.212,0,0,1,1.765,1.2ZM60.226,50.2c.12,0,.245.011.379.019l.128.008c.348.021.706.043,1.062.085a3.744,3.744,0,0,0-1.465-.935c-.107-.009-.436-.037-.556-.029a3.34,3.34,0,0,0-.45.068A3.359,3.359,0,0,1,60.226,50.2Zm-6.214.1-.057-.12a1.194,1.194,0,0,0-.42-.5l-.106-.068.09-.088a5.26,5.26,0,0,0,.46-.524L54,48.972l.033-.009A1.774,1.774,0,0,1,55,48.924l.151.035-.095.123c-.13.168-.253.333-.357.472a4.335,4.335,0,0,1-.593.655Zm-.271-.717a1.4,1.4,0,0,1,.331.392,4.226,4.226,0,0,0,.472-.538c.077-.1.166-.222.26-.346a1.582,1.582,0,0,0-.687.057A5.74,5.74,0,0,1,53.741,49.581Zm10.39-.093-1.115-.456-.009-.055a1.261,1.261,0,0,0-.208-.488,3.269,3.269,0,0,0-1.111-1.165l.05-.187.094,0a2.831,2.831,0,0,1,2.147.986,1.49,1.49,0,0,1,.18,1.253Zm-.939-.6.8.326a1.261,1.261,0,0,0-.177-.978,2.45,2.45,0,0,0-1.7-.866,4.4,4.4,0,0,1,.844,1A1.5,1.5,0,0,1,63.192,48.889Zm-5.955.54-.047-.089a.818.818,0,0,1-.093-.591,1.267,1.267,0,0,1,.643-.721l.026-.015h.04A1.407,1.407,0,0,1,57.961,48a1.837,1.837,0,0,1,1.274.659l.139.141-.2.028a6.456,6.456,0,0,0-1.362.329l-.269.112c-.069.032-.146.068-.22.108Zm.584-1.216a1.063,1.063,0,0,0-.53.584.579.579,0,0,0,.035.36l.139-.066.276-.115a6.37,6.37,0,0,1,1.208-.311,1.493,1.493,0,0,0-.989-.461,1.2,1.2,0,0,0-.131.007Zm4.732.705-.194-.035a9.563,9.563,0,0,0-1.322-.146c-.35-.012-.724-.007-1.081.016l-.048,0-.032-.036a4.1,4.1,0,0,0-1.117-.959l-.2-.1.215-.079a5.256,5.256,0,0,1,1.72-.4,3.3,3.3,0,0,1,1.977,1.559Zm-1.888-.388c.128,0,.256,0,.38.006a9.67,9.67,0,0,1,1.142.114,3.12,3.12,0,0,0-1.708-1.27,4.607,4.607,0,0,0-1.436.312,4.726,4.726,0,0,1,.95.857C60.214,48.536,60.44,48.53,60.665,48.53Zm-5.253.113-.076-.061a.214.214,0,0,0-.072-.038,2.227,2.227,0,0,0-.659-.1l-.224,0,.113-.16a5.99,5.99,0,0,1,.722-.878l.025-.024.035,0a5.073,5.073,0,0,0,.615-.154,1.944,1.944,0,0,1,.591-.16.76.76,0,0,1,.413.147l.154.094-.161.081a4.6,4.6,0,0,0-1.412,1.181Zm-.646-.394a2.43,2.43,0,0,1,.557.1.432.432,0,0,1,.056.022A4.933,4.933,0,0,1,56.631,47.3a.367.367,0,0,0-.149-.033,1.886,1.886,0,0,0-.523.148,5.762,5.762,0,0,1-.627.161A5.356,5.356,0,0,0,54.766,48.249Zm10.892.1a1.669,1.669,0,0,1-.276-.035l-.028-.005a.719.719,0,0,1-.436-.194l-.128-.122.171-.046a6.982,6.982,0,0,0,1.188-.458l.077-.037.048.071a.922.922,0,0,0,.3.279l.144.083-.141.088c-.183.115-.356.214-.528.3l-.015.008-.017,0a1.678,1.678,0,0,0-.225.044A.474.474,0,0,1,65.659,48.347Zm-.43-.273a1.293,1.293,0,0,0,.161.036l.028.005a1.578,1.578,0,0,0,.24.032.289.289,0,0,0,.085-.015,1.837,1.837,0,0,1,.232-.046c.121-.062.242-.129.367-.2a1.12,1.12,0,0,1-.181-.18A7.555,7.555,0,0,1,65.229,48.074Zm-1.142-.429-.031-.032a2.311,2.311,0,0,0-.33-.288l-.062-.044.026-.071A4.687,4.687,0,0,1,66.4,44.6a2.45,2.45,0,0,1,.821-.124c.636,0,1.126.175,1.249.447.085.188,0,.431-.237.7a6.779,6.779,0,0,1-4.1,2.014Zm-.182-.437a2.531,2.531,0,0,1,.265.235A6.689,6.689,0,0,0,68.081,45.5c.105-.119.272-.341.2-.489-.074-.164-.464-.329-1.067-.329a2.246,2.246,0,0,0-.749.111A4.509,4.509,0,0,0,63.9,47.208Zm-6.376-.062-.041-.038a1.468,1.468,0,0,0-.534-.325l.023-.194c.218-.021.426-.023.583-.023.133,0,.266,0,.394,0,.113,0,.224,0,.333,0a.21.21,0,0,0,.059-.008l.039-.011.036.019c.182.1.371.2.576.323l.2.117-.221.065-.136.041-.036.011-.035-.016a1.683,1.683,0,0,0-.5-.083,1.34,1.34,0,0,0-.556.062l-.125.036Zm-.153-.378a1.8,1.8,0,0,1,.206.156l.067-.02a1.36,1.36,0,0,1,.48-.073l.142,0c.033,0,.132.006.245.02l-.156-.085a.42.42,0,0,1-.074.006c-.111,0-.223,0-.337,0s-.259,0-.39,0Zm5.9.3-.094-.04a3.689,3.689,0,0,0-.373-.135l-.1-.031.039-.1A3.214,3.214,0,0,1,63.1,46.1l.009-.011a1.57,1.57,0,0,1,.848-.5l.281-.061-.183.222a4.665,4.665,0,0,0-.739,1.223Zm-.3-.333q.1.033.2.071a4.741,4.741,0,0,1,.526-.917,1.447,1.447,0,0,0-.434.33A3.106,3.106,0,0,0,62.969,46.736Zm-3.172.138-.034-.021c-.411-.253-.815-.479-1.2-.669l-.2-.1.2-.084a3.08,3.08,0,0,0,.516-.276l.067-.045.058.057c.312.307.6.626.86.907l.136.149-.176.033-.193.038Zm-.96-.775c.309.159.627.338.95.534-.2-.223-.427-.463-.662-.7Q58.983,46.026,58.837,46.1Zm1.964.619-.032-.035a.492.492,0,0,0-.1-.071c-.028-.017-.055-.034-.075-.049l-.042-.032,0-.052a.989.989,0,0,1,.2-.524l.1-.144.073.16c.087.192.181.374.264.535l.1.2h-.163c-.112,0-.2,0-.28.008Zm-.5-.694-.1-.141a10.086,10.086,0,0,1-.788-1.312l-.019-.038.014-.04a1.632,1.632,0,0,1,.663-.863l.12-.075.031.138a12.36,12.36,0,0,0,.5,1.621l.026.07-.06.045a.206.206,0,0,0-.025.022,1.53,1.53,0,0,0-.287.415Zm-.689-1.5a9.857,9.857,0,0,0,.66,1.113,1.774,1.774,0,0,1,.237-.312,12.776,12.776,0,0,1-.447-1.439A1.463,1.463,0,0,0,59.616,44.519Zm1.859,1.487-.112-.267c-.314-.746-1.3-3.259-.8-4.259a.667.667,0,0,1,.468-.371h0a.5.5,0,0,0,.091-.034.606.606,0,0,1,.259-.067.983.983,0,0,1,.592.281c.6.507.139,2.405-.343,4.145l0,.006-.079.287Zm-.4-4.7a.464.464,0,0,0-.332.266c-.347.689.135,2.429.692,3.821v-.005l0-.006c.312-1.127.961-3.472.407-3.939a.817.817,0,0,0-.463-.234.415.415,0,0,0-.178.049.667.667,0,0,1-.129.047Zm-3.286,4.55a1.926,1.926,0,0,1-.741-.2,3.5,3.5,0,0,0-.435-.161l-.2-.055.171-.123a2.343,2.343,0,0,0,.693-.768l.039-.071.077.023a3.109,3.109,0,0,1,1.435.882l.053.061-.049.064a2.1,2.1,0,0,1-1.01.349Zm-.938-.5c.093.034.184.072.273.11a1.712,1.712,0,0,0,.689.188,2.462,2.462,0,0,0,.788-.224,3,3,0,0,0-1.193-.718A2.511,2.511,0,0,1,56.852,45.357Zm-8.085-.2-.092-.084c-.165-.151-.314-.276-.455-.383l-.074-.056.051-.078a.221.221,0,0,0,.035-.107.212.212,0,0,0-.073-.173l-.184-.166.248-.008.056,0a.631.631,0,0,0,.4-.212l.1-.109.078.161c.133.2.269.389.4.567l.073.1-.108.053a.957.957,0,0,0-.4.395Zm-.361-.577c.1.079.205.166.316.265a1.146,1.146,0,0,1,.315-.311c-.1-.136-.2-.278-.3-.424a.808.808,0,0,1-.335.169.411.411,0,0,1,.031.181A.42.42,0,0,1,48.406,44.581Zm16.221.566-.056-.021a.208.208,0,0,0-.056-.013c-.061-.005-.124-.008-.186-.008l-.325,0,.231-.183c.219-.173.468-.352.761-.548l.014-.008a1.871,1.871,0,0,1,.734-.2h.033l.038.191a4.79,4.79,0,0,0-1.144.746Zm-1.683-.024-.1-.048-.045-.022a.4.4,0,0,1-.246-.266,1.115,1.115,0,0,0-.11-.162c-.038-.052-.082-.109-.11-.155l-.022-.036.01-.041c.022-.09.044-.172.066-.252a5.477,5.477,0,0,0,.185-.948l.01-.089h.88l-.006.105a4.322,4.322,0,0,1-.429,1.708ZM62.53,44.4c.023.033.051.072.078.106a1.082,1.082,0,0,1,.134.2c.039.093.051.113.1.14l0-.01a4.164,4.164,0,0,0,.407-1.535h-.489a5.643,5.643,0,0,1-.18.889C62.567,44.26,62.549,44.327,62.53,44.4Zm6.3.1-.18-.137a2.374,2.374,0,0,0-1.332-.332,4,4,0,0,0-.668.054l-.051.009-.037-.036a1.062,1.062,0,0,0-.306-.213l-.225-.1.233-.082a5.261,5.261,0,0,1,1.685-.288,3.58,3.58,0,0,1,.489.032l.044.006.025.037a1.744,1.744,0,0,1,.3.828Zm-1.512-.669a2.829,2.829,0,0,1,1.259.25,1.591,1.591,0,0,0-.209-.485,4.867,4.867,0,0,0-1.825.185,1.284,1.284,0,0,1,.123.1A4.278,4.278,0,0,1,67.317,43.832Zm-8.164.155-.068-.184a5.019,5.019,0,0,1-.348-1.812v-.054l.046-.029a1.825,1.825,0,0,1,.937-.332.912.912,0,0,1,.35.068l.078.032-.019.083a3.645,3.645,0,0,0-.024,1.284l.011.08-.076.027-.017.007a1.867,1.867,0,0,0-.763.666Zm-.216-1.937a4.719,4.719,0,0,0,.273,1.508A2.036,2.036,0,0,1,59.9,43a3.892,3.892,0,0,1,.018-1.194A1.282,1.282,0,0,0,58.938,42.049Zm4.524.7h-.826l.007-.107a3.08,3.08,0,0,0-.126-1.349l-.029-.071.061-.046a.838.838,0,0,0,.114-.106l.087-.095.07.108c.1.16.214.348.335.573a2.9,2.9,0,0,1,.292.981Zm-.613-.2h.385a2.654,2.654,0,0,0-.254-.8c-.083-.156-.161-.292-.235-.414A3.375,3.375,0,0,1,62.848,42.549ZM58.8,41.4l.054-.2a2.573,2.573,0,0,1,.179-.474,2.108,2.108,0,0,1,.557-.636l.025-.019.032,0c.04,0,.1-.012.172-.023a1.789,1.789,0,0,1,.211-.026h.018l.017.006a.664.664,0,0,1,.535.576c.017.066.035.14.062.219l.023.068-.057.044a1.214,1.214,0,0,0-.268.282l-.045.066-.075-.03a1.618,1.618,0,0,0-1.249.068Zm.889-1.132a1.87,1.87,0,0,0-.477.548,2.28,2.28,0,0,0-.1.246,1.756,1.756,0,0,1,1.132-.023,1.412,1.412,0,0,1,.21-.22c-.018-.061-.032-.117-.045-.168-.056-.224-.08-.32-.388-.43-.042,0-.116.015-.166.023S59.732,40.259,59.687,40.263Zm2.534.587-.049-.035a1.242,1.242,0,0,0-1.015-.13l-.08.017-.033-.075a2.1,2.1,0,0,0-.489-.733l-.171-.155.23-.019a1.984,1.984,0,0,1,.618.045,2.369,2.369,0,0,1,1.188.793l.057.064-.055.066-.011.014a.357.357,0,0,1-.137.122Zm-.657-.412a1.269,1.269,0,0,1,.6.138,2.064,2.064,0,0,0-.979-.616,1.71,1.71,0,0,0-.335-.045,2.5,2.5,0,0,1,.344.559A2.064,2.064,0,0,1,61.563,40.438Z" transform="translate(-44.344 -38.96)"/></g></g></g></svg>