<svg xmlns="http://www.w3.org/2000/svg" width="110" height="34" viewBox="0 0 110 34"><g transform="translate(13324 18070)"><rect width="110" height="34" transform="translate(-13324 -18070)" fill="none"/><g transform="translate(-13463.6 -17457.434)"><path d="M155.157-612.527a17.679,17.679,0,0,0-4.471,1.086,17.027,17.027,0,0,0-5.866,3.832,17.2,17.2,0,0,0-5.09,9.82,19.257,19.257,0,0,0,0,4.457,17.058,17.058,0,0,0,4.816,9.547,17.239,17.239,0,0,0,9.82,5.09,19.24,19.24,0,0,0,4.457,0,17.293,17.293,0,0,0,8.051-3.479,22.134,22.134,0,0,0,2.9-2.854,17.741,17.741,0,0,0,3.458-7.081,13.315,13.315,0,0,0,.359-3.451,13.839,13.839,0,0,0-.5-3.99,17.079,17.079,0,0,0-4.788-8.123,16.99,16.99,0,0,0-4.421-3.156,17.011,17.011,0,0,0-5.011-1.589A20.913,20.913,0,0,0,155.157-612.527Zm-4.407,9.878a3.2,3.2,0,0,1,1.538,3.357,3.391,3.391,0,0,1-.949,1.891,2.076,2.076,0,0,1-3.307-.546,3.219,3.219,0,0,1-.482-2.042,2.9,2.9,0,0,1,1.165-2.408,1.71,1.71,0,0,1,1.229-.417A1.689,1.689,0,0,1,150.75-602.649Zm13.206-.057a2.924,2.924,0,0,1,1.6,1.927,4.481,4.481,0,0,1-.043,2.07,2.31,2.31,0,0,1-3.1,1.711c-2.1-1.078-2.042-4.709.086-5.679A2.2,2.2,0,0,1,163.956-602.707Zm-13.673,11.495a9.524,9.524,0,0,0,4.263,2.674,5.9,5.9,0,0,0,2.049.194,5.937,5.937,0,0,0,2.027-.187,8.765,8.765,0,0,0,4.069-2.48l.884-.884.748.589a8.063,8.063,0,0,1,.755.625,10.01,10.01,0,0,1-1.294,1.6,11.969,11.969,0,0,1-2.006,1.581c-.28.151-.288.173-.331.633-.208,2.416-.589,3.379-1.488,3.839a2.232,2.232,0,0,1-1.833.05,3,3,0,0,1-1.531-2.725v-.345l-.661-.043a10.167,10.167,0,0,1-7.57-4.205c-.144-.208-.244-.4-.216-.431.072-.079,1.438-1.15,1.467-1.157A9.14,9.14,0,0,1,150.283-591.212Z" transform="translate(0 0)"/></g><text transform="translate(-13282 -18046)" font-size="23" font-family="Helvetica-Bold, Helvetica" font-weight="700"><tspan x="0" y="0">NSFW</tspan></text></g></svg>