<svg xmlns="http://www.w3.org/2000/svg" width="111" height="34.002" viewBox="0 0 111 34.002"><g transform="translate(13336 18068)"><rect width="110" height="34" transform="translate(-13336 -18068)" fill="none"/><text transform="translate(-13292 -18044)" font-size="23" font-family="Helvetica-Bold, Helvetica" font-weight="700"><tspan x="0" y="0">PG-13</tspan></text><g transform="translate(-13570.152 -17550.355)"><path d="M248.6-517.506a16.707,16.707,0,0,0-9.4,4.778,16.637,16.637,0,0,0-5.03,12.81,16.76,16.76,0,0,0,5.8,12.114,17.4,17.4,0,0,0,8.056,3.938,21.62,21.62,0,0,0,6.639-.072,17.043,17.043,0,0,0,9.353-5.487,17.289,17.289,0,0,0,3.938-8.056,23.173,23.173,0,0,0,0-6.315,17.288,17.288,0,0,0-3.938-8.056,17.105,17.105,0,0,0-9.293-5.475A21.881,21.881,0,0,0,248.6-517.506Zm6.075,3.1a14.341,14.341,0,0,1,10.4,10.709,20.132,20.132,0,0,1,0,6.123,14.341,14.341,0,0,1-10.4,10.709,16.668,16.668,0,0,1-5.883.228,14.249,14.249,0,0,1-11.6-11.526,17.7,17.7,0,0,1,0-4.91,13.877,13.877,0,0,1,3.962-7.588,14.314,14.314,0,0,1,7.468-3.962A18.628,18.628,0,0,1,254.676-514.409Z" transform="translate(0 0)"/><path d="M296.864-443.124l-.864.864,1.021,1.021a7.356,7.356,0,0,1,1.021,1.141,7.58,7.58,0,0,1-.984,1.1l-1,1,.9.9.9.9,1.045-1.045,1.057-1.056,1.057,1.056,1.045,1.045.9-.9.9-.9-1.057-1.045-1.045-1.056,1.045-1.045,1.057-1.057-.9-.9-.9-.9-1.045,1.044-1.057,1.057-1.057-1.057c-.576-.576-1.081-1.044-1.1-1.044A9.975,9.975,0,0,0,296.864-443.124Z" transform="translate(-54.422 -64.802)"/><path d="M391.4-443.539l-.9.9,1.056,1.057,1.045,1.045-1.045,1.057-1.056,1.044.924.912.912.924,1.033-1.068,1.033-1.069,1.057,1.057,1.044,1.044.9-.9.9-.9-1-1a7.579,7.579,0,0,1-.984-1.1,8.345,8.345,0,0,1,1.033-1.117l1.044-1.008-.912-.912-.924-.924-1.081,1.081-1.081,1.081-1.056-1.057L392.3-444.44Z" transform="translate(-137.577 -64.362)"/><path d="M305-350.619v1.381h8.524v.444a7.046,7.046,0,0,0,.612,2.773,2.226,2.226,0,0,0,2.209,1.465c1.657,0,2.605-1.249,2.809-3.722l.072-.9,1.417-.036,1.4-.036V-352H305Z" transform="translate(-62.342 -145.757)"/></g></g></svg>